<?xml version="1.0" standalone="no"?>
<!DOCTYPE svg PUBLIC "-//W3C//DTD SVG 1.1//EN" "http://www.w3.org/Graphics/SVG/1.1/DTD/svg11.dtd" >
<svg xmlns="http://www.w3.org/2000/svg" xmlns:xlink="http://www.w3.org/1999/xlink" version="1.1">
<metadata>
Created by FontForge 20160407 at Mon May 30 16:01:50 2016
 By Jimmy Wärting
(c) FontSite Inc., 1996-2012. All Rights Reserved. www.fontsite.com
</metadata>
<defs>
<font id="BorgiaPro-Bold" horiz-adv-x="536" >
  <font-face 
    font-family="Borgia Pro"
    font-weight="700"
    font-stretch="normal"
    units-per-em="1000"
    panose-1="2 4 8 7 6 3 6 2 4 4"
    ascent="722"
    descent="-278"
    x-height="438"
    cap-height="667"
    bbox="-187 -304.012 1299 937"
    underline-thickness="74"
    underline-position="-129"
    stemh="42"
    stemv="131"
    unicode-range="U+0020-FB06"
  />
<missing-glyph horiz-adv-x="500" 
d="M50 0v668h400v-668h-400zM250 382l128 240h-256zM404 94v479l-128 -239zM96 94l128 240l-128 239v-479zM122 46h256l-128 240z" />
    <glyph glyph-name="f_f" unicode="ff" horiz-adv-x="662" 
d="M9 0v34h21c44 0 60 20 60 75v273h-81v21l83 35c14 145 146 258 301 258c55 0 96 -14 119 -39c53 44 104 64 168 64c65 0 143 -33 143 -61c0 -8 -3 -16 -11 -25l-33 -41c-8 -10 -15 -15 -23 -15c-11 0 -19 5 -40 28c-34 35 -68 54 -97 54c-34 0 -61 -21 -72 -57
c-9 -27 -11 -51 -11 -101v-65h110l-8 -56h-102v-263c0 -37 3 -55 12 -66c10 -10 31 -19 47 -19h58v-34h-316v34h8c44 0 60 20 60 75v273h-184v-263c0 -37 3 -55 12 -66c10 -10 31 -19 47 -19h11v-34h-282zM221 438h184c-1 47 14 106 35 136c-19 2 -26 5 -52 26
c-28 21 -54 31 -80 31c-35 0 -64 -19 -78 -51c-6 -14 -9 -34 -9 -62v-80z" />
    <glyph glyph-name="f_f_i" unicode="ffi" horiz-adv-x="987" 
d="M14 0v34h4c23 0 44 8 50 20c6 10 8 33 8 81v247h-67v21l67 35c6 48 19 85 43 120c54 81 157 135 255 135c62 0 101 -13 139 -45c56 48 118 73 181 73c49 0 101 -17 142 -47c17 -13 25 -22 25 -30c0 -5 -5 -15 -9 -21l-36 -43c-6 -8 -15 -14 -21 -14c-12 0 -21 7 -59 45
c-34 34 -68 52 -99 52c-28 0 -52 -15 -66 -43c-14 -27 -17 -56 -17 -132v-50h132v-37l194 63h20v-329c0 -56 3 -77 11 -86s28 -15 49 -15h4v-34h-260v34h4c23 0 44 7 51 16c7 10 10 32 10 85v210c0 34 -2 37 -29 37h-186v-263c0 -37 3 -55 12 -66c10 -10 31 -19 47 -19h21
v-34h-293v34h10c67 0 72 7 72 101v247h-216v-263c0 -38 3 -55 12 -66c9 -10 31 -19 47 -19h13v-34h-265zM207 438h216c0 42 10 94 24 127c-3 -1 -5 -1 -5 -1c-20 0 -38 9 -82 41c-18 13 -46 22 -68 22c-31 0 -60 -18 -72 -44c-12 -24 -13 -34 -13 -99v-46z" />
    <glyph glyph-name="f_f_l" unicode="ffl" horiz-adv-x="984" 
d="M15 0v34h4c23 0 44 8 50 20c6 10 8 32 8 81v247h-68v24l68 32c12 64 21 89 47 125c60 83 154 131 256 131c72 0 125 -24 149 -66c56 47 130 74 200 74c2 0 32 -3 89 -8h8c28 0 43 8 49 27h25v-586c0 -48 2 -71 8 -81c6 -12 26 -20 52 -20h4v-34h-260v34h4
c23 0 44 7 51 16c7 10 10 32 10 85v247h-215v-263c0 -38 3 -55 12 -66c10 -10 31 -19 47 -19h20v-34h-292v34h10c67 0 72 7 72 101v247h-215v-263c0 -37 3 -55 12 -66c10 -10 31 -19 47 -19h12v-34h-264zM554 438h215v141c-43 40 -82 61 -115 61c-39 0 -75 -25 -87 -62
c-8 -25 -13 -61 -13 -99v-41zM208 438h215c6 55 23 103 48 131c-13 -2 -18 -3 -23 -3c-23 0 -38 6 -75 32c-30 21 -57 31 -80 31c-32 0 -66 -22 -76 -51c-7 -18 -9 -39 -9 -86v-54z" />
    <glyph glyph-name="f_i" unicode="fi" horiz-adv-x="604" 
d="M9 0v34h8c44 0 60 20 60 75v273h-68v20l68 36c2 61 14 102 40 145c49 83 146 139 238 139c61 0 138 -34 138 -62c0 -7 -3 -15 -10 -24l-33 -41c-8 -9 -14 -13 -22 -13c-10 0 -17 4 -32 18c-48 46 -75 62 -105 62c-32 0 -62 -22 -73 -55c-9 -28 -10 -43 -10 -117v-52h106
v-36l183 62h22v-345c0 -37 3 -55 13 -66c9 -10 29 -19 45 -19h4v-34h-252v34h4c18 0 31 6 42 18c10 11 13 26 13 57v225c0 48 -1 48 -38 48h-142v-263c0 -38 3 -55 12 -66c9 -10 31 -19 47 -19h14v-34h-272z" />
    <glyph glyph-name="f_j" unicode="fj" horiz-adv-x="604" 
d="M9 0v34h8c44 0 60 20 60 75v273h-68v20l68 36c2 61 14 102 40 145c49 83 146 139 238 139c61 0 138 -34 138 -62c0 -7 -3 -15 -10 -24l-33 -41c-8 -9 -14 -13 -22 -13c-10 0 -17 4 -32 18c-48 46 -75 62 -105 62c-32 0 -62 -22 -73 -55c-9 -28 -10 -43 -10 -117v-52h106
v-36l183 62h22v-422c0 -63 -1 -77 -8 -107c-26 -112 -111 -180 -226 -180c-70 0 -111 24 -111 64c0 33 33 64 68 64c26 0 41 -11 70 -50c10 -14 23 -23 33 -23c16 0 31 18 38 45c4 18 5 27 5 116v363c0 48 -1 48 -38 48h-142v-263c0 -38 3 -55 12 -66c9 -10 31 -19 47 -19
h14v-34h-272z" />
    <glyph glyph-name="f_l" unicode="fl" horiz-adv-x="600" 
d="M9 0v34h12c44 0 60 20 60 75v273h-72v18l74 35c7 52 20 88 45 125c56 83 151 136 246 136c12 0 16 0 59 -4c7 -1 14 -1 18 -1c23 0 39 9 45 26h24v-598c0 -38 3 -55 12 -65c10 -11 29 -20 44 -20h4v-34h-244v34h4c15 0 36 10 41 20c6 9 8 32 8 81v247h-177v-247
c0 -92 6 -101 66 -101h4v-34h-273zM212 438h177v154c-42 32 -58 39 -84 39c-36 0 -70 -23 -82 -55c-8 -23 -11 -55 -11 -105v-33z" />
    <glyph glyph-name="f_t" unicode="ft" horiz-adv-x="681" 
d="M9 0v34h19c44 0 60 20 60 75v273h-79v24l79 32c2 55 15 104 39 144c48 80 152 140 241 140c63 0 140 -36 140 -66c0 -5 -3 -11 -9 -19l-33 -42c-8 -10 -16 -15 -23 -15c-12 0 -12 0 -47 32c-40 36 -64 49 -92 49c-32 0 -63 -21 -74 -51c-8 -22 -11 -43 -11 -93v-79h173
c56 47 85 84 104 134h30v-130h142l-15 -57h-127v-242c0 -37 1 -47 7 -58c7 -14 25 -23 43 -23c26 0 51 16 81 53l16 -29c-33 -57 -97 -97 -157 -97c-48 0 -87 21 -104 56c-14 28 -17 46 -17 107v230h-176v-263c0 -64 22 -85 92 -85h23v-34h-325z" />
    <glyph glyph-name=".notdef" horiz-adv-x="500" 
d="M50 0v668h400v-668h-400zM250 382l128 240h-256zM404 94v479l-128 -239zM96 94l128 240l-128 239v-479zM122 46h256l-128 240z" />
    <glyph glyph-name="space" unicode=" " horiz-adv-x="250" 
 />
    <glyph glyph-name="exclam" unicode="!" horiz-adv-x="335" 
d="M149 241l-61 402c-2 15 -2 15 -2 18c0 17 7 22 30 22h100c26 0 32 -4 32 -21c0 -5 -1 -16 -2 -22l-60 -399h-37zM82 61c0 41 38 72 86 72c50 0 86 -30 86 -71c0 -42 -38 -73 -89 -73c-47 0 -83 31 -83 72z" />
    <glyph glyph-name="quotedbl" unicode="&#x22;" horiz-adv-x="347" 
d="M232 410l-31 145c-5 24 -8 50 -8 65c0 37 20 58 55 58c32 0 55 -22 55 -54c0 -14 -4 -40 -10 -69l-29 -145h-32zM82 410l-31 145c-5 24 -8 49 -8 65c0 37 20 58 55 58c32 0 55 -22 55 -54c0 -13 -4 -40 -10 -69l-29 -145h-32z" />
    <glyph glyph-name="numbersign" unicode="#" 
d="M99 0l30 219h-94l8 55h94l19 132h-95l8 55h94l29 206h58l-29 -206h133l29 206h59l-29 -206h89l-8 -55h-89l-18 -132h89l-8 -55h-89l-31 -219h-58l30 219h-133l-30 -219h-58zM195 274h133l19 132h-133z" />
    <glyph glyph-name="dollar" unicode="$" 
d="M243 -100v88c-110 5 -202 72 -202 146c0 36 25 62 59 62c35 0 53 -20 67 -79c14 -61 33 -83 76 -91v259c-59 32 -68 37 -90 53c-64 46 -94 96 -94 160c0 96 72 165 184 177v43h34v-42c97 -4 186 -64 186 -127c0 -30 -25 -55 -55 -55c-21 0 -41 11 -53 30
c-7 11 -8 14 -17 45c-11 36 -31 59 -61 69v-215c65 -34 65 -34 85 -46c89 -54 125 -108 125 -185c0 -108 -88 -193 -210 -203v-89h-34zM243 441v199c-47 -5 -84 -43 -84 -87s24 -76 84 -112zM277 25c58 8 100 57 100 115c0 52 -29 88 -100 127v-242z" />
    <glyph glyph-name="percent" unicode="%" horiz-adv-x="849" 
d="M131 -30l478 715h76l-478 -715h-76zM199 286c-95 0 -169 86 -169 195s76 196 169 196c94 0 167 -85 167 -196s-72 -195 -167 -195zM153 353c13 -12 30 -20 45 -20c51 0 85 61 85 153c0 85 -33 143 -83 143c-52 0 -85 -58 -85 -148c0 -63 12 -102 38 -128zM483 185
c0 109 76 196 169 196c94 0 167 -85 167 -196s-72 -195 -167 -195s-169 86 -169 195zM568 185c0 -63 12 -102 38 -128c13 -12 30 -20 45 -20c51 0 85 61 85 153c0 85 -33 143 -83 143c-52 0 -85 -58 -85 -148z" />
    <glyph glyph-name="ampersand" unicode="&#x26;" horiz-adv-x="805" 
d="M746 83l20 -38c-37 -36 -99 -61 -152 -61c-47 0 -83 16 -110 48c-12 14 -17 21 -37 51c-58 -61 -143 -100 -219 -100c-106 0 -187 80 -187 185c0 81 54 139 174 188c-57 52 -80 92 -80 141c0 77 72 130 178 130c94 0 156 -45 156 -113c0 -50 -34 -93 -97 -124
c51 -35 86 -73 148 -155c39 54 84 144 84 169c0 13 -13 18 -49 18h-14v40h212v-40h-17c-50 0 -65 -9 -92 -61c-51 -95 -73 -133 -99 -167l30 -52c38 -66 60 -87 90 -87c19 0 42 10 61 28zM343 425l10 -8l5 4l2 2c26 26 39 55 39 88c0 45 -28 75 -70 75
c-34 0 -57 -23 -57 -58c0 -19 7 -38 19 -54c11 -15 11 -15 52 -49zM280 319l-11 10c-52 -32 -77 -71 -77 -120c0 -77 60 -147 127 -147c41 0 78 19 125 62c-34 62 -92 129 -164 195z" />
    <glyph glyph-name="quoteright" unicode="&#x2019;" horiz-adv-x="302" 
d="M72 394l-9 45c69 5 118 42 118 89c0 10 -6 17 -16 17c-2 0 -2 0 -15 -2c-7 -1 -14 -2 -21 -2c-48 0 -80 28 -80 71s34 72 84 72c70 0 115 -49 115 -123c0 -96 -70 -167 -169 -167h-7z" />
    <glyph glyph-name="parenleft" unicode="(" horiz-adv-x="380" 
d="M347 -212h-45c-61 55 -96 92 -126 134c-66 90 -104 205 -104 316c0 118 40 226 123 330c38 49 72 84 110 115h45c-103 -124 -147 -257 -147 -452c0 -189 44 -325 144 -443z" />
    <glyph glyph-name="parenright" unicode=")" horiz-adv-x="380" 
d="M15 683h45c43 -34 84 -79 125 -133c72 -96 109 -201 109 -312c0 -120 -43 -242 -120 -337c-27 -33 -58 -65 -111 -113h-45c100 117 145 254 145 445c0 192 -45 329 -148 450z" />
    <glyph glyph-name="asterisk" unicode="*" 
d="M139 227l-36 23l70 157l-146 85l13 41l170 -15l37 165h40l37 -165l172 15l13 -40l-148 -86l67 -157l-34 -23l-129 114z" />
    <glyph glyph-name="plus" unicode="+" 
d="M239 121v170h-184v60h184v170h60v-170h183v-60h-183v-170h-60z" />
    <glyph glyph-name="comma" unicode="," horiz-adv-x="335" 
d="M91 -157l-9 46c69 5 118 41 118 88c0 10 -6 17 -16 17c-2 0 -2 0 -15 -2c-7 -1 -14 -2 -21 -2c-48 0 -80 28 -80 71s34 72 84 72c70 0 115 -49 115 -123c0 -95 -73 -167 -169 -167h-7z" />
    <glyph glyph-name="hyphen" unicode="-" horiz-adv-x="447" 
d="M39 164v107h371v-107h-371z" />
    <glyph glyph-name="period" unicode="." horiz-adv-x="335" 
d="M81 61c0 41 38 72 86 72c50 0 86 -30 86 -71c0 -42 -38 -73 -89 -73c-47 0 -83 31 -83 72z" />
    <glyph glyph-name="slash" unicode="/" horiz-adv-x="369" 
d="M6 -258l240 985h94l-240 -985h-94z" />
    <glyph glyph-name="zero" unicode="0" 
d="M269 -16c-130 0 -223 146 -223 352c0 102 27 202 72 267c35 50 93 81 151 81c134 0 222 -140 222 -355c0 -203 -91 -345 -222 -345zM188 132c6 -69 35 -108 82 -108c40 0 67 28 77 83c5 26 8 88 8 179c0 134 -3 228 -8 268c-7 53 -39 89 -82 89c-35 0 -59 -22 -71 -64
c-8 -30 -11 -72 -11 -185c0 -166 2 -220 5 -262z" />
    <glyph glyph-name="one" unicode="1" 
d="M115 0v35l68 2c23 1 34 14 34 43v469c-22 -17 -92 -48 -126 -57l-15 33c81 38 160 97 213 159h61v-599c0 -33 11 -47 36 -48l71 -2v-35h-342z" />
    <glyph glyph-name="two" unicode="2" 
d="M34 0v38c63 65 177 193 214 240c47 61 70 119 70 179c0 85 -41 138 -108 138c-59 0 -110 -49 -124 -119h-41c17 124 103 208 214 208c108 0 188 -81 188 -190c0 -86 -30 -135 -153 -246c-64 -59 -108 -104 -134 -136h186c66 0 81 13 93 82h35l-21 -194h-419z" />
    <glyph glyph-name="three" unicode="3" 
d="M95 522l-31 14c30 92 103 148 191 148c81 0 144 -52 144 -119c0 -58 -33 -102 -113 -151c40 -1 62 -6 87 -23c50 -32 77 -88 77 -157c0 -145 -112 -251 -265 -251c-87 0 -155 40 -155 91c0 32 25 56 57 56c28 0 44 -11 68 -46c25 -38 45 -51 75 -51c56 0 94 60 94 147
c0 91 -44 154 -109 154c-12 0 -20 -2 -34 -7l-18 31c69 50 111 111 111 162c0 47 -33 81 -77 81c-41 0 -73 -25 -102 -79z" />
    <glyph glyph-name="four" unicode="4" 
d="M35 167v48l307 469h57v-446h90v-71h-90v-183h-133v183h-231zM100 238h166v255z" />
    <glyph glyph-name="five" unicode="5" 
d="M143 562l-5 -128c42 10 58 13 88 13c136 0 234 -94 234 -226c0 -138 -110 -238 -262 -238c-87 0 -150 37 -150 88c0 32 23 54 57 54c29 0 45 -12 71 -55c17 -29 35 -42 59 -42c57 0 99 61 99 143c0 96 -52 159 -129 159c-29 0 -54 -6 -83 -21l-31 17l14 341h237
c29 0 31 3 37 15l3 4h35l-19 -124h-255z" />
    <glyph glyph-name="six" unicode="6" 
d="M417 684l21 -33c-126 -42 -215 -146 -234 -275c36 27 71 39 110 39c109 0 182 -82 182 -205c0 -133 -88 -226 -213 -226c-139 0 -232 113 -232 281c0 211 144 376 366 419zM278 23c33 0 59 20 70 54c9 28 13 62 13 119c0 68 -6 109 -22 135c-12 20 -36 33 -60 33
c-28 0 -50 -10 -84 -36c0 -4 0 -4 -1 -9c-4 -24 -6 -60 -6 -93c0 -135 30 -203 90 -203z" />
    <glyph glyph-name="seven" unicode="7" 
d="M136 -16l241 564h-215c-64 0 -73 -7 -85 -66h-38l15 185h434v-42l-246 -641h-106z" />
    <glyph glyph-name="eight" unicode="8" 
d="M100 48c-33 32 -50 70 -50 115c0 71 42 122 130 158c-34 26 -44 34 -60 49c-37 35 -59 84 -59 132c0 103 89 182 205 182c112 0 205 -73 205 -161c0 -64 -39 -110 -126 -149c95 -50 142 -112 142 -190c0 -110 -100 -200 -222 -200c-61 0 -123 24 -165 64zM312 397l5 4
c33 27 50 69 50 120c0 77 -39 123 -104 123c-58 0 -97 -37 -97 -93c0 -58 41 -101 146 -154zM162 167c0 -90 40 -143 109 -143c64 0 109 45 109 108c0 44 -16 73 -55 102c-22 16 -22 16 -96 58c-1 0 -5 2 -10 6c-42 -34 -57 -70 -57 -131z" />
    <glyph glyph-name="nine" unicode="9" 
d="M100 19c122 37 211 139 237 273c-44 -28 -72 -37 -110 -37c-107 0 -184 85 -184 203c0 129 93 226 216 226c139 0 232 -112 232 -280c0 -139 -58 -252 -175 -339c-52 -39 -105 -61 -191 -81zM199 339c11 -20 35 -34 59 -34c25 0 52 10 88 34c4 42 7 89 7 113
c0 128 -31 193 -92 193c-57 0 -81 -50 -81 -165c0 -78 5 -114 19 -141z" />
    <glyph glyph-name="colon" unicode=":" horiz-adv-x="335" 
d="M165 305c-47 0 -83 31 -83 72s38 72 86 72c50 0 86 -30 86 -71c0 -42 -38 -73 -89 -73zM82 61c0 41 38 72 86 72c50 0 86 -30 86 -71c0 -42 -38 -73 -89 -73c-47 0 -83 31 -83 72z" />
    <glyph glyph-name="semicolon" unicode=";" horiz-adv-x="335" 
d="M168 305c-48 0 -84 31 -84 72s38 72 87 72c50 0 86 -30 86 -71c0 -42 -39 -73 -89 -73zM91 -157l-9 46c69 5 118 41 118 88c0 10 -6 17 -16 17c-2 0 -2 0 -15 -2c-7 -1 -14 -2 -21 -2c-48 0 -80 28 -80 71s34 72 84 72c70 0 115 -49 115 -123c0 -95 -73 -167 -169 -167
h-7z" />
    <glyph glyph-name="less" unicode="&#x3c;" 
d="M57 361v9l422 264v-63l-252 -159l252 -171v-168z" />
    <glyph glyph-name="equal" unicode="=" 
d="M55 358v60h427v-60h-427zM55 224v60h427v-60h-427z" />
    <glyph glyph-name="greater" unicode="&#x3e;" 
d="M57 73v63l252 159l-252 171v168l422 -288v-9z" />
    <glyph glyph-name="question" unicode="?" horiz-adv-x="391" 
d="M123 198c-31 51 -46 92 -46 123c0 49 29 74 106 95c47 12 60 17 79 27c26 15 41 37 41 62c0 40 -29 69 -69 69c-17 0 -27 -2 -63 -11c-26 -6 -42 -9 -58 -9c-40 0 -65 22 -65 58c0 43 42 72 105 72c118 0 202 -90 202 -218c0 -64 -24 -115 -69 -143
c-29 -19 -51 -28 -115 -45c-21 -6 -29 -14 -29 -29c0 -13 3 -20 19 -51h-38zM68 61c0 41 38 72 87 72c50 0 86 -30 86 -71c0 -42 -39 -73 -89 -73c-48 0 -84 31 -84 72z" />
    <glyph glyph-name="at" unicode="@" horiz-adv-x="747" 
d="M595 -12h54c-32 -34 -48 -47 -79 -64c-54 -30 -116 -46 -176 -46c-192 0 -347 156 -347 350s155 351 345 351c173 0 308 -129 308 -292c0 -94 -47 -169 -133 -213c-39 -20 -82 -31 -123 -31c-42 0 -58 14 -58 52c0 16 2 34 7 55c-84 -85 -110 -106 -130 -106
c-15 0 -36 15 -47 35c-8 13 -12 29 -12 49c0 58 27 123 74 176c61 69 137 107 218 107h8c11 -1 19 -1 20 -1h13l-56 -274c-5 -22 -5 -24 -5 -30c0 -12 8 -19 21 -19c32 0 80 29 110 66c34 40 49 81 49 131c0 142 -117 254 -264 254c-166 0 -301 -138 -301 -309
c0 -173 135 -310 306 -310c72 0 135 22 198 69zM400 184l35 174c-4 1 -8 1 -10 1c-77 0 -141 -82 -141 -179c0 -34 14 -58 34 -58c17 0 23 5 77 58z" />
    <glyph glyph-name="A" unicode="A" horiz-adv-x="774" 
d="M0 0v42h16c53 0 78 23 105 99l183 512l-11 30h157l215 -545c28 -71 53 -92 109 -96v-42h-350v42h37c46 0 65 12 65 41c0 9 -4 25 -13 46l-49 120h-233l-45 -127c-6 -18 -10 -32 -10 -40c0 -13 6 -23 17 -29c13 -6 48 -11 78 -11h14v-42h-285zM253 308h187l-99 250z" />
    <glyph glyph-name="B" unicode="B" horiz-adv-x="735" 
d="M0 0v42h5c92 0 125 24 125 90v399c0 82 -12 94 -93 94h-27v42c183 15 224 17 306 17c98 0 155 -7 213 -26c76 -24 125 -82 125 -148s-43 -107 -132 -126c103 -24 170 -96 170 -183s-65 -159 -168 -187c-36 -10 -78 -14 -141 -14h-383zM278 401c24 -2 44 -3 61 -3
c66 0 99 8 123 29c22 20 35 52 35 87c0 54 -31 100 -79 116c-26 9 -55 13 -91 13c-16 0 -27 -1 -49 -3v-239zM278 355v-200c0 -46 4 -66 16 -81c14 -17 42 -26 81 -26c56 0 92 14 117 45c22 27 34 64 34 103c0 56 -24 107 -62 133c-30 20 -64 27 -138 27c-17 0 -30 0 -48 -1
z" />
    <glyph glyph-name="C" unicode="C" horiz-adv-x="785" 
d="M702 192h43c-7 -48 -37 -146 -61 -195c-18 5 -39 8 -63 8c-22 0 -28 -1 -92 -12c-30 -5 -65 -8 -93 -8c-218 0 -389 152 -389 347c0 197 181 352 412 352c60 0 105 -9 170 -35c21 -8 28 -10 35 -10c9 0 15 3 21 11h27l10 -188h-43c-33 107 -110 167 -213 167
c-153 0 -259 -116 -259 -285c0 -173 118 -306 272 -306c98 0 180 56 223 154z" />
    <glyph glyph-name="D" unicode="D" horiz-adv-x="875" 
d="M23 0v42h7c41 0 60 5 76 21c14 14 17 28 17 73v395c0 49 -4 64 -22 78c-16 12 -33 16 -71 16h-6v42l84 6c106 8 149 9 237 9c123 0 190 -8 261 -29c136 -41 222 -158 222 -302c0 -135 -83 -261 -204 -310c-75 -30 -148 -41 -274 -41h-327zM271 125c0 -73 11 -83 91 -83
c108 0 192 34 243 97c40 51 63 121 63 196c0 106 -42 197 -112 246c-48 34 -116 51 -201 51c-27 0 -53 -2 -84 -5v-502z" />
    <glyph glyph-name="E" unicode="E" horiz-adv-x="690" 
d="M-5 0v42h35c41 0 60 5 76 21c14 13 17 28 17 73v395c0 49 -4 64 -22 78c-16 12 -33 16 -71 16h-11v42h590l12 -155h-42c-5 38 -10 58 -21 74c-13 18 -24 22 -71 22h-216v-244h157c53 0 73 7 86 29c6 11 8 20 10 47h44v-213h-43v10c0 51 -24 68 -96 68h-158v-151
c0 -95 0 -95 58 -95h144c72 0 95 9 116 45c11 18 18 37 24 64h40l-13 -168h-645z" />
    <glyph glyph-name="F" unicode="F" horiz-adv-x="639" 
d="M42 0v42h7c39 0 54 5 65 20c8 11 9 22 9 67v409c0 68 -16 87 -74 87h-6v42h542v-151h-39c-7 87 -14 92 -115 92h-160v-245h130c95 0 112 11 113 78h43v-214h-43c0 31 -4 46 -15 58c-16 16 -32 19 -90 19h-138v-168c0 -81 12 -94 87 -94h6v-42h-322z" />
    <glyph glyph-name="G" unicode="G" horiz-adv-x="830" 
d="M729 211v-160c-126 -48 -208 -66 -304 -66c-224 0 -378 142 -378 348c0 205 163 351 391 351c56 0 92 -6 190 -32c19 -5 33 -7 43 -7c14 0 24 4 31 14h27v-195h-44c-28 111 -110 176 -221 176c-152 0 -256 -120 -256 -296c0 -177 110 -308 258 -308c41 0 86 11 115 28
v141c0 42 -9 57 -38 65c-18 5 -44 8 -94 9v41h356v-41c-57 -1 -76 -18 -76 -68z" />
    <glyph glyph-name="H" unicode="H" horiz-adv-x="897" 
d="M25 0v42h5c41 0 60 5 76 21c14 14 17 28 17 73v395c0 49 -4 64 -22 78c-16 12 -33 16 -71 16h-5v42h344v-42h-5c-41 0 -60 -5 -76 -21c-14 -14 -17 -28 -17 -73v-157h354v157c0 48 -4 64 -22 78c-14 10 -36 16 -69 16h-5v42h343v-42h-6c-41 0 -60 -5 -76 -21
c-14 -13 -17 -28 -17 -73v-395c0 -49 4 -64 22 -77c16 -13 33 -17 71 -17h6v-42h-343v42h5c39 0 59 6 74 21c14 13 17 28 17 73v175h-354v-175c0 -49 4 -64 22 -77c16 -13 33 -17 71 -17h5v-42h-344z" />
    <glyph glyph-name="I" unicode="I" horiz-adv-x="395" 
d="M30 0v42h3c38 0 58 6 73 21c14 14 17 28 17 73v395c0 49 -4 64 -22 78c-15 11 -33 16 -68 16h-3v42h341v-42h-7c-41 0 -60 -5 -76 -21c-14 -14 -17 -28 -17 -73v-395c0 -49 4 -64 22 -77c16 -13 33 -17 71 -17h7v-42h-341z" />
    <glyph glyph-name="J" unicode="J" horiz-adv-x="391" 
d="M275 531v-394c0 -90 -1 -101 -7 -137c-27 -155 -121 -244 -260 -244c-77 0 -116 21 -116 62c0 36 35 68 75 68c26 0 39 -8 72 -43c14 -15 24 -21 36 -21c20 0 37 16 44 42c6 20 8 46 8 118v549c0 49 -4 64 -22 78c-16 12 -33 16 -71 16h-6v42h341v-42h-4
c-38 0 -58 -6 -73 -21c-14 -14 -17 -28 -17 -73z" />
    <glyph glyph-name="K" unicode="K" horiz-adv-x="793" 
d="M21 0v42h9c41 0 60 5 76 21c14 13 17 28 17 73v395c0 49 -4 64 -22 78c-16 12 -33 16 -71 16h-9v42h350v-42h-18c-40 0 -63 -10 -74 -32c-6 -13 -8 -34 -8 -81v-166c48 7 110 45 158 99c51 58 87 117 87 145c0 25 -18 34 -76 35v42h286v-42c-90 -7 -106 -18 -165 -101
c-55 -79 -98 -127 -128 -148c36 -21 83 -74 170 -187c96 -125 126 -147 200 -147v-42h-365v42c35 1 44 2 55 7c11 4 19 13 19 22c0 17 -48 79 -129 166c-54 58 -81 77 -106 75c-2 0 -3 0 -6 -1v-175c0 -49 4 -64 22 -77c16 -13 33 -17 71 -17h7v-42h-350z" />
    <glyph glyph-name="L" unicode="L" horiz-adv-x="651" 
d="M16 0v42h14c41 0 60 5 76 21c14 13 17 28 17 73v395c0 49 -4 64 -22 78c-16 12 -33 16 -71 16h-12v42h364v-42h-18c-41 0 -60 -5 -76 -21c-14 -13 -17 -28 -17 -73v-401c0 -65 5 -71 55 -71h115c55 0 81 7 104 29c21 21 58 64 82 98h43l-78 -186h-576z" />
    <glyph glyph-name="M" unicode="M" horiz-adv-x="995" 
d="M21 0v42c76 1 85 14 91 113l24 388c1 10 1 18 1 26c0 39 -18 53 -72 56v42h226l209 -451l200 451h231v-42l-13 -1c-57 -4 -67 -9 -66 -50l1 -31l26 -395c6 -94 11 -99 95 -106v-42h-338v42h18c67 0 83 14 83 72c0 9 0 9 -3 48l-25 381l-241 -543h-26l-246 530l-25 -382
l-1 -34c-2 -55 21 -72 89 -72v-42h-238z" />
    <glyph glyph-name="N" unicode="N" horiz-adv-x="875" 
d="M35 0v42h11c32 0 55 8 67 25c9 12 10 20 10 63v472c-20 14 -54 23 -86 23v42h221l438 -456v323c0 77 -16 91 -101 91h-12v42h277v-42h-12c-31 0 -59 -6 -70 -13c-15 -11 -17 -18 -17 -72v-544h-58l-515 538v-396c0 -57 8 -74 39 -87c16 -6 34 -9 67 -9v-42h-259z" />
    <glyph glyph-name="O" unicode="O" horiz-adv-x="886" 
d="M47 332c0 97 44 191 121 258c70 61 180 98 289 98c226 0 384 -140 384 -341c0 -211 -169 -362 -405 -362c-230 0 -389 142 -389 347zM208 374c0 -204 103 -343 253 -343c77 0 135 32 173 94c29 48 47 120 47 187c0 93 -27 178 -77 245c-42 55 -102 85 -173 85
c-136 0 -223 -105 -223 -268z" />
    <glyph glyph-name="P" unicode="P" horiz-adv-x="694" 
d="M33 0v42h17c39 0 54 5 65 20c7 11 9 23 9 67v409c0 44 -2 56 -9 67c-11 15 -26 20 -65 20h-25v42c124 8 304 17 345 17c76 0 128 -10 180 -33c72 -33 115 -100 115 -177c0 -124 -105 -204 -269 -204c-41 0 -80 4 -124 11v-145c0 -49 4 -64 22 -77c16 -13 33 -17 71 -17
h33v-42h-365zM272 325c24 -5 48 -7 76 -7c100 0 156 58 156 161c0 102 -56 161 -155 161c-26 0 -51 -3 -77 -10v-305z" />
    <glyph glyph-name="Q" unicode="Q" horiz-adv-x="886" 
d="M855 -196l-19 -41c-20 -5 -37 -7 -60 -7c-36 0 -81 8 -124 23c-66 23 -102 47 -205 132c-59 50 -94 72 -140 92c-164 46 -260 165 -260 324c0 208 174 361 411 361c225 0 383 -141 383 -341c0 -137 -75 -255 -202 -319c-31 -15 -58 -25 -88 -30c44 -29 61 -40 111 -90
c70 -70 127 -101 193 -104zM208 374c0 -204 103 -344 253 -344c77 0 135 32 173 95c29 48 47 120 47 187c0 93 -27 178 -77 245c-42 55 -102 85 -173 85c-136 0 -223 -105 -223 -268z" />
    <glyph glyph-name="R" unicode="R" horiz-adv-x="829" 
d="M13 0v42h17c41 0 60 5 76 21c14 14 17 28 17 73v395c0 49 -4 64 -22 78c-16 12 -33 16 -71 16h-15v42c130 11 242 17 316 17c99 0 160 -8 218 -27c78 -26 129 -92 129 -169c0 -82 -60 -147 -159 -174c36 -30 54 -56 120 -144c82 -110 122 -133 207 -139v-42
c-40 -1 -49 -1 -70 -1c-79 0 -136 8 -173 26c-50 23 -65 39 -158 166c-35 49 -59 77 -89 104h-85v-148c0 -49 4 -64 22 -77c16 -13 33 -17 71 -17h24v-42h-375zM271 325h26c152 0 220 48 220 157c0 107 -65 158 -201 158c-14 0 -25 -1 -45 -3v-312z" />
    <glyph glyph-name="S" unicode="S" horiz-adv-x="603" 
d="M90 3l-27 194h41c37 -106 99 -161 185 -161c70 0 124 46 124 105c0 35 -19 68 -54 95c-24 19 -29 22 -123 71c-58 30 -88 50 -115 78c-34 34 -53 80 -53 124c0 102 90 175 218 175c38 0 99 -10 148 -25c7 -2 13 -3 17 -3c7 0 12 2 21 11h23l20 -173h-43
c-22 86 -92 142 -175 142c-60 0 -105 -32 -105 -74c0 -39 28 -70 97 -106c87 -46 101 -55 140 -81c85 -57 123 -116 123 -191c0 -111 -102 -199 -232 -199c-47 0 -67 4 -164 32c-6 2 -12 3 -16 3c-9 0 -17 -6 -22 -17h-28z" />
    <glyph glyph-name="T" unicode="T" horiz-adv-x="782" 
d="M205 0v42h26c41 0 60 5 76 21c14 13 17 28 17 73v476h-112c-96 0 -108 -12 -129 -127h-44l18 200h35c19 -18 19 -18 78 -18h481c36 0 44 3 55 18h33l19 -200h-42c-23 114 -35 127 -117 127h-127v-476c0 -49 4 -64 22 -77c16 -13 33 -17 71 -17h26v-42h-386z" />
    <glyph glyph-name="U" unicode="U" horiz-adv-x="831" 
d="M724 507v-199c0 -86 -4 -116 -20 -161c-38 -106 -138 -162 -288 -162c-159 0 -272 65 -300 174c-7 27 -10 58 -10 111v261c0 51 -3 65 -14 76c-12 12 -35 18 -72 18h-7v42h336v-42h-5c-38 0 -58 -6 -73 -21c-14 -14 -17 -28 -17 -73v-265c0 -73 4 -96 23 -128
c30 -52 93 -82 173 -82c106 0 179 49 201 135c7 26 8 46 8 117v187c0 63 -6 90 -22 107c-16 16 -39 23 -76 23h-9v42h278v-42h-8c-35 0 -64 -9 -80 -25c-14 -15 -18 -33 -18 -93z" />
    <glyph glyph-name="V" unicode="V" horiz-adv-x="791" 
d="M370 -15l-253 550c-35 76 -52 89 -112 89h-7v43h372v-43h-19c-58 0 -88 -15 -88 -43c0 -11 6 -29 18 -55l164 -352l157 372c9 21 11 29 11 37c0 28 -28 41 -89 41h-6v43h272v-43h-8c-60 0 -83 -23 -127 -126l-218 -513h-67z" />
    <glyph glyph-name="W" unicode="W" horiz-adv-x="1059" 
d="M369 -15l-262 551c-24 51 -29 59 -43 71s-32 18 -58 18h-9v42h285v-42c-27 -2 -40 -11 -40 -29c0 -11 2 -16 14 -40l196 -410l69 141l-127 266c-29 61 -41 70 -73 72v42h470v-42c-40 -9 -55 -23 -82 -77l-78 -159l113 -229l151 381c6 15 9 29 9 39c0 31 -19 45 -63 45v42
h216v-42c-53 -5 -75 -26 -103 -96l-217 -544h-71l-114 237l-112 -237h-71zM599 455l61 121c5 11 9 23 9 29c0 14 -13 20 -42 20h-58c-28 0 -40 -6 -40 -21c0 -3 2 -12 9 -26z" />
    <glyph glyph-name="X" unicode="X" horiz-adv-x="861" 
d="M16 0v42c73 9 104 26 179 102l169 173l-161 201c-33 41 -63 72 -86 86c-24 16 -41 20 -83 20h-12v43h407v-43h-26c-50 0 -66 -6 -66 -25c0 -13 3 -17 32 -53l97 -121l110 113c24 25 37 46 37 60c0 20 -15 26 -64 26h-14v43h289v-43c-73 -2 -101 -20 -192 -116l-125 -132
l193 -240c59 -73 86 -89 157 -94v-42h-376v42h13c43 0 62 9 62 30c0 10 -8 26 -22 42l-131 155l-165 -170c-12 -13 -16 -20 -16 -29c0 -20 22 -28 75 -28h13v-42h-294z" />
    <glyph glyph-name="Y" unicode="Y" horiz-adv-x="791" 
d="M224 0v42h16c41 0 60 5 76 21c14 14 17 28 17 73v132l-209 277c-41 54 -41 54 -54 64c-16 12 -31 15 -66 15h-7v43h350v-43h-9c-46 0 -64 -8 -64 -29c0 -10 2 -10 25 -41l158 -210l118 184c15 23 26 50 26 63c0 22 -20 33 -58 33h-13v43h254v-43
c-70 -5 -82 -14 -141 -105l-162 -251v-132c0 -49 4 -64 22 -77c16 -13 33 -17 71 -17h17v-42h-367z" />
    <glyph glyph-name="Z" unicode="Z" horiz-adv-x="778" 
d="M49 0v57l476 553h-243c-63 0 -63 0 -82 -5c-38 -11 -56 -43 -65 -118h-40l6 180h619v-59l-476 -551h314c63 0 84 10 107 52c15 27 23 53 34 106h41l-13 -215h-678z" />
    <glyph glyph-name="bracketleft" unicode="[" horiz-adv-x="380" 
d="M118 -201v868h256v-34c-23 -1 -47 -3 -53 -3c-45 -2 -66 -9 -76 -24c-4 -7 -5 -12 -5 -34v-664c0 -43 1 -50 12 -57c17 -12 44 -16 124 -16v-36h-258z" />
    <glyph glyph-name="backslash" unicode="\" horiz-adv-x="369" 
d="M246 -258l-240 985h93l241 -985h-94z" />
    <glyph glyph-name="bracketright" unicode="]" horiz-adv-x="380" 
d="M4 -165c80 0 107 4 124 16c11 8 12 14 12 57v664c0 24 -1 28 -7 36c-10 14 -31 20 -74 22l-53 3v34h256v-868h-258v36z" />
    <glyph glyph-name="asciicircum" unicode="^" horiz-adv-x="500" 
d="M-30 278l288 422h9l263 -422h-63l-159 252l-171 -252h-167z" />
    <glyph glyph-name="underscore" unicode="_" horiz-adv-x="500" 
d="M0 -92h500v-74h-500v74z" />
    <glyph glyph-name="quoteleft" unicode="&#x2018;" horiz-adv-x="335" 
d="M248 683l8 -45c-68 -5 -117 -42 -117 -88c0 -10 6 -17 16 -17c2 0 2 0 15 2c7 1 14 2 21 2c48 0 80 -28 80 -71s-34 -72 -84 -72c-70 0 -115 49 -115 123c0 95 73 167 169 167c1 0 4 0 7 -1z" />
    <glyph glyph-name="a" unicode="a" horiz-adv-x="495" 
d="M287 47l-15 -14c-31 -29 -64 -44 -108 -44c-77 0 -125 43 -125 112c0 40 18 76 49 99c19 14 30 18 73 31c62 19 104 39 132 64v40c0 41 -28 72 -66 72c-37 0 -58 -23 -58 -64c0 -5 0 -10 2 -19l-120 -42c-4 17 -5 25 -5 36c0 43 21 72 69 97c40 20 98 35 136 35
c56 0 122 -27 151 -62c16 -20 24 -48 24 -88v-135c0 -50 2 -77 4 -82c3 -11 10 -17 20 -17c8 0 14 3 29 13l16 -25c-35 -37 -87 -64 -122 -64c-40 0 -66 22 -75 64zM295 93v154c-20 -16 -28 -20 -69 -39c-43 -21 -58 -43 -58 -85c0 -44 22 -74 54 -74c18 0 32 8 73 44z" />
    <glyph glyph-name="b" unicode="b" horiz-adv-x="594" 
d="M74 22v539c0 46 -4 54 -38 67l-28 11v26l163 52h34v-357c62 57 127 89 179 89c97 0 173 -91 173 -206c0 -147 -116 -255 -272 -255c-49 0 -148 16 -211 34zM205 180c0 -102 29 -146 96 -146c76 0 121 60 121 161c0 100 -50 169 -122 169c-33 0 -70 -22 -95 -55v-129z" />
    <glyph glyph-name="c" unicode="c" horiz-adv-x="514" 
d="M450 121l31 -18c-50 -74 -125 -114 -219 -114c-131 0 -225 89 -225 212c0 140 121 249 277 249c93 0 163 -39 163 -91c0 -32 -22 -54 -55 -54c-32 0 -45 8 -90 57c-25 28 -42 38 -62 38c-53 0 -89 -66 -89 -163c0 -114 54 -193 133 -193c47 0 92 26 136 77z" />
    <glyph glyph-name="d" unicode="d" horiz-adv-x="592" 
d="M383 -11v85c-67 -59 -118 -85 -172 -85c-102 0 -174 84 -174 202c0 71 26 141 72 189c43 46 104 69 178 69c34 0 64 -4 96 -14v125c0 40 -3 48 -21 60c-13 9 -28 13 -51 18v26l167 53h36v-576c0 -63 9 -79 43 -79c11 0 22 2 33 6v-32l-178 -47h-29zM383 122v239
c-40 35 -63 46 -102 46c-71 0 -113 -59 -113 -158c0 -107 48 -181 117 -181c32 0 71 22 98 54z" />
    <glyph glyph-name="e" unicode="e" horiz-adv-x="506" 
d="M439 145l24 -21c-61 -85 -147 -135 -230 -135c-116 0 -196 90 -196 220c0 140 96 240 230 240c70 0 129 -30 159 -81c12 -20 18 -38 26 -78c3 -17 8 -26 21 -34v-24h-299c6 -91 66 -164 136 -164c38 0 78 23 129 77zM172 266h153c-1 82 -29 132 -76 132
c-45 0 -77 -49 -77 -118v-14z" />
    <glyph glyph-name="f" unicode="f" horiz-adv-x="345" 
d="M9 0v34h19c44 0 60 20 60 75v273h-79v23l79 33c2 54 15 104 39 144c48 80 151 140 240 140c63 0 140 -36 140 -66c0 -5 -4 -12 -9 -19l-33 -42c-8 -10 -15 -15 -23 -15c-11 0 -11 0 -47 32c-40 37 -63 49 -91 49c-32 0 -63 -21 -74 -51c-8 -22 -11 -44 -11 -93v-79h107
l-7 -56h-100v-263c0 -64 22 -85 92 -85h23v-34h-325z" />
    <glyph glyph-name="g" unicode="g" horiz-adv-x="578" 
d="M271 141h-13c-73 -25 -89 -34 -89 -51c0 -22 48 -35 135 -35c10 0 22 0 34 1c19 1 31 1 35 1c118 0 186 -46 186 -126c0 -102 -131 -179 -304 -179c-123 0 -218 46 -218 107c0 31 19 51 67 72c21 9 28 15 37 30c-58 19 -91 56 -91 101c0 28 15 44 53 61c15 6 30 11 92 30
c-74 4 -140 67 -140 132c0 93 95 164 219 164c58 0 106 -14 144 -42l152 39v-111l-108 25c15 -21 22 -43 22 -69c0 -45 -27 -89 -69 -113c-40 -23 -96 -37 -144 -37zM273 184c50 0 78 34 78 96c0 77 -32 125 -84 125c-50 0 -80 -38 -80 -101c0 -78 30 -120 86 -120zM192 -50
l-4 -3c-21 -16 -37 -39 -37 -55c0 -51 72 -94 158 -94c87 0 154 39 154 90c0 39 -31 58 -106 55l-58 -2c-46 -2 -81 3 -107 9z" />
    <glyph glyph-name="h" unicode="h" horiz-adv-x="613" 
d="M14 0v34h5c64 0 69 8 69 101v437c0 44 1 47 -64 69l-9 3v19l177 54h27v-349c71 49 147 81 193 81c78 0 117 -63 117 -191v-123c0 -89 7 -101 56 -101h3v-34h-253v34h4c25 0 45 8 51 20c6 9 8 33 8 81v140c0 58 -27 94 -70 94c-29 0 -73 -17 -109 -40v-194
c0 -91 6 -101 63 -101h4v-34h-272z" />
    <glyph glyph-name="i" unicode="i" horiz-adv-x="307" 
d="M147 558c-47 0 -83 32 -83 73c0 40 40 74 88 74c46 0 83 -33 83 -74s-39 -73 -88 -73zM17 0v34h11c44 0 60 20 60 75v202c0 37 -2 39 -37 53l-35 14v26l183 60h20v-345c0 -38 3 -55 12 -66c9 -10 31 -19 47 -19h7v-34h-268z" />
    <glyph glyph-name="j" unicode="j" horiz-adv-x="303" 
d="M147 558c-47 0 -83 32 -83 73c0 40 40 74 88 74c46 0 83 -33 83 -74s-39 -73 -88 -73zM87 -30v345c0 32 -3 36 -36 48l-36 13v26l181 61h22v-422c0 -63 -1 -77 -8 -107c-26 -112 -111 -180 -226 -180c-70 0 -111 24 -111 64c0 33 33 64 68 64c26 0 41 -11 70 -50
c10 -14 23 -23 33 -23c16 0 31 18 38 45c4 18 5 27 5 116z" />
    <glyph glyph-name="k" unicode="k" horiz-adv-x="587" 
d="M22 0v34h6c44 0 60 20 60 75v472c0 32 -4 38 -34 48l-32 11v25l171 52h26v-466l145 121c10 8 13 12 13 18c0 13 -4 15 -45 15h-7v33h222v-34h-8c-39 0 -87 -21 -127 -55l-73 -61l155 -195c35 -45 57 -59 83 -59h9v-34h-247v34h4c14 0 22 5 22 14c0 4 -4 12 -11 21
l-135 173v-123c0 -37 3 -55 12 -66c10 -10 31 -19 47 -19h4v-34h-260z" />
    <glyph glyph-name="l" unicode="l" horiz-adv-x="303" 
d="M17 0v34h11c44 0 60 20 60 75v442c0 48 -4 57 -28 65l-46 16v32l186 53h19v-598c0 -37 3 -55 12 -66c10 -10 31 -19 47 -19h5v-34h-266z" />
    <glyph glyph-name="m" unicode="m" horiz-adv-x="995" 
d="M20 0v34h7c45 0 61 20 61 75v215c0 17 -15 31 -45 41l-25 8v27l181 61h20v-123c117 83 176 111 232 111c61 0 102 -41 111 -111c29 22 49 35 86 57c67 38 111 54 151 54c78 0 112 -56 112 -184v-130c0 -48 2 -71 8 -81c6 -12 27 -20 49 -20h3v-34h-252v34
c48 6 61 36 61 141v64c0 91 -19 129 -66 129c-34 0 -74 -18 -148 -67v-182c0 -37 3 -55 12 -65c10 -12 29 -20 44 -20h4v-34h-252v34h4c41 0 57 21 57 75v154c0 71 -21 105 -65 105c-39 0 -81 -19 -151 -69v-180c0 -38 3 -55 12 -66c9 -10 31 -19 47 -19h13v-34h-271z" />
    <glyph glyph-name="n" unicode="n" horiz-adv-x="614" 
d="M20 0v34h7c45 0 61 20 61 75v215c0 19 -22 35 -58 45l-15 4v27l184 61h20v-96c13 9 27 18 49 30c68 39 110 54 150 54c46 0 82 -25 97 -67c12 -33 15 -60 15 -117v-130c0 -49 2 -71 8 -81c6 -12 27 -20 49 -20h5v-34h-254v34c48 6 61 36 61 141v64c0 91 -19 129 -66 129
c-31 0 -57 -10 -114 -47v-202c0 -38 3 -55 12 -66c9 -10 31 -19 47 -19h15v-34h-273z" />
    <glyph glyph-name="o" unicode="o" horiz-adv-x="596" 
d="M37 216c0 131 118 234 269 234c148 0 254 -93 254 -223c0 -137 -115 -238 -272 -238c-147 0 -251 94 -251 227zM214 114c24 -52 62 -81 108 -81c60 0 96 49 96 133c0 139 -58 239 -139 239c-63 0 -100 -48 -100 -128c0 -53 13 -114 35 -163z" />
    <glyph glyph-name="p" unicode="p" horiz-adv-x="608" 
d="M88 -109v421c0 29 -8 44 -30 51l-39 13v27l172 58h28v-102c87 71 124 90 178 90c100 0 175 -87 175 -202c0 -70 -28 -141 -76 -191c-43 -44 -102 -67 -171 -67c-34 0 -66 4 -106 13v-108c0 -81 19 -99 106 -104v-34h-308v34h12c27 0 40 6 49 23c8 13 10 29 10 78zM219 80
c30 -32 73 -52 109 -52c66 0 112 65 112 158c0 109 -47 183 -114 183c-33 0 -65 -17 -107 -55v-234z" />
    <glyph glyph-name="q" unicode="q" horiz-adv-x="594" 
d="M388 -121v200c-58 -58 -120 -90 -175 -90c-100 0 -176 88 -176 204c0 146 113 256 262 256c54 0 112 -16 157 -43l46 43h26c-5 -38 -9 -88 -9 -130v-439c0 -53 3 -64 19 -76c12 -10 25 -13 46 -14v-34h-304v34h35c38 0 52 5 63 22c8 12 10 28 10 67zM388 126v151
c0 81 -34 127 -94 127c-75 0 -122 -63 -122 -165c0 -97 50 -166 120 -166c35 0 55 11 96 53z" />
    <glyph glyph-name="r" unicode="r" horiz-adv-x="421" 
d="M20 0v34h8c44 0 60 20 60 75v176c0 48 -6 59 -39 72l-29 11v27l176 66h23v-120c50 92 64 108 95 108c12 0 27 -3 45 -10l62 -24c-12 -41 -33 -89 -51 -114l-51 19c-14 5 -28 8 -37 8c-20 0 -40 -15 -63 -48v-161c0 -68 14 -85 72 -85h28v-34h-299z" />
    <glyph glyph-name="s" unicode="s" horiz-adv-x="402" 
d="M57 -10l-12 136h34c24 -60 61 -91 112 -91c30 0 55 22 55 49c0 12 -6 25 -16 35c-13 13 -13 13 -80 56c-78 50 -104 84 -104 138c0 82 67 136 169 136c40 0 73 -6 118 -22l2 -115h-33c-20 60 -56 93 -102 93c-28 0 -49 -18 -49 -42c0 -27 20 -48 78 -81
c68 -39 75 -44 97 -66c23 -23 36 -56 36 -92c0 -79 -60 -136 -142 -136c-25 0 -68 6 -100 14c-4 1 -8 2 -11 2c-6 0 -12 -4 -22 -14h-30z" />
    <glyph glyph-name="t" unicode="t" horiz-adv-x="370" 
d="M346 116l16 -30c-33 -57 -97 -97 -157 -97c-48 0 -87 21 -104 56c-14 28 -17 46 -17 107v233h-57v21c61 23 138 105 158 166h30v-130h142l-15 -57h-127v-242c0 -37 1 -47 7 -58c7 -14 25 -23 43 -23c26 0 51 17 81 54z" />
    <glyph glyph-name="u" unicode="u" horiz-adv-x="611" 
d="M88 152v163c0 41 -3 50 -23 60l-22 11v24l154 39h22v-235c0 -71 3 -95 17 -115c12 -19 31 -29 53 -29c25 0 62 15 108 44v194c0 42 -7 52 -39 62l-49 15v25l219 39v-328c0 -54 5 -65 32 -65c10 0 20 2 31 7v-33l-173 -41h-21v85c-96 -61 -150 -85 -193 -85
c-76 0 -116 57 -116 163z" />
    <glyph glyph-name="v" unicode="v" horiz-adv-x="545" 
d="M237 -6l-151 325c-30 64 -45 81 -91 85v34h272v-34h-23c-29 0 -38 -5 -38 -23c0 -10 4 -22 15 -46l91 -205l83 190c8 17 12 32 12 42c0 25 -21 37 -75 42v34h214v-34c-58 -4 -68 -17 -106 -102l-137 -308h-66z" />
    <glyph glyph-name="w" unicode="w" horiz-adv-x="825" 
d="M227 -6l-133 311c-32 75 -51 96 -98 99v34h257v-34c-27 -3 -42 -16 -42 -37c0 -8 0 -10 9 -31l81 -194l86 194c-19 50 -39 69 -67 68v34h243v-34c-33 0 -48 -10 -48 -35c0 -8 6 -27 13 -44l76 -183l76 183c6 14 9 27 9 35c0 26 -23 42 -62 44v34h198v-34
c-49 -4 -69 -26 -99 -97l-133 -313h-61l-119 279l-127 -279h-59z" />
    <glyph glyph-name="x" unicode="x" horiz-adv-x="570" 
d="M22 0v34c32 0 71 26 115 72l88 91l-123 149c-35 43 -54 54 -88 58v34h263v-34c-25 0 -36 -6 -36 -18c0 -5 3 -11 7 -16l67 -83l60 64c7 9 13 20 13 28c0 16 -14 24 -46 25v34h200v-34c-43 -5 -74 -22 -127 -77l-73 -76l119 -144c43 -52 68 -73 104 -73v-34h-276v34h10
c23 0 32 6 32 20c0 9 -3 15 -16 32l-61 76l-68 -73c-11 -12 -16 -21 -16 -30c0 -18 12 -25 43 -25v-34h-191z" />
    <glyph glyph-name="y" unicode="y" horiz-adv-x="543" 
d="M444 318l-216 -442c-32 -65 -32 -65 -47 -85c-19 -26 -46 -41 -74 -41c-39 0 -67 26 -67 61c0 43 25 65 81 69c39 2 70 21 93 72l27 59l-146 295c-41 83 -53 95 -101 98v34h274v-34h-8c-30 0 -47 -12 -47 -33c0 -9 3 -19 14 -41l85 -175l82 165c8 16 11 28 11 38
c0 27 -26 45 -67 46v34h200v-34c-47 -10 -64 -24 -94 -86z" />
    <glyph glyph-name="z" unicode="z" horiz-adv-x="528" 
d="M22 0v34l283 345h-149c-42 0 -55 -13 -92 -91h-36l35 180h36v-8c0 -18 4 -22 40 -22h354v-30l-286 -349h134c57 0 76 7 101 35c17 20 28 36 39 55h33l-50 -149h-442z" />
    <glyph glyph-name="braceleft" unicode="{" horiz-adv-x="380" 
d="M122 -61v184c0 83 -9 102 -59 109c-1 1 -7 2 -12 3v27c35 2 47 7 57 20c13 17 14 22 14 109v140c0 64 22 108 63 125c23 9 30 2 136 10l14 1v-33c-83 -2 -98 -19 -98 -110v-176c0 -57 -23 -86 -76 -99v-3c54 -10 76 -44 76 -115v-187c0 -64 8 -85 36 -100
c15 -8 32 -11 60 -11h2v-33c-90 0 -121 2 -142 9c-51 16 -71 53 -71 130z" />
    <glyph glyph-name="bar" unicode="|" horiz-adv-x="500" 
d="M201 -167v834h99v-834h-99z" />
    <glyph glyph-name="braceright" unicode="}" horiz-adv-x="380" 
d="M143 -56v187c0 71 22 105 76 115v3c-53 13 -76 42 -76 99v176c0 91 -15 108 -98 110v33l14 -1h57c56 0 81 -7 102 -25c28 -24 40 -58 40 -110v-140c0 -87 1 -92 14 -109c10 -13 22 -18 57 -20v-27c-5 -1 -11 -2 -12 -3l-15 -2c-38 -13 -44 -30 -44 -107v-184
c0 -80 -23 -118 -79 -132c-20 -5 -54 -7 -134 -7v33h6c23 0 50 6 64 16c22 16 28 37 28 95z" />
    <glyph glyph-name="asciitilde" unicode="~" horiz-adv-x="667" 
d="M159 603l-22 14c42 77 83 111 132 111c19 0 37 -4 81 -20c40 -14 61 -19 79 -19c29 0 54 14 79 45l23 -14c-36 -71 -84 -111 -134 -111c-22 0 -33 3 -104 29c-18 7 -41 11 -58 11c-26 0 -42 -8 -67 -36z" />
    <glyph glyph-name="exclamdown" unicode="&#xa1;" horiz-adv-x="335" 
d="M165 339c-50 0 -86 30 -86 71c0 42 38 73 89 73c47 0 83 -31 83 -72s-38 -72 -86 -72zM87 -169l61 400h36l61 -403c2 -13 2 -14 2 -17c0 -18 -7 -23 -30 -23h-99c-26 0 -33 4 -33 21c0 5 1 15 2 22z" />
    <glyph glyph-name="cent" unicode="&#xa2;" 
d="M187 5c-85 33 -134 105 -134 196c0 139 121 248 275 248c13 0 21 0 37 -2l50 127h44l-54 -135c55 -14 88 -44 88 -80c0 -32 -22 -54 -55 -54c-26 0 -48 11 -72 37l-108 -271c20 -18 45 -27 73 -27c46 0 91 26 135 77l31 -18c-50 -75 -125 -114 -220 -114
c-17 0 -32 1 -50 5l-69 -174h-44zM228 106l108 269c-18 17 -33 24 -50 24c-52 0 -89 -66 -89 -160c0 -53 11 -101 31 -133z" />
    <glyph glyph-name="sterling" unicode="&#xa3;" 
d="M408 247h-178c-25 -43 -47 -73 -87 -118c29 8 41 11 57 11c25 0 52 -9 78 -28c8 -5 8 -5 49 -41c45 -40 73 -57 92 -57s35 18 35 40c0 13 -4 24 -14 42c-11 19 -15 30 -15 44c0 25 23 45 51 45c34 0 56 -31 56 -79c0 -81 -75 -147 -166 -147c-39 0 -76 12 -113 37
c-25 16 -25 16 -80 69c-17 16 -28 22 -40 22c-10 0 -17 -3 -37 -16c-21 -66 -62 -112 -100 -112c-20 0 -36 17 -36 38c0 33 28 62 96 101c8 17 12 26 27 67c9 25 18 48 32 82h-133l14 41h135c118 293 204 399 324 399c62 0 121 -34 121 -69c0 -28 -29 -59 -55 -59
c-17 0 -26 8 -52 43c-25 34 -33 41 -45 41c-23 0 -38 -27 -81 -143c-40 -106 -61 -157 -90 -212h168z" />
    <glyph glyph-name="fraction" unicode="&#x2044;" horiz-adv-x="120" 
d="M-120 0h-67l427 667h67z" />
    <glyph glyph-name="yen" unicode="&#xa5;" 
d="M128 0v35h14c31 0 45 5 57 19c10 12 13 25 13 65v155l-40 83h-152v41h132l-32 66h-100v41h81l-26 53c-32 65 -38 73 -88 73h-6v36h277v-36h-9c-29 0 -41 -7 -41 -24c0 -8 5 -24 13 -41l29 -61h127l12 37c16 49 16 49 16 58c0 21 -13 31 -40 31h-11v36h184v-36
c-57 -3 -79 -24 -104 -97l-10 -29h89v-41h-103l-23 -66h126v-41h-140l-28 -83v-155c0 -43 3 -56 16 -69c12 -11 25 -15 54 -15h15v-35h-302zM324 350l39 114h-94z" />
    <glyph glyph-name="florin" unicode="&#x192;" 
d="M348 431l-34 -194c-31 -178 -56 -262 -91 -315c-27 -41 -75 -66 -127 -66c-53 0 -90 26 -90 64c0 30 25 54 57 54c30 0 52 -19 52 -44c0 -8 -2 -15 -6 -22c-2 -3 -3 -6 -3 -8c0 -4 8 -8 18 -8c28 0 43 22 43 63c0 5 -1 26 -2 51c-1 13 -1 25 -1 40c0 54 3 87 18 171
l38 214h-64l8 50c60 2 86 25 110 100c23 70 36 101 56 123c24 26 57 39 97 39c53 0 88 -28 88 -70c0 -36 -25 -62 -58 -62c-29 0 -51 20 -51 46c0 9 3 17 11 32c5 8 7 13 7 15c0 5 -8 9 -17 9c-27 0 -45 -27 -45 -69c0 -5 1 -25 2 -44c1 -11 1 -22 1 -32
c0 -29 -2 -48 -9 -87h80l-8 -50h-80z" />
    <glyph glyph-name="section" unicode="&#xa7;" 
d="M85 -133c0 28 24 52 51 52c17 0 29 -7 52 -30c37 -38 53 -47 78 -47c30 0 53 22 53 51c0 28 -12 51 -105 194c-119 184 -148 250 -148 338c0 141 115 263 249 263c71 0 138 -36 138 -74c0 -29 -24 -56 -50 -56c-18 0 -28 6 -67 41c-27 23 -51 36 -70 36
c-28 0 -52 -23 -52 -48c0 -17 9 -42 25 -69c12 -21 12 -21 81 -126c73 -113 95 -150 114 -195c26 -61 39 -115 39 -161c0 -133 -122 -248 -266 -248c-58 0 -122 41 -122 79zM274 128c71 -115 86 -152 90 -233c33 34 51 77 51 124c0 59 -25 121 -98 240
c-117 191 -139 233 -149 311c-28 -27 -44 -67 -44 -113c0 -69 27 -132 150 -329z" />
    <glyph glyph-name="currency" unicode="&#xa4;" 
d="M71 106l-29 30l67 66c-30 37 -47 84 -47 131s16 92 47 129l-67 67l29 29l67 -66c36 29 83 46 130 46c46 0 97 -18 130 -46l67 66l29 -29l-67 -66c31 -37 47 -83 47 -130s-17 -95 -47 -131l67 -66l-29 -30l-67 67c-35 -29 -83 -46 -130 -46c-46 0 -96 18 -130 46zM266 209
c70 0 126 54 126 122c0 70 -55 125 -124 125c-68 0 -124 -55 -124 -124c0 -67 56 -123 122 -123z" />
    <glyph glyph-name="quotesingle" unicode="'" horiz-adv-x="197" 
d="M82 410l-31 145c-5 24 -8 49 -8 65c0 37 20 58 55 58c32 0 55 -22 55 -54c0 -13 -4 -40 -10 -69l-29 -145h-32z" />
    <glyph glyph-name="quotedblleft" unicode="&#x201c;" horiz-adv-x="626" 
d="M540 683l9 -45c-69 -5 -117 -42 -117 -88c0 -10 6 -17 16 -17c2 0 2 0 15 2c7 1 13 2 20 2c49 0 80 -28 80 -71s-33 -72 -84 -72c-69 0 -114 49 -114 123c0 95 73 167 169 167c0 0 3 0 6 -1zM245 683l8 -45c-68 -5 -117 -42 -117 -88c0 -10 6 -17 16 -17c2 0 2 0 15 2
c7 1 14 2 21 2c48 0 80 -28 80 -71s-34 -72 -84 -72c-70 0 -115 49 -115 123c0 95 73 167 169 167c1 0 4 0 7 -1z" />
    <glyph glyph-name="guillemotleft" unicode="&#xab;" horiz-adv-x="458" 
d="M204 37l-178 200l178 201h36l-87 -201l84 -200h-33zM247 237l146 184h34l-68 -184l68 -185h-35z" />
    <glyph glyph-name="guilsinglleft" unicode="&#x2039;" horiz-adv-x="268" 
d="M203 37l-180 199l180 202h36l-88 -202l88 -199h-36z" />
    <glyph glyph-name="guilsinglright" unicode="&#x203a;" horiz-adv-x="268" 
d="M27 37l86 200l-86 201h34l180 -201l-179 -200h-35z" />
    <glyph glyph-name="fi" unicode="&#xe103;" horiz-adv-x="604" 
d="M9 0v34h8c44 0 60 20 60 75v273h-68v20l68 36c2 61 14 102 40 145c49 83 146 139 238 139c61 0 138 -34 138 -62c0 -7 -3 -15 -10 -24l-33 -41c-8 -9 -14 -13 -22 -13c-10 0 -17 4 -32 18c-48 46 -75 62 -105 62c-32 0 -62 -22 -73 -55c-9 -28 -10 -43 -10 -117v-52h106
v-36l183 62h22v-345c0 -37 3 -55 13 -66c9 -10 29 -19 45 -19h4v-34h-252v34h4c18 0 31 6 42 18c10 11 13 26 13 57v225c0 48 -1 48 -38 48h-142v-263c0 -38 3 -55 12 -66c9 -10 31 -19 47 -19h14v-34h-272z" />
    <glyph glyph-name="fl" unicode="&#xe104;" horiz-adv-x="600" 
d="M9 0v34h12c44 0 60 20 60 75v273h-72v18l74 35c7 52 20 88 45 125c56 83 151 136 246 136c12 0 16 0 59 -4c7 -1 14 -1 18 -1c23 0 39 9 45 26h24v-598c0 -38 3 -55 12 -65c10 -11 29 -20 44 -20h4v-34h-244v34h4c15 0 36 10 41 20c6 9 8 32 8 81v247h-177v-247
c0 -92 6 -101 66 -101h4v-34h-273zM212 438h177v154c-42 32 -58 39 -84 39c-36 0 -70 -23 -82 -55c-8 -23 -11 -55 -11 -105v-33z" />
    <glyph glyph-name="endash" unicode="&#x2013;" 
d="M-6 220v97h549v-97h-549z" />
    <glyph glyph-name="dagger" unicode="&#x2020;" 
d="M200 -64l14 126c6 65 13 124 16 146c18 133 19 137 20 157l-93 -28c-30 -9 -68 -18 -81 -18c-19 0 -28 14 -28 41v34c0 41 7 56 27 56c17 0 77 -17 175 -48c-18 76 -49 229 -49 245c0 19 12 29 36 29h59c33 0 44 -7 44 -29c0 -16 -26 -143 -50 -243c45 16 157 46 171 46
c19 0 27 -12 27 -42v-47c0 -29 -9 -44 -27 -44c-15 0 -110 27 -171 48c23 -150 58 -459 58 -507c0 -38 -10 -48 -49 -48h-57c-38 0 -49 10 -49 44c0 14 2 38 7 82z" />
    <glyph glyph-name="daggerdbl" unicode="&#x2021;" 
d="M49 38v63c0 19 11 32 28 32c11 0 32 -4 46 -8l125 -38l-33 156l33 155l-117 -35c-16 -5 -39 -9 -53 -9c-18 0 -31 14 -31 34v58c0 22 12 35 33 35c10 0 29 -3 39 -6l129 -38l-44 178c-5 21 -6 22 -6 31c0 20 12 30 38 30h65c23 0 35 -11 35 -33c0 -9 -2 -24 -5 -35
l-43 -171l132 37c11 3 36 8 42 8c20 0 26 -11 26 -43v-53c0 -21 -9 -30 -31 -30c-13 0 -36 3 -52 8l-117 34l34 -155l-34 -156l125 38c23 7 34 9 44 9c21 0 32 -13 32 -36v-59c0 -24 -12 -36 -36 -36c-10 0 -24 3 -39 7l-126 37l44 -165c5 -18 6 -25 6 -33
c0 -27 -11 -39 -34 -39h-71c-21 0 -33 12 -33 32c0 13 3 22 9 46l39 159l-128 -37c-11 -3 -28 -6 -40 -6c-22 0 -31 10 -31 34z" />
    <glyph glyph-name="periodcentered" unicode="&#xb7;" horiz-adv-x="335" 
d="M168 273c-46 0 -83 37 -83 84c0 44 38 81 83 81s82 -37 82 -82c0 -46 -37 -83 -82 -83z" />
    <glyph glyph-name="paragraph" unicode="&#xb6;" 
d="M166 -164c71 4 80 20 80 115v294h-25c-116 0 -196 90 -196 220c0 79 34 154 86 189c32 21 77 33 129 33h291v-42c-71 -5 -80 -21 -80 -116v-578c0 -95 9 -111 80 -115v-43h-365v43zM317 -154h64v788h-64v-788z" />
    <glyph glyph-name="bullet" unicode="&#x2022;" horiz-adv-x="667" 
d="M335 200c-76 0 -139 62 -139 138c0 78 62 139 141 139c74 0 136 -63 136 -138c0 -77 -62 -139 -138 -139z" />
    <glyph glyph-name="quotesinglbase" unicode="&#x201a;" horiz-adv-x="335" 
d="M89 -157l-9 46c69 5 118 41 118 88c0 10 -6 17 -16 17c-2 0 -2 0 -15 -2c-7 -1 -14 -2 -21 -2c-48 0 -80 28 -80 71s34 72 84 72c70 0 115 -49 115 -123c0 -95 -73 -167 -169 -167h-7z" />
    <glyph glyph-name="quotedblbase" unicode="&#x201e;" horiz-adv-x="626" 
d="M382 -157l-9 46c68 4 117 41 117 88c0 11 -6 17 -16 17c-2 0 -2 0 -15 -2c-6 -1 -13 -2 -20 -2c-49 0 -80 28 -80 71s33 72 84 72c69 0 114 -49 114 -123c0 -95 -73 -167 -169 -167h-6zM85 -157l-9 46c69 5 118 41 118 88c0 10 -6 17 -16 17c-2 0 -2 0 -15 -2
c-7 -1 -14 -2 -21 -2c-48 0 -80 28 -80 71s34 72 84 72c70 0 115 -49 115 -123c0 -95 -73 -167 -169 -167h-7z" />
    <glyph glyph-name="quotedblright" unicode="&#x201d;" horiz-adv-x="626" 
d="M383 394l-9 45c68 5 117 42 117 89c0 10 -6 17 -16 17c-2 0 -2 0 -15 -2c-6 -1 -13 -2 -20 -2c-49 0 -80 28 -80 71s33 72 84 72c69 0 114 -49 114 -123c0 -96 -70 -167 -169 -167h-6zM86 394l-9 45c69 5 118 42 118 89c0 10 -6 17 -16 17c-2 0 -2 0 -15 -2
c-7 -1 -14 -2 -21 -2c-48 0 -80 28 -80 71s34 72 84 72c70 0 115 -49 115 -123c0 -96 -70 -167 -169 -167h-7z" />
    <glyph glyph-name="guillemotright" unicode="&#xbb;" horiz-adv-x="458" 
d="M214 37l87 201l-86 200h33l182 -200l-182 -201h-34zM27 54l69 185l-69 185h35l143 -185l-143 -185h-35z" />
    <glyph glyph-name="ellipsis" unicode="&#x2026;" horiz-adv-x="1006" 
d="M751 61c0 41 38 72 87 72c50 0 86 -30 86 -71c0 -42 -38 -73 -89 -73c-48 0 -84 31 -84 72zM416 61c0 41 38 72 87 72c50 0 86 -30 86 -71c0 -42 -38 -73 -89 -73c-48 0 -84 31 -84 72zM81 61c0 41 38 72 86 72c50 0 86 -30 86 -71c0 -42 -38 -73 -89 -73
c-47 0 -83 31 -83 72z" />
    <glyph glyph-name="perthousand" unicode="&#x2030;" horiz-adv-x="1212" 
d="M131 -30l478 715h76l-478 -715h-76zM199 286c-95 0 -169 86 -169 195s76 196 169 196c94 0 167 -85 167 -196s-72 -195 -167 -195zM153 353c13 -12 30 -20 45 -20c51 0 85 61 85 153c0 85 -33 143 -83 143c-52 0 -85 -58 -85 -148c0 -63 12 -102 38 -128zM846 185
c0 109 76 196 169 196c94 0 167 -85 167 -196s-72 -195 -167 -195s-169 86 -169 195zM483 185c0 109 76 196 169 196c94 0 167 -85 167 -196s-72 -195 -167 -195s-169 86 -169 195zM931 185c0 -63 12 -102 38 -128c13 -12 30 -20 45 -20c51 0 85 61 85 153
c0 85 -33 143 -83 143c-52 0 -85 -58 -85 -148zM568 185c0 -63 12 -102 38 -128c13 -12 30 -20 45 -20c51 0 85 61 85 153c0 85 -33 143 -83 143c-52 0 -85 -58 -85 -148z" />
    <glyph glyph-name="questiondown" unicode="&#xbf;" horiz-adv-x="391" 
d="M229 339c-50 0 -86 30 -86 71c0 42 38 73 89 73c47 0 83 -31 83 -72s-38 -72 -86 -72zM223 273h38c30 -50 45 -92 45 -123c0 -48 -28 -73 -106 -94c-46 -12 -59 -17 -78 -28c-26 -14 -41 -37 -41 -61c0 -40 29 -69 69 -69c17 0 28 1 63 10c26 6 42 9 58 9
c40 0 65 -22 65 -58c0 -43 -42 -71 -105 -71c-118 0 -202 90 -202 217c0 64 24 115 69 144c30 19 45 25 115 44c21 6 29 14 29 29c0 13 -3 22 -19 51z" />
    <glyph glyph-name="grave" unicode="`" horiz-adv-x="500" 
d="M268 499l-189 202h173l79 -202h-63z" />
    <glyph glyph-name="acute" unicode="&#xb4;" horiz-adv-x="500" 
d="M165 499l79 202h169l-182 -202h-66z" />
    <glyph glyph-name="circumflex" unicode="&#x2c6;" horiz-adv-x="500" 
d="M78 499l86 202h158l90 -202h-83l-85 113l-81 -113h-85z" />
    <glyph glyph-name="tilde" unicode="&#x2dc;" horiz-adv-x="500" 
d="M47 521c0 95 48 159 119 159c25 0 50 -8 88 -30c38 -21 51 -26 68 -26c23 0 42 20 50 54h69c-4 -90 -54 -157 -117 -157c-27 0 -42 5 -103 36c-29 15 -44 20 -56 20c-25 0 -40 -17 -50 -56h-68z" />
    <glyph glyph-name="macron" unicode="&#xaf;" horiz-adv-x="500" 
d="M78 559v82h344v-82h-344z" />
    <glyph glyph-name="breve" unicode="&#x2d8;" horiz-adv-x="500" 
d="M387 701v-18c0 -96 -58 -162 -144 -162c-89 0 -140 65 -141 180h40c16 -65 45 -91 105 -91c57 0 86 26 99 91h41z" />
    <glyph glyph-name="dotaccent" unicode="&#x2d9;" horiz-adv-x="500" 
d="M250 535c-35 0 -64 29 -64 65c0 34 29 63 64 63s64 -29 64 -64s-29 -64 -64 -64z" />
    <glyph glyph-name="dieresis" unicode="&#xa8;" horiz-adv-x="500" 
d="M354 535c-35 0 -64 29 -64 65c0 34 29 63 64 63s64 -29 64 -64s-29 -64 -64 -64zM146 535c-35 0 -64 29 -64 65c0 34 29 63 64 63s64 -29 64 -64s-29 -64 -64 -64z" />
    <glyph glyph-name="ring" unicode="&#x2da;" horiz-adv-x="500" 
d="M250 504c-58 0 -104 46 -104 104c0 56 48 103 104 103c57 0 103 -46 103 -103s-47 -104 -103 -104zM250 541c36 0 66 30 66 67c0 36 -29 66 -65 66s-66 -30 -66 -66c0 -37 29 -67 65 -67z" />
    <glyph glyph-name="cedilla" unicode="&#xb8;" horiz-adv-x="500" 
d="M189 -90l68 96h36l-24 -41c42 -11 66 -42 66 -85c0 -57 -46 -100 -109 -100c-33 0 -65 9 -93 26l10 32c16 -8 41 -13 60 -13c26 0 47 20 47 44c0 26 -18 38 -61 41z" />
    <glyph glyph-name="hungarumlaut" unicode="&#x2dd;" horiz-adv-x="500" 
d="M302 499l78 202h169l-182 -202h-65zM92 499l79 202h169l-182 -202h-66z" />
    <glyph glyph-name="ogonek" unicode="&#x2db;" horiz-adv-x="500" 
d="M395 -128l14 -25c-41 -31 -73 -43 -114 -43c-69 0 -119 39 -119 93c0 37 18 70 54 103h29c-6 -20 -8 -35 -8 -50c0 -54 38 -92 92 -92c19 0 33 4 52 14z" />
    <glyph glyph-name="caron" unicode="&#x2c7;" horiz-adv-x="500" 
d="M171 499l-91 202h84l86 -116l83 116h83l-88 -202h-157z" />
    <glyph glyph-name="emdash" unicode="&#x2014;" horiz-adv-x="1073" 
d="M-6 220v97h1085v-97h-1085z" />
    <glyph glyph-name="AE" unicode="&#xc6;" horiz-adv-x="963" 
d="M-17 0v42h9c50 0 92 39 137 126l206 401c5 10 10 26 10 33c0 9 -6 17 -16 20c-7 2 -7 2 -36 2h-21v43h609l10 -156h-43l-2 12c-7 42 -12 58 -26 70s-26 15 -68 15h-167v-244h109c69 0 89 16 93 77h43v-213h-43c-1 59 -22 77 -92 77h-110v-148c0 -57 2 -73 9 -83
c8 -11 17 -15 37 -15h122c85 0 119 29 133 114h41l-15 -173h-583v42h15c40 0 59 6 75 21c15 14 18 28 18 73v94h-208l-47 -93c-13 -26 -21 -47 -21 -60c0 -21 18 -35 46 -35h22v-42h-246zM260 289h177v346z" />
    <glyph glyph-name="ordfeminine" unicode="&#xaa;" horiz-adv-x="434" 
d="M231 432l-5 -5c-19 -19 -41 -27 -69 -27c-49 0 -80 27 -80 70c0 24 11 46 31 61c13 8 19 11 46 19c37 10 62 22 79 36v22c0 23 -16 39 -37 39s-32 -12 -32 -34c0 -4 0 -7 1 -14l-80 -27c-3 13 -4 19 -4 26c0 26 13 45 44 60c25 12 62 21 86 21c34 0 76 -17 95 -38
c10 -12 15 -30 15 -54v-80c0 -55 1 -55 11 -55c5 0 9 2 19 9l14 -20c-24 -23 -57 -40 -80 -40c-24 0 -43 14 -48 35zM234 467v82c-15 -9 -16 -9 -38 -19c-24 -12 -33 -24 -33 -47c0 -25 12 -41 30 -41c10 0 24 8 41 25zM47 304v43h341v-43h-341z" />
    <glyph glyph-name="Lslash" unicode="&#x141;" horiz-adv-x="651" 
d="M16 0v42h14c41 0 60 5 76 21c14 13 17 28 17 73v122l-82 -57l-21 30l103 72v228c0 49 -4 64 -22 78c-16 12 -33 16 -71 16h-12v42h364v-42h-18c-41 0 -60 -5 -76 -21c-14 -13 -17 -28 -17 -73v-134l156 109l21 -30l-177 -124v-222c0 -65 5 -71 55 -71h115
c55 0 81 7 104 29c21 21 58 64 82 98h43l-78 -186h-576z" />
    <glyph glyph-name="Oslash" unicode="&#xd8;" horiz-adv-x="888" 
d="M95 -48l90 106c-87 60 -138 159 -138 269c0 208 174 361 408 361c82 0 159 -19 222 -54l86 101l31 -25l-84 -98c86 -64 133 -157 133 -265c0 -206 -172 -362 -400 -362c-80 0 -156 18 -225 53l-94 -110zM263 148l345 405c-47 61 -102 89 -176 89
c-138 0 -224 -105 -224 -272c0 -81 20 -163 55 -222zM285 116c44 -57 105 -87 176 -87c77 0 135 32 173 95c29 49 47 119 47 189c0 77 -15 136 -51 206z" />
    <glyph glyph-name="OE" unicode="&#x152;" horiz-adv-x="1134" 
d="M1083 0h-558c-67 0 -75 -5 -106 -5c-125 0 -217 34 -283 106c-58 64 -90 146 -90 232c0 106 49 207 132 271c61 47 144 72 238 72c25 0 36 -1 91 -5c39 -3 78 -4 121 -4h427l8 -157h-42c-15 94 -20 98 -124 98h-158v-243h122c77 0 94 13 99 76h42v-213h-43
c0 62 -20 78 -101 78h-119v-247h179c68 0 93 9 112 40c12 20 19 40 25 73h43zM591 235v239c0 57 -6 87 -21 108c-21 30 -68 48 -123 48c-145 0 -241 -108 -241 -272c0 -173 115 -314 257 -314c54 0 99 27 114 69c11 29 14 61 14 122z" />
    <glyph glyph-name="ordmasculine" unicode="&#xba;" horiz-adv-x="434" 
d="M212 400c-94 0 -159 57 -159 137s74 142 169 142c92 0 159 -57 159 -135c0 -82 -73 -144 -169 -144zM231 433c36 0 56 27 56 76c0 79 -34 137 -82 137c-36 0 -58 -27 -58 -72c0 -79 37 -141 84 -141zM47 304v43h341v-43h-341z" />
    <glyph glyph-name="ae" unicode="&#xe6;" horiz-adv-x="745" 
d="M681 144l21 -26c-56 -76 -149 -129 -227 -129c-61 0 -125 29 -166 74c-52 -50 -100 -73 -151 -73c-72 0 -118 44 -118 111c0 44 20 83 56 104c21 13 40 21 79 32c46 12 85 29 114 52c2 14 2 20 2 27c0 55 -27 91 -68 91c-32 0 -54 -23 -54 -57c0 -5 2 -8 4 -20l1 -6
l-123 -43c-3 11 -4 18 -4 28c0 39 14 69 43 90c43 30 107 50 160 50c51 0 96 -14 129 -41c33 28 77 42 127 42c53 0 104 -18 138 -49c22 -21 35 -46 43 -85c9 -39 13 -51 25 -66v-17h-293c11 -103 61 -164 134 -164c42 0 88 27 128 75zM419 267h151c-4 42 -6 56 -11 72
c-12 39 -36 61 -66 61c-47 0 -74 -50 -74 -133zM289 90v150c-29 -18 -41 -25 -59 -33c-32 -14 -37 -17 -46 -29c-11 -13 -17 -34 -17 -56c0 -42 22 -73 51 -73c23 0 51 16 71 41z" />
    <glyph glyph-name="dotlessi" unicode="&#x131;" horiz-adv-x="307" 
d="M17 0v34h11c44 0 60 20 60 75v202c0 37 -2 39 -37 53l-35 14v26l183 60h20v-345c0 -38 3 -55 12 -66c9 -10 31 -19 47 -19h7v-34h-268z" />
    <glyph glyph-name="lslash" unicode="&#x142;" horiz-adv-x="303" 
d="M17 0v34h11c44 0 60 20 60 75v197l-44 -31l-21 30l65 45v201c0 48 -4 57 -28 65l-46 16v32l186 53h19v-282l47 33l21 -30l-68 -47v-272c0 -37 3 -55 12 -66c10 -10 31 -19 47 -19h5v-34h-266z" />
    <glyph glyph-name="oslash" unicode="&#xf8;" horiz-adv-x="596" 
d="M64 -25l56 66c-53 41 -83 103 -83 172c0 134 116 237 268 237c50 0 100 -12 138 -32l69 81l30 -27l-65 -76c55 -44 83 -101 83 -169c0 -135 -116 -238 -267 -238c-48 0 -100 11 -139 31l-60 -69zM204 138l173 203c-23 42 -58 64 -98 64c-62 0 -100 -48 -100 -127
c0 -44 10 -101 25 -140zM222 99c24 -43 58 -66 99 -66c62 0 97 48 97 133c0 47 -8 95 -22 135z" />
    <glyph glyph-name="oe" unicode="&#x153;" horiz-adv-x="830" 
d="M766 139l26 -25c-52 -75 -138 -123 -221 -123c-49 0 -82 11 -130 45c-54 -31 -111 -48 -165 -48c-136 0 -240 100 -240 230c0 131 110 230 254 230c62 0 119 -17 164 -49c48 36 89 50 142 50c50 0 98 -17 128 -45c22 -20 37 -47 50 -91c7 -23 7 -25 10 -32l3 -7l10 -17
v-24h-277c11 -97 62 -160 129 -160c38 0 81 24 117 66zM519 267h136c-2 83 -27 134 -68 134c-31 0 -55 -25 -63 -66c-4 -17 -5 -38 -5 -68zM221 93c19 -38 50 -59 85 -59c56 0 92 46 92 118c0 57 -17 136 -40 181c-20 41 -56 67 -94 67c-55 0 -91 -47 -91 -119
c0 -57 20 -134 48 -188z" />
    <glyph glyph-name="germandbls" unicode="&#xdf;" horiz-adv-x="606" 
d="M21 0v34h4c21 0 42 7 49 16c7 10 10 32 10 85v287c0 98 10 165 31 202c35 63 108 97 206 97c126 0 213 -67 213 -163c0 -83 -65 -150 -171 -174c44 -5 68 -12 99 -28c72 -37 108 -91 108 -164c0 -114 -103 -205 -231 -205c-4 0 -10 0 -18 1v36c79 8 116 56 116 152
c0 117 -53 187 -145 194v34c77 3 113 46 113 134c0 50 -11 87 -31 110c-20 22 -45 34 -71 34c-32 0 -56 -17 -71 -49c-14 -30 -17 -55 -17 -150v-348c0 -56 3 -77 11 -86c6 -7 27 -15 39 -15h4v-34h-248z" />
    <glyph glyph-name="onesuperior" unicode="&#xe105;" horiz-adv-x="346" 
d="M75 267v27l45 2c13 1 18 6 18 21v271c-35 -18 -51 -25 -76 -31l-12 25c54 24 100 56 134 95h42v-357c0 -17 5 -23 18 -24l47 -2v-27h-216z" />
    <glyph glyph-name="logicalnot" unicode="&#xac;" horiz-adv-x="500" 
d="M30 198v68h440v-266h-160v198h-280z" />
    <glyph glyph-name="mu" unicode="&#xb5;" horiz-adv-x="480" 
d="M78 68v-16c0 -40 1 -46 31 -140c7 -23 11 -42 11 -51c0 -33 -26 -57 -62 -57c-39 0 -65 23 -65 58c0 13 4 40 9 65c18 86 31 217 31 316v195h131v-268c0 -51 5 -81 15 -99c8 -14 28 -25 45 -25c27 0 49 15 80 54v338h131v-306c0 -67 8 -83 41 -83c9 0 16 1 28 5v-20
l-128 -45c-2 -1 -4 -1 -6 -1c-12 0 -27 8 -35 18s-10 16 -22 52c-55 -59 -79 -73 -127 -73c-55 0 -82 21 -108 83z" />
    <glyph glyph-name="trademark" unicode="&#x2122;" horiz-adv-x="1093" 
d="M130 287v30h19c42 0 51 8 51 49v264h-62c-55 0 -61 -6 -73 -72h-32l11 119h25c6 -6 9 -8 14 -9s6 -1 30 -1h281c21 0 24 1 31 10h24l12 -119h-31c-14 66 -19 72 -66 72h-71v-264c0 -41 9 -49 51 -49h19v-30h-233zM507 287v30h4c40 0 45 5 49 61l15 231
c1 20 -10 26 -43 28v30h138l121 -248l115 248h140v-30l-11 -1c-31 -3 -35 -4 -35 -24c0 -5 0 -11 1 -17l15 -222c3 -51 5 -52 55 -56v-30h-204v30h14c37 0 45 7 45 37c0 6 0 6 -1 27l-14 200l-137 -294h-19l-140 287l-14 -201v-20c0 -27 12 -36 49 -36h3v-30h-146z" />
    <glyph glyph-name="Eth" unicode="&#xd0;" horiz-adv-x="875" 
d="M23 0v42h7c41 0 60 5 76 21c14 14 17 28 17 73v178h-93v38h93v179c0 49 -4 64 -22 78c-16 12 -33 16 -71 16h-6v42l85 6c105 7 147 9 236 9c123 0 190 -8 261 -29c136 -41 222 -158 222 -303c0 -135 -83 -260 -204 -309c-75 -30 -148 -41 -274 -41h-327zM271 125
c0 -73 11 -83 91 -83c108 0 192 34 243 97c40 51 63 121 63 195c0 106 -42 198 -112 247c-47 34 -116 51 -201 51c-28 0 -54 -2 -84 -5v-275h168v-38h-168v-189z" />
    <glyph glyph-name="onehalf" unicode="&#xbd;" horiz-adv-x="813" 
d="M75 267v27l45 2c13 1 18 6 18 21v271c-35 -18 -51 -25 -76 -31l-12 25c54 24 100 56 134 95h42v-357c0 -17 5 -23 18 -24l47 -2v-27h-216zM159 0l427 667h67l-427 -667h-67zM492 0v27c39 39 113 120 132 143c29 37 43 69 43 104c0 48 -24 78 -63 78
c-36 0 -66 -29 -74 -71h-32c10 78 65 130 136 130c68 0 119 -50 119 -116c0 -52 -19 -81 -95 -148c-38 -33 -62 -56 -78 -74h107c40 0 47 6 55 48h27l-13 -121h-264z" />
    <glyph glyph-name="plusminus" unicode="&#xb1;" 
d="M239 121v170h-184v60h184v170h60v-170h183v-60h-183v-170h-60zM55 11v60h427v-60h-427z" />
    <glyph glyph-name="Thorn" unicode="&#xde;" horiz-adv-x="694" 
d="M33 0v42h17c39 0 54 5 65 20c7 11 9 23 9 67v409c0 44 -2 56 -9 67c-11 15 -26 20 -65 20h-25v42h357v-42h-17c-68 0 -93 -19 -93 -71v-13c52 7 79 9 114 9c171 0 279 -81 279 -210c0 -123 -105 -203 -269 -203c-40 0 -79 3 -124 11v-12c0 -49 4 -64 22 -77
c16 -13 33 -17 71 -17h33v-42h-365zM272 192c24 -5 48 -7 76 -7c100 0 156 58 156 160c0 103 -56 161 -155 161c-26 0 -51 -3 -77 -9v-305z" />
    <glyph glyph-name="onequarter" unicode="&#xbc;" horiz-adv-x="813" 
d="M75 267v27l45 2c13 1 18 6 18 21v271c-35 -18 -51 -25 -76 -31l-12 25c54 24 100 56 134 95h42v-357c0 -17 5 -23 18 -24l47 -2v-27h-216zM179 0l427 667h67l-427 -667h-67zM493 99v33l190 278h40v-263h56v-48h-56v-109h-88v109h-142zM542 147h93v136z" />
    <glyph glyph-name="divide" unicode="&#xf7;" 
d="M269 433c-30 0 -55 25 -55 54c0 31 25 55 55 55s54 -25 54 -55c0 -29 -25 -54 -54 -54zM55 291v60h427v-60h-427zM214 154c0 31 25 55 55 55s54 -25 54 -55c0 -29 -25 -54 -54 -54c-30 0 -55 25 -55 54z" />
    <glyph glyph-name="brokenbar" unicode="&#xa6;" horiz-adv-x="500" 
d="M201 313v354h99v-354h-99zM201 153h99v-320h-99v320z" />
    <glyph glyph-name="degree" unicode="&#xb0;" horiz-adv-x="310" 
d="M155 459c-62 0 -112 50 -112 112c0 61 50 110 112 110c61 0 111 -50 111 -111c0 -60 -50 -111 -111 -111zM155 505c36 0 66 30 66 65c0 37 -30 67 -67 67c-36 0 -66 -30 -66 -66s30 -66 67 -66z" />
    <glyph glyph-name="thorn" unicode="&#xfe;" horiz-adv-x="608" 
d="M88 -109v676c0 30 -8 43 -30 51l-39 14v27l172 58h28v-358c86 70 125 90 178 90c99 0 175 -87 175 -202c0 -71 -28 -141 -76 -191c-43 -44 -102 -67 -171 -67c-34 0 -66 4 -106 13v-108c0 -81 19 -99 106 -104v-34h-308v34h12c27 0 40 6 49 23c8 13 10 29 10 78zM219 80
c30 -32 73 -52 109 -52c66 0 112 65 112 158c0 109 -47 183 -114 183c-33 0 -65 -17 -107 -55v-234z" />
    <glyph glyph-name="threequarters" unicode="&#xbe;" horiz-adv-x="813" 
d="M68 574l-25 11c19 58 65 92 122 92c52 0 92 -32 92 -75c0 -32 -18 -56 -62 -85c55 -3 93 -47 93 -109c0 -87 -71 -151 -166 -151c-56 0 -99 25 -99 57c0 21 17 37 39 37c18 0 29 -7 44 -29c15 -21 26 -29 44 -29c32 0 54 34 54 83c0 52 -26 88 -64 88c-7 0 -12 -1 -22 -5
l-14 23c43 30 69 65 69 95c0 25 -19 44 -44 44c-24 0 -43 -14 -61 -47zM172 0l427 667h67l-427 -667h-67zM493 99v33l190 278h40v-263h56v-48h-56v-109h-88v109h-142zM542 147h93v136z" />
    <glyph glyph-name="twosuperior" unicode="&#xe107;" horiz-adv-x="347" 
d="M26 266v27c36 36 110 116 132 143c29 35 43 69 43 103c0 48 -24 78 -63 78c-36 0 -66 -29 -74 -70h-32c10 78 64 130 136 130c68 0 119 -50 119 -116c0 -52 -19 -81 -95 -147c-36 -31 -62 -57 -78 -75h107c40 0 47 6 55 49h27l-13 -122h-264z" />
    <glyph glyph-name="registered" unicode="&#xae;" horiz-adv-x="798" 
d="M47 333c0 194 158 351 353 351c196 0 352 -157 352 -353c0 -193 -159 -348 -358 -348c-189 0 -347 160 -347 350zM98 333c0 -165 135 -304 297 -304c170 0 306 134 306 302c0 170 -134 307 -301 307s-302 -136 -302 -305zM195 167v27h12c38 0 45 7 45 42v195
c0 35 -7 42 -45 42h-11v27c70 6 130 9 166 9c73 0 117 -9 145 -29c24 -18 37 -43 37 -70c0 -40 -30 -74 -78 -88c18 -16 25 -26 57 -67c39 -50 62 -64 101 -67v-26c-24 -1 -27 -1 -35 -1c-39 0 -68 4 -88 13c-26 11 -34 19 -83 82c-17 23 -29 37 -44 50h-39v-70
c0 -35 7 -42 45 -42h15v-27h-200zM335 333c47 1 61 3 76 9c30 11 44 32 44 65c0 50 -32 74 -100 74c-6 0 -12 0 -20 -2v-146z" />
    <glyph glyph-name="minus" unicode="&#x2212;" 
d="M55 291v60h427v-60h-427z" />
    <glyph glyph-name="eth" unicode="&#xf0;" horiz-adv-x="594" 
d="M455 697l-97 -63c64 -51 92 -82 124 -131c50 -78 76 -163 76 -249c0 -85 -23 -146 -74 -195s-110 -70 -195 -70c-62 0 -111 14 -153 42c-61 41 -99 110 -99 180c0 126 118 239 250 239c26 0 42 -3 73 -14c-10 55 -32 108 -65 153l-109 -71l-20 31l105 68
c-22 25 -42 43 -75 70l22 30c29 -13 42 -21 108 -60l109 71zM251 59c17 -17 45 -28 68 -28c63 0 101 50 101 134c0 140 -59 241 -141 241c-65 0 -101 -48 -101 -133c0 -87 29 -172 73 -214z" />
    <glyph glyph-name="multiply" unicode="&#xd7;" 
d="M124 135l-42 42l144 144l-144 144l42 42l144 -144l144 144l42 -42l-144 -144l144 -144l-42 -42l-144 144z" />
    <glyph glyph-name="threesuperior" unicode="&#xe108;" horiz-adv-x="346" 
d="M68 574l-25 11c19 58 65 92 122 92c52 0 92 -32 92 -75c0 -32 -18 -56 -62 -85c55 -3 93 -47 93 -109c0 -87 -71 -151 -166 -151c-56 0 -99 25 -99 57c0 21 17 37 39 37c18 0 29 -7 44 -29c15 -21 26 -29 44 -29c32 0 54 34 54 83c0 52 -26 88 -64 88c-7 0 -12 -1 -22 -5
l-14 23c43 30 69 65 69 95c0 25 -19 44 -44 44c-24 0 -43 -14 -61 -47z" />
    <glyph glyph-name="copyright" unicode="&#xa9;" horiz-adv-x="798" 
d="M47 333c0 194 158 351 353 351c196 0 352 -157 352 -353c0 -193 -159 -348 -358 -348c-189 0 -347 160 -347 350zM98 333c0 -165 135 -304 297 -304c170 0 306 134 306 302c0 170 -134 307 -301 307s-302 -136 -302 -305zM541 267h28c-3 -26 -19 -76 -33 -103
c-11 3 -22 5 -34 5c-11 0 -14 0 -47 -6c-17 -3 -34 -4 -49 -4c-114 0 -203 76 -203 173c0 98 95 176 215 176c31 0 55 -5 89 -17c10 -4 14 -5 17 -5c4 0 6 2 9 6h19l5 -99h-28c-17 53 -55 82 -107 82c-77 0 -130 -56 -130 -137c0 -83 59 -147 136 -147c51 0 91 28 113 76z
" />
    <glyph glyph-name="Aacute" unicode="&#xc1;" horiz-adv-x="774" 
d="M301 724l117 180h187l-220 -180h-84zM0 0v42h16c53 0 78 23 105 99l183 512l-11 30h157l215 -545c28 -71 53 -92 109 -96v-42h-350v42h37c46 0 65 12 65 41c0 9 -4 25 -13 46l-49 120h-233l-45 -127c-6 -18 -10 -32 -10 -40c0 -13 6 -23 17 -29c13 -6 48 -11 78 -11h14
v-42h-285zM253 308h187l-99 250z" />
    <glyph glyph-name="Acircumflex" unicode="&#xc2;" horiz-adv-x="774" 
d="M164 725l119 179h193l119 -179h-106l-108 105l-113 -105h-104zM0 0v42h16c53 0 78 23 105 99l183 512l-11 30h157l215 -545c28 -71 53 -92 109 -96v-42h-350v42h37c46 0 65 12 65 41c0 9 -4 25 -13 46l-49 120h-233l-45 -127c-6 -18 -10 -32 -10 -40c0 -13 6 -23 17 -29
c13 -6 48 -11 78 -11h14v-42h-285zM253 308h187l-99 250z" />
    <glyph glyph-name="Adieresis" unicode="&#xc4;" horiz-adv-x="774" 
d="M522 724c-42 0 -76 34 -76 76c0 41 34 75 75 75c42 0 76 -34 76 -76c0 -41 -34 -75 -75 -75zM253 724c-42 0 -76 34 -76 76c0 41 34 75 75 75c42 0 76 -34 76 -76c0 -41 -34 -75 -75 -75zM0 0v42h16c53 0 78 23 105 99l183 512l-11 30h157l215 -545
c28 -71 53 -92 109 -96v-42h-350v42h37c46 0 65 12 65 41c0 9 -4 25 -13 46l-49 120h-233l-45 -127c-6 -18 -10 -32 -10 -40c0 -13 6 -23 17 -29c13 -6 48 -11 78 -11h14v-42h-285zM253 308h187l-99 250z" />
    <glyph glyph-name="Agrave" unicode="&#xc0;" horiz-adv-x="774" 
d="M367 725l-228 179h193l115 -179h-80zM0 0v42h16c53 0 78 23 105 99l183 512l-11 30h157l215 -545c28 -71 53 -92 109 -96v-42h-350v42h37c46 0 65 12 65 41c0 9 -4 25 -13 46l-49 120h-233l-45 -127c-6 -18 -10 -32 -10 -40c0 -13 6 -23 17 -29c13 -6 48 -11 78 -11h14
v-42h-285zM253 308h187l-99 250z" />
    <glyph glyph-name="Aring" unicode="&#xc5;" horiz-adv-x="774" 
d="M0 0v42h16c53 0 78 23 105 99l184 513c-35 21 -57 62 -57 105c0 69 57 126 126 126s126 -57 126 -126c0 -37 -15 -69 -42 -95l207 -526c28 -71 53 -92 109 -96v-42h-350v42h37c46 0 65 12 65 41c0 9 -4 25 -13 46l-49 120h-233l-45 -127c-6 -18 -10 -32 -10 -40
c0 -13 6 -23 17 -29c13 -6 48 -11 78 -11h14v-42h-285zM374 687c39 0 71 32 71 71c0 40 -32 72 -71 72s-71 -32 -71 -71c0 -40 32 -72 71 -72zM253 308h187l-99 250z" />
    <glyph glyph-name="Atilde" unicode="&#xc3;" horiz-adv-x="774" 
d="M176 722c4 33 7 49 15 70c20 54 65 90 113 90c30 0 46 -5 111 -39c20 -10 45 -18 60 -18c26 0 43 17 53 55h68c-3 -95 -55 -159 -128 -159c-20 0 -37 5 -72 22c-60 29 -75 35 -95 35c-29 0 -45 -16 -55 -56h-70zM0 0v42h16c53 0 78 23 105 99l183 512l-11 30h157
l215 -545c28 -71 53 -92 109 -96v-42h-350v42h37c46 0 65 12 65 41c0 9 -4 25 -13 46l-49 120h-233l-45 -127c-6 -18 -10 -32 -10 -40c0 -13 6 -23 17 -29c13 -6 48 -11 78 -11h14v-42h-285zM253 308h187l-99 250z" />
    <glyph glyph-name="Ccedilla" unicode="&#xc7;" horiz-adv-x="785" 
d="M316 -99l74 87c-52 5 -92 15 -133 34c-128 58 -210 179 -210 310c0 197 182 352 412 352c60 0 105 -9 170 -35c21 -8 28 -10 35 -10c9 0 15 3 21 11h27l10 -188h-43c-33 107 -110 167 -213 167c-153 0 -259 -116 -259 -285c0 -173 118 -306 272 -306c98 0 180 56 223 154
h43c-7 -48 -37 -146 -61 -195c-18 5 -39 8 -63 8c-23 0 -28 0 -92 -11c-31 -5 -60 -8 -89 -9l-17 -24c55 -12 87 -47 87 -94c0 -64 -62 -111 -145 -111c-44 0 -87 10 -124 28l13 36c21 -8 56 -14 80 -14c35 0 63 22 63 49c0 29 -21 41 -81 46z" />
    <glyph glyph-name="Eacute" unicode="&#xc9;" horiz-adv-x="690" 
d="M265 724l117 180h187l-220 -180h-84zM-5 0v42h35c41 0 60 5 76 21c14 13 17 28 17 73v395c0 49 -4 64 -22 78c-16 12 -33 16 -71 16h-11v42h590l12 -155h-42c-5 38 -10 58 -21 74c-13 18 -24 22 -71 22h-216v-244h157c53 0 73 7 86 29c6 11 8 20 10 47h44v-213h-43v10
c0 51 -24 68 -96 68h-158v-151c0 -95 0 -95 58 -95h144c72 0 95 9 116 45c11 18 18 37 24 64h40l-13 -168h-645z" />
    <glyph glyph-name="Ecircumflex" unicode="&#xca;" horiz-adv-x="690" 
d="M122 725l119 179h193l119 -179h-106l-108 105l-113 -105h-104zM-5 0v42h35c41 0 60 5 76 21c14 13 17 28 17 73v395c0 49 -4 64 -22 78c-16 12 -33 16 -71 16h-11v42h590l12 -155h-42c-5 38 -10 58 -21 74c-13 18 -24 22 -71 22h-216v-244h157c53 0 73 7 86 29
c6 11 8 20 10 47h44v-213h-43v10c0 51 -24 68 -96 68h-158v-151c0 -95 0 -95 58 -95h144c72 0 95 9 116 45c11 18 18 37 24 64h40l-13 -168h-645z" />
    <glyph glyph-name="Edieresis" unicode="&#xcb;" horiz-adv-x="690" 
d="M466 724c-42 0 -76 34 -76 76c0 41 34 75 75 75c42 0 76 -34 76 -76c0 -41 -34 -75 -75 -75zM197 724c-42 0 -76 34 -76 76c0 41 34 75 75 75c42 0 76 -34 76 -76c0 -41 -34 -75 -75 -75zM-5 0v42h35c41 0 60 5 76 21c14 13 17 28 17 73v395c0 49 -4 64 -22 78
c-16 12 -33 16 -71 16h-11v42h590l12 -155h-42c-5 38 -10 58 -21 74c-13 18 -24 22 -71 22h-216v-244h157c53 0 73 7 86 29c6 11 8 20 10 47h44v-213h-43v10c0 51 -24 68 -96 68h-158v-151c0 -95 0 -95 58 -95h144c72 0 95 9 116 45c11 18 18 37 24 64h40l-13 -168h-645z
" />
    <glyph glyph-name="Egrave" unicode="&#xc8;" horiz-adv-x="690" 
d="M358 725l-228 179h193l115 -179h-80zM-5 0v42h35c41 0 60 5 76 21c14 13 17 28 17 73v395c0 49 -4 64 -22 78c-16 12 -33 16 -71 16h-11v42h590l12 -155h-42c-5 38 -10 58 -21 74c-13 18 -24 22 -71 22h-216v-244h157c53 0 73 7 86 29c6 11 8 20 10 47h44v-213h-43v10
c0 51 -24 68 -96 68h-158v-151c0 -95 0 -95 58 -95h144c72 0 95 9 116 45c11 18 18 37 24 64h40l-13 -168h-645z" />
    <glyph glyph-name="Iacute" unicode="&#xcd;" horiz-adv-x="395" 
d="M98 724l117 180h187l-220 -180h-84zM30 0v42h3c38 0 58 6 73 21c14 14 17 28 17 73v395c0 49 -4 64 -22 78c-15 11 -33 16 -68 16h-3v42h341v-42h-7c-41 0 -60 -5 -76 -21c-14 -14 -17 -28 -17 -73v-395c0 -49 4 -64 22 -77c16 -13 33 -17 71 -17h7v-42h-341z" />
    <glyph glyph-name="Icircumflex" unicode="&#xce;" horiz-adv-x="395" 
d="M-19 725l119 179h193l119 -179h-106l-108 105l-113 -105h-104zM30 0v42h3c38 0 58 6 73 21c14 14 17 28 17 73v395c0 49 -4 64 -22 78c-15 11 -33 16 -68 16h-3v42h341v-42h-7c-41 0 -60 -5 -76 -21c-14 -14 -17 -28 -17 -73v-395c0 -49 4 -64 22 -77
c16 -13 33 -17 71 -17h7v-42h-341z" />
    <glyph glyph-name="Idieresis" unicode="&#xcf;" horiz-adv-x="395" 
d="M303 724c-42 0 -76 34 -76 76c0 41 34 75 75 75c42 0 76 -34 76 -76c0 -41 -34 -75 -75 -75zM94 724c-42 0 -76 34 -76 76c0 41 34 75 75 75c42 0 76 -34 76 -76c0 -41 -34 -75 -75 -75zM30 0v42h3c38 0 58 6 73 21c14 14 17 28 17 73v395c0 49 -4 64 -22 78
c-15 11 -33 16 -68 16h-3v42h341v-42h-7c-41 0 -60 -5 -76 -21c-14 -14 -17 -28 -17 -73v-395c0 -49 4 -64 22 -77c16 -13 33 -17 71 -17h7v-42h-341z" />
    <glyph glyph-name="Igrave" unicode="&#xcc;" horiz-adv-x="395" 
d="M211 725l-228 179h193l115 -179h-80zM30 0v42h3c38 0 58 6 73 21c14 14 17 28 17 73v395c0 49 -4 64 -22 78c-15 11 -33 16 -68 16h-3v42h341v-42h-7c-41 0 -60 -5 -76 -21c-14 -14 -17 -28 -17 -73v-395c0 -49 4 -64 22 -77c16 -13 33 -17 71 -17h7v-42h-341z" />
    <glyph glyph-name="Ntilde" unicode="&#xd1;" horiz-adv-x="875" 
d="M226 722c4 33 7 49 15 70c20 54 65 90 113 90c30 0 46 -5 111 -39c20 -10 45 -18 60 -18c26 0 43 17 53 55h68c-3 -95 -55 -159 -128 -159c-20 0 -37 5 -72 22c-60 29 -75 35 -95 35c-29 0 -45 -16 -55 -56h-70zM35 0v42h11c32 0 55 8 67 25c9 12 10 20 10 63v472
c-20 14 -54 23 -86 23v42h221l438 -456v323c0 77 -16 91 -101 91h-12v42h277v-42h-12c-31 0 -59 -6 -70 -13c-15 -11 -17 -18 -17 -72v-544h-58l-515 538v-396c0 -57 8 -74 39 -87c16 -6 34 -9 67 -9v-42h-259z" />
    <glyph glyph-name="Oacute" unicode="&#xd3;" horiz-adv-x="886" 
d="M324 724l117 180h187l-220 -180h-84zM47 332c0 97 44 191 121 258c70 61 180 98 289 98c226 0 384 -140 384 -341c0 -211 -169 -362 -405 -362c-230 0 -389 142 -389 347zM208 374c0 -204 103 -343 253 -343c77 0 135 32 173 94c29 48 47 120 47 187
c0 93 -27 178 -77 245c-42 55 -102 85 -173 85c-136 0 -223 -105 -223 -268z" />
    <glyph glyph-name="Ocircumflex" unicode="&#xd4;" horiz-adv-x="886" 
d="M227 725l119 179h193l119 -179h-106l-108 105l-113 -105h-104zM47 332c0 97 44 191 121 258c70 61 180 98 289 98c226 0 384 -140 384 -341c0 -211 -169 -362 -405 -362c-230 0 -389 142 -389 347zM208 374c0 -204 103 -343 253 -343c77 0 135 32 173 94
c29 48 47 120 47 187c0 93 -27 178 -77 245c-42 55 -102 85 -173 85c-136 0 -223 -105 -223 -268z" />
    <glyph glyph-name="Odieresis" unicode="&#xd6;" horiz-adv-x="886" 
d="M578 724c-42 0 -76 34 -76 76c0 41 34 75 75 75c42 0 76 -34 76 -76c0 -41 -34 -75 -75 -75zM309 724c-42 0 -76 34 -76 76c0 41 34 75 75 75c42 0 76 -34 76 -76c0 -41 -34 -75 -75 -75zM47 332c0 97 44 191 121 258c70 61 180 98 289 98c226 0 384 -140 384 -341
c0 -211 -169 -362 -405 -362c-230 0 -389 142 -389 347zM208 374c0 -204 103 -343 253 -343c77 0 135 32 173 94c29 48 47 120 47 187c0 93 -27 178 -77 245c-42 55 -102 85 -173 85c-136 0 -223 -105 -223 -268z" />
    <glyph glyph-name="Ograve" unicode="&#xd2;" horiz-adv-x="886" 
d="M477 725l-228 179h193l115 -179h-80zM47 332c0 97 44 191 121 258c70 61 180 98 289 98c226 0 384 -140 384 -341c0 -211 -169 -362 -405 -362c-230 0 -389 142 -389 347zM208 374c0 -204 103 -343 253 -343c77 0 135 32 173 94c29 48 47 120 47 187
c0 93 -27 178 -77 245c-42 55 -102 85 -173 85c-136 0 -223 -105 -223 -268z" />
    <glyph glyph-name="Otilde" unicode="&#xd5;" horiz-adv-x="886" 
d="M242 722c4 33 7 49 15 70c20 54 65 90 113 90c30 0 46 -5 111 -39c20 -10 45 -18 60 -18c26 0 43 17 53 55h68c-3 -95 -55 -159 -128 -159c-20 0 -37 5 -72 22c-60 29 -75 35 -95 35c-29 0 -45 -16 -55 -56h-70zM47 332c0 97 44 191 121 258c70 61 180 98 289 98
c226 0 384 -140 384 -341c0 -211 -169 -362 -405 -362c-230 0 -389 142 -389 347zM208 374c0 -204 103 -343 253 -343c77 0 135 32 173 94c29 48 47 120 47 187c0 93 -27 178 -77 245c-42 55 -102 85 -173 85c-136 0 -223 -105 -223 -268z" />
    <glyph glyph-name="Scaron" unicode="&#x160;" horiz-adv-x="603" 
d="M195 725l-121 179h106l112 -105l109 105h106l-117 -179h-195zM90 3l-27 194h41c37 -106 99 -161 185 -161c70 0 124 46 124 105c0 35 -19 68 -54 95c-24 19 -29 22 -123 71c-58 30 -88 50 -115 78c-34 34 -53 80 -53 124c0 102 90 175 218 175c38 0 99 -10 148 -25
c7 -2 13 -3 17 -3c7 0 12 2 21 11h23l20 -173h-43c-22 86 -92 142 -175 142c-60 0 -105 -32 -105 -74c0 -39 28 -70 97 -106c87 -46 101 -55 140 -81c85 -57 123 -116 123 -191c0 -111 -102 -199 -232 -199c-47 0 -67 4 -164 32c-6 2 -12 3 -16 3c-9 0 -17 -6 -22 -17h-28z
" />
    <glyph glyph-name="Uacute" unicode="&#xda;" horiz-adv-x="831" 
d="M362 724l117 180h187l-220 -180h-84zM724 507v-199c0 -86 -4 -116 -20 -161c-38 -106 -138 -162 -288 -162c-159 0 -272 65 -300 174c-7 27 -10 58 -10 111v261c0 51 -3 65 -14 76c-12 12 -35 18 -72 18h-7v42h336v-42h-5c-38 0 -58 -6 -73 -21c-14 -14 -17 -28 -17 -73
v-265c0 -73 4 -96 23 -128c30 -52 93 -82 173 -82c106 0 179 49 201 135c7 26 8 46 8 117v187c0 63 -6 90 -22 107c-16 16 -39 23 -76 23h-9v42h278v-42h-8c-35 0 -64 -9 -80 -25c-14 -15 -18 -33 -18 -93z" />
    <glyph glyph-name="Ucircumflex" unicode="&#xdb;" horiz-adv-x="831" 
d="M219 725l119 179h193l119 -179h-106l-108 105l-113 -105h-104zM724 507v-199c0 -86 -4 -116 -20 -161c-38 -106 -138 -162 -288 -162c-159 0 -272 65 -300 174c-7 27 -10 58 -10 111v261c0 51 -3 65 -14 76c-12 12 -35 18 -72 18h-7v42h336v-42h-5c-38 0 -58 -6 -73 -21
c-14 -14 -17 -28 -17 -73v-265c0 -73 4 -96 23 -128c30 -52 93 -82 173 -82c106 0 179 49 201 135c7 26 8 46 8 117v187c0 63 -6 90 -22 107c-16 16 -39 23 -76 23h-9v42h278v-42h-8c-35 0 -64 -9 -80 -25c-14 -15 -18 -33 -18 -93z" />
    <glyph glyph-name="Udieresis" unicode="&#xdc;" horiz-adv-x="831" 
d="M577 724c-42 0 -76 34 -76 76c0 41 34 75 75 75c42 0 76 -34 76 -76c0 -41 -34 -75 -75 -75zM308 724c-42 0 -76 34 -76 76c0 41 34 75 75 75c42 0 76 -34 76 -76c0 -41 -34 -75 -75 -75zM724 507v-199c0 -86 -4 -116 -20 -161c-38 -106 -138 -162 -288 -162
c-159 0 -272 65 -300 174c-7 27 -10 58 -10 111v261c0 51 -3 65 -14 76c-12 12 -35 18 -72 18h-7v42h336v-42h-5c-38 0 -58 -6 -73 -21c-14 -14 -17 -28 -17 -73v-265c0 -73 4 -96 23 -128c30 -52 93 -82 173 -82c106 0 179 49 201 135c7 26 8 46 8 117v187
c0 63 -6 90 -22 107c-16 16 -39 23 -76 23h-9v42h278v-42h-8c-35 0 -64 -9 -80 -25c-14 -15 -18 -33 -18 -93z" />
    <glyph glyph-name="Ugrave" unicode="&#xd9;" horiz-adv-x="831" 
d="M435 725l-228 179h193l115 -179h-80zM724 507v-199c0 -86 -4 -116 -20 -161c-38 -106 -138 -162 -288 -162c-159 0 -272 65 -300 174c-7 27 -10 58 -10 111v261c0 51 -3 65 -14 76c-12 12 -35 18 -72 18h-7v42h336v-42h-5c-38 0 -58 -6 -73 -21c-14 -14 -17 -28 -17 -73
v-265c0 -73 4 -96 23 -128c30 -52 93 -82 173 -82c106 0 179 49 201 135c7 26 8 46 8 117v187c0 63 -6 90 -22 107c-16 16 -39 23 -76 23h-9v42h278v-42h-8c-35 0 -64 -9 -80 -25c-14 -15 -18 -33 -18 -93z" />
    <glyph glyph-name="Yacute" unicode="&#xdd;" horiz-adv-x="791" 
d="M342 724l117 180h187l-220 -180h-84zM224 0v42h16c41 0 60 5 76 21c14 14 17 28 17 73v132l-209 277c-41 54 -41 54 -54 64c-16 12 -31 15 -66 15h-7v43h350v-43h-9c-46 0 -64 -8 -64 -29c0 -10 2 -10 25 -41l158 -210l118 184c15 23 26 50 26 63c0 22 -20 33 -58 33h-13
v43h254v-43c-70 -5 -82 -14 -141 -105l-162 -251v-132c0 -49 4 -64 22 -77c16 -13 33 -17 71 -17h17v-42h-367z" />
    <glyph glyph-name="Ydieresis" unicode="&#x178;" horiz-adv-x="791" 
d="M550 724c-42 0 -76 34 -76 76c0 41 34 75 75 75c42 0 76 -34 76 -76c0 -41 -34 -75 -75 -75zM281 724c-42 0 -76 34 -76 76c0 41 34 75 75 75c42 0 76 -34 76 -76c0 -41 -34 -75 -75 -75zM224 0v42h16c41 0 60 5 76 21c14 14 17 28 17 73v132l-209 277
c-41 54 -41 54 -54 64c-16 12 -31 15 -66 15h-7v43h350v-43h-9c-46 0 -64 -8 -64 -29c0 -10 2 -10 25 -41l158 -210l118 184c15 23 26 50 26 63c0 22 -20 33 -58 33h-13v43h254v-43c-70 -5 -82 -14 -141 -105l-162 -251v-132c0 -49 4 -64 22 -77c16 -13 33 -17 71 -17h17
v-42h-367z" />
    <glyph glyph-name="Zcaron" unicode="&#x17d;" horiz-adv-x="778" 
d="M322 725l-121 179h106l112 -105l109 105h106l-117 -179h-195zM49 0v57l476 553h-243c-63 0 -63 0 -82 -5c-38 -11 -56 -43 -65 -118h-40l6 180h619v-59l-476 -551h314c63 0 84 10 107 52c15 27 23 53 34 106h41l-13 -215h-678z" />
    <glyph glyph-name="aacute" unicode="&#xe1;" horiz-adv-x="495" 
d="M182 499l79 202h169l-182 -202h-66zM287 47l-15 -14c-31 -29 -64 -44 -108 -44c-77 0 -125 43 -125 112c0 40 18 76 49 99c19 14 30 18 73 31c62 19 104 39 132 64v40c0 41 -28 72 -66 72c-37 0 -58 -23 -58 -64c0 -5 0 -10 2 -19l-120 -42c-4 17 -5 25 -5 36
c0 43 21 72 69 97c40 20 98 35 136 35c56 0 122 -27 151 -62c16 -20 24 -48 24 -88v-135c0 -50 2 -77 4 -82c3 -11 10 -17 20 -17c8 0 14 3 29 13l16 -25c-35 -37 -87 -64 -122 -64c-40 0 -66 22 -75 64zM295 93v154c-20 -16 -28 -20 -69 -39c-43 -21 -58 -43 -58 -85
c0 -44 22 -74 54 -74c18 0 32 8 73 44z" />
    <glyph glyph-name="acircumflex" unicode="&#xe2;" horiz-adv-x="495" 
d="M75 499l86 202h158l90 -202h-83l-85 113l-81 -113h-85zM287 47l-15 -14c-31 -29 -64 -44 -108 -44c-77 0 -125 43 -125 112c0 40 18 76 49 99c19 14 30 18 73 31c62 19 104 39 132 64v40c0 41 -28 72 -66 72c-37 0 -58 -23 -58 -64c0 -5 0 -10 2 -19l-120 -42
c-4 17 -5 25 -5 36c0 43 21 72 69 97c40 20 98 35 136 35c56 0 122 -27 151 -62c16 -20 24 -48 24 -88v-135c0 -50 2 -77 4 -82c3 -11 10 -17 20 -17c8 0 14 3 29 13l16 -25c-35 -37 -87 -64 -122 -64c-40 0 -66 22 -75 64zM295 93v154c-20 -16 -28 -20 -69 -39
c-43 -21 -58 -43 -58 -85c0 -44 22 -74 54 -74c18 0 32 8 73 44z" />
    <glyph glyph-name="adieresis" unicode="&#xe4;" horiz-adv-x="495" 
d="M344 535c-35 0 -64 29 -64 65c0 34 29 63 64 63s64 -29 64 -64s-29 -64 -64 -64zM136 535c-35 0 -64 29 -64 65c0 34 29 63 64 63s64 -29 64 -64s-29 -64 -64 -64zM287 47l-15 -14c-31 -29 -64 -44 -108 -44c-77 0 -125 43 -125 112c0 40 18 76 49 99c19 14 30 18 73 31
c62 19 104 39 132 64v40c0 41 -28 72 -66 72c-37 0 -58 -23 -58 -64c0 -5 0 -10 2 -19l-120 -42c-4 17 -5 25 -5 36c0 43 21 72 69 97c40 20 98 35 136 35c56 0 122 -27 151 -62c16 -20 24 -48 24 -88v-135c0 -50 2 -77 4 -82c3 -11 10 -17 20 -17c8 0 14 3 29 13l16 -25
c-35 -37 -87 -64 -122 -64c-40 0 -66 22 -75 64zM295 93v154c-20 -16 -28 -20 -69 -39c-43 -21 -58 -43 -58 -85c0 -44 22 -74 54 -74c18 0 32 8 73 44z" />
    <glyph glyph-name="agrave" unicode="&#xe0;" horiz-adv-x="495" 
d="M252 499l-189 202h173l79 -202h-63zM287 47l-15 -14c-31 -29 -64 -44 -108 -44c-77 0 -125 43 -125 112c0 40 18 76 49 99c19 14 30 18 73 31c62 19 104 39 132 64v40c0 41 -28 72 -66 72c-37 0 -58 -23 -58 -64c0 -5 0 -10 2 -19l-120 -42c-4 17 -5 25 -5 36
c0 43 21 72 69 97c40 20 98 35 136 35c56 0 122 -27 151 -62c16 -20 24 -48 24 -88v-135c0 -50 2 -77 4 -82c3 -11 10 -17 20 -17c8 0 14 3 29 13l16 -25c-35 -37 -87 -64 -122 -64c-40 0 -66 22 -75 64zM295 93v154c-20 -16 -28 -20 -69 -39c-43 -21 -58 -43 -58 -85
c0 -44 22 -74 54 -74c18 0 32 8 73 44z" />
    <glyph glyph-name="aring" unicode="&#xe5;" horiz-adv-x="495" 
d="M252 504c-58 0 -104 46 -104 104c0 56 48 103 104 103c57 0 103 -46 103 -103s-47 -104 -103 -104zM252 541c36 0 66 30 66 67c0 36 -29 66 -65 66s-66 -30 -66 -66c0 -37 29 -67 65 -67zM287 47l-15 -14c-31 -29 -64 -44 -108 -44c-77 0 -125 43 -125 112
c0 40 18 76 49 99c19 14 30 18 73 31c62 19 104 39 132 64v40c0 41 -28 72 -66 72c-37 0 -58 -23 -58 -64c0 -5 0 -10 2 -19l-120 -42c-4 17 -5 25 -5 36c0 43 21 72 69 97c40 20 98 35 136 35c56 0 122 -27 151 -62c16 -20 24 -48 24 -88v-135c0 -50 2 -77 4 -82
c3 -11 10 -17 20 -17c8 0 14 3 29 13l16 -25c-35 -37 -87 -64 -122 -64c-40 0 -66 22 -75 64zM295 93v154c-20 -16 -28 -20 -69 -39c-43 -21 -58 -43 -58 -85c0 -44 22 -74 54 -74c18 0 32 8 73 44z" />
    <glyph glyph-name="atilde" unicode="&#xe3;" horiz-adv-x="495" 
d="M44 521c0 95 48 159 119 159c25 0 50 -8 88 -30c38 -21 51 -26 68 -26c23 0 42 20 50 54h69c-4 -90 -54 -157 -117 -157c-27 0 -42 5 -103 36c-29 15 -44 20 -56 20c-25 0 -40 -17 -50 -56h-68zM287 47l-15 -14c-31 -29 -64 -44 -108 -44c-77 0 -125 43 -125 112
c0 40 18 76 49 99c19 14 30 18 73 31c62 19 104 39 132 64v40c0 41 -28 72 -66 72c-37 0 -58 -23 -58 -64c0 -5 0 -10 2 -19l-120 -42c-4 17 -5 25 -5 36c0 43 21 72 69 97c40 20 98 35 136 35c56 0 122 -27 151 -62c16 -20 24 -48 24 -88v-135c0 -50 2 -77 4 -82
c3 -11 10 -17 20 -17c8 0 14 3 29 13l16 -25c-35 -37 -87 -64 -122 -64c-40 0 -66 22 -75 64zM295 93v154c-20 -16 -28 -20 -69 -39c-43 -21 -58 -43 -58 -85c0 -44 22 -74 54 -74c18 0 32 8 73 44z" />
    <glyph glyph-name="ccedilla" unicode="&#xe7;" horiz-adv-x="514" 
d="M203 -89l56 78c-132 3 -222 89 -222 212c0 140 121 249 277 249c93 0 163 -39 163 -91c0 -32 -22 -54 -55 -54c-32 0 -45 8 -90 57c-25 28 -42 38 -62 38c-53 0 -89 -66 -89 -163c0 -114 54 -193 133 -193c47 0 92 26 136 77l31 -18c-39 -62 -102 -101 -182 -112l-15 -26
c41 -11 65 -42 65 -85c0 -57 -46 -99 -109 -99c-32 0 -64 8 -93 25l10 32c16 -7 41 -12 60 -12c26 0 47 20 47 44c0 26 -18 38 -61 41z" />
    <glyph glyph-name="eacute" unicode="&#xe9;" horiz-adv-x="506" 
d="M168 499l79 202h169l-182 -202h-66zM439 145l24 -21c-61 -85 -147 -135 -230 -135c-116 0 -196 90 -196 220c0 140 96 240 230 240c70 0 129 -30 159 -81c12 -20 18 -38 26 -78c3 -17 8 -26 21 -34v-24h-299c6 -91 66 -164 136 -164c38 0 78 23 129 77zM172 266h153
c-1 82 -29 132 -76 132c-45 0 -77 -49 -77 -118v-14z" />
    <glyph glyph-name="ecircumflex" unicode="&#xea;" horiz-adv-x="506" 
d="M81 499l86 202h158l90 -202h-83l-85 113l-81 -113h-85zM439 145l24 -21c-61 -85 -147 -135 -230 -135c-116 0 -196 90 -196 220c0 140 96 240 230 240c70 0 129 -30 159 -81c12 -20 18 -38 26 -78c3 -17 8 -26 21 -34v-24h-299c6 -91 66 -164 136 -164c38 0 78 23 129 77
zM172 266h153c-1 82 -29 132 -76 132c-45 0 -77 -49 -77 -118v-14z" />
    <glyph glyph-name="edieresis" unicode="&#xeb;" horiz-adv-x="506" 
d="M357 535c-35 0 -64 29 -64 65c0 34 29 63 64 63s64 -29 64 -64s-29 -64 -64 -64zM149 535c-35 0 -64 29 -64 65c0 34 29 63 64 63s64 -29 64 -64s-29 -64 -64 -64zM439 145l24 -21c-61 -85 -147 -135 -230 -135c-116 0 -196 90 -196 220c0 140 96 240 230 240
c70 0 129 -30 159 -81c12 -20 18 -38 26 -78c3 -17 8 -26 21 -34v-24h-299c6 -91 66 -164 136 -164c38 0 78 23 129 77zM172 266h153c-1 82 -29 132 -76 132c-45 0 -77 -49 -77 -118v-14z" />
    <glyph glyph-name="egrave" unicode="&#xe8;" horiz-adv-x="506" 
d="M271 499l-189 202h173l79 -202h-63zM439 145l24 -21c-61 -85 -147 -135 -230 -135c-116 0 -196 90 -196 220c0 140 96 240 230 240c70 0 129 -30 159 -81c12 -20 18 -38 26 -78c3 -17 8 -26 21 -34v-24h-299c6 -91 66 -164 136 -164c38 0 78 23 129 77zM172 266h153
c-1 82 -29 132 -76 132c-45 0 -77 -49 -77 -118v-14z" />
    <glyph glyph-name="iacute" unicode="&#xed;" horiz-adv-x="307" 
d="M69 499l79 202h169l-182 -202h-66zM17 0v34h11c44 0 60 20 60 75v202c0 37 -2 39 -37 53l-35 14v26l183 60h20v-345c0 -38 3 -55 12 -66c9 -10 31 -19 47 -19h7v-34h-268z" />
    <glyph glyph-name="icircumflex" unicode="&#xee;" horiz-adv-x="307" 
d="M-32 499l86 202h158l90 -202h-83l-85 113l-81 -113h-85zM17 0v34h11c44 0 60 20 60 75v202c0 37 -2 39 -37 53l-35 14v26l183 60h20v-345c0 -38 3 -55 12 -66c9 -10 31 -19 47 -19h7v-34h-268z" />
    <glyph glyph-name="idieresis" unicode="&#xef;" horiz-adv-x="307" 
d="M226 535c-35 0 -64 29 -64 65c0 34 29 63 64 63s64 -29 64 -64s-29 -64 -64 -64zM58 535c-35 0 -64 29 -64 65c0 34 29 63 64 63s64 -29 64 -64s-29 -64 -64 -64zM17 0v34h11c44 0 60 20 60 75v202c0 37 -2 39 -37 53l-35 14v26l183 60h20v-345c0 -38 3 -55 12 -66
c9 -10 31 -19 47 -19h7v-34h-268z" />
    <glyph glyph-name="igrave" unicode="&#xec;" horiz-adv-x="307" 
d="M145 499l-189 202h173l79 -202h-63zM17 0v34h11c44 0 60 20 60 75v202c0 37 -2 39 -37 53l-35 14v26l183 60h20v-345c0 -38 3 -55 12 -66c9 -10 31 -19 47 -19h7v-34h-268z" />
    <glyph glyph-name="ntilde" unicode="&#xf1;" horiz-adv-x="614" 
d="M104 521c0 95 48 159 119 159c25 0 50 -8 88 -30c38 -21 51 -26 68 -26c23 0 42 20 50 54h69c-4 -90 -54 -157 -117 -157c-27 0 -42 5 -103 36c-29 15 -44 20 -56 20c-25 0 -40 -17 -50 -56h-68zM20 0v34h7c45 0 61 20 61 75v215c0 19 -22 35 -58 45l-15 4v27l184 61h20
v-96c13 9 27 18 49 30c68 39 110 54 150 54c46 0 82 -25 97 -67c12 -33 15 -60 15 -117v-130c0 -49 2 -71 8 -81c6 -12 27 -20 49 -20h5v-34h-254v34c48 6 61 36 61 141v64c0 91 -19 129 -66 129c-31 0 -57 -10 -114 -47v-202c0 -38 3 -55 12 -66c9 -10 31 -19 47 -19h15
v-34h-273z" />
    <glyph glyph-name="oacute" unicode="&#xf3;" horiz-adv-x="596" 
d="M213 499l79 202h169l-182 -202h-66zM37 216c0 131 118 234 269 234c148 0 254 -93 254 -223c0 -137 -115 -238 -272 -238c-147 0 -251 94 -251 227zM214 114c24 -52 62 -81 108 -81c60 0 96 49 96 133c0 139 -58 239 -139 239c-63 0 -100 -48 -100 -128
c0 -53 13 -114 35 -163z" />
    <glyph glyph-name="ocircumflex" unicode="&#xf4;" horiz-adv-x="596" 
d="M137 499l86 202h158l90 -202h-83l-85 113l-81 -113h-85zM37 216c0 131 118 234 269 234c148 0 254 -93 254 -223c0 -137 -115 -238 -272 -238c-147 0 -251 94 -251 227zM214 114c24 -52 62 -81 108 -81c60 0 96 49 96 133c0 139 -58 239 -139 239
c-63 0 -100 -48 -100 -128c0 -53 13 -114 35 -163z" />
    <glyph glyph-name="odieresis" unicode="&#xf6;" horiz-adv-x="596" 
d="M402 535c-35 0 -64 29 -64 65c0 34 29 63 64 63s64 -29 64 -64s-29 -64 -64 -64zM194 535c-35 0 -64 29 -64 65c0 34 29 63 64 63s64 -29 64 -64s-29 -64 -64 -64zM37 216c0 131 118 234 269 234c148 0 254 -93 254 -223c0 -137 -115 -238 -272 -238
c-147 0 -251 94 -251 227zM214 114c24 -52 62 -81 108 -81c60 0 96 49 96 133c0 139 -58 239 -139 239c-63 0 -100 -48 -100 -128c0 -53 13 -114 35 -163z" />
    <glyph glyph-name="ograve" unicode="&#xf2;" horiz-adv-x="596" 
d="M317 499l-189 202h173l79 -202h-63zM37 216c0 131 118 234 269 234c148 0 254 -93 254 -223c0 -137 -115 -238 -272 -238c-147 0 -251 94 -251 227zM214 114c24 -52 62 -81 108 -81c60 0 96 49 96 133c0 139 -58 239 -139 239c-63 0 -100 -48 -100 -128
c0 -53 13 -114 35 -163z" />
    <glyph glyph-name="otilde" unicode="&#xf5;" horiz-adv-x="596" 
d="M105 521c0 95 48 159 119 159c25 0 50 -8 88 -30c38 -21 51 -26 68 -26c23 0 42 20 50 54h69c-4 -90 -54 -157 -117 -157c-27 0 -42 5 -103 36c-29 15 -44 20 -56 20c-25 0 -40 -17 -50 -56h-68zM37 216c0 131 118 234 269 234c148 0 254 -93 254 -223
c0 -137 -115 -238 -272 -238c-147 0 -251 94 -251 227zM214 114c24 -52 62 -81 108 -81c60 0 96 49 96 133c0 139 -58 239 -139 239c-63 0 -100 -48 -100 -128c0 -53 13 -114 35 -163z" />
    <glyph glyph-name="scaron" unicode="&#x161;" horiz-adv-x="402" 
d="M122 499l-91 202h84l86 -116l83 116h83l-88 -202h-157zM56 -10l-11 136h34c23 -60 61 -91 112 -91c30 0 55 22 55 49c0 12 -6 25 -16 35c-13 13 -13 13 -80 56c-78 50 -104 84 -104 138c0 82 67 136 168 136c41 0 74 -6 119 -22l2 -115h-34c-20 60 -55 93 -101 93
c-28 0 -49 -18 -49 -42c0 -27 20 -48 78 -81c68 -39 75 -44 97 -66c23 -23 36 -56 36 -92c0 -79 -60 -136 -142 -136c-25 0 -68 6 -100 14c-5 1 -8 2 -11 2c-6 0 -12 -4 -22 -14h-31z" />
    <glyph glyph-name="uacute" unicode="&#xfa;" horiz-adv-x="611" 
d="M241 499l79 202h169l-182 -202h-66zM88 152v163c0 41 -3 50 -23 60l-22 11v24l154 39h22v-235c0 -71 3 -95 17 -115c12 -19 31 -29 53 -29c25 0 62 15 108 44v194c0 42 -7 52 -39 62l-49 15v25l219 39v-328c0 -54 5 -65 32 -65c10 0 20 2 31 7v-33l-173 -41h-21v85
c-96 -61 -150 -85 -193 -85c-76 0 -116 57 -116 163z" />
    <glyph glyph-name="ucircumflex" unicode="&#xfb;" horiz-adv-x="611" 
d="M134 499l86 202h158l90 -202h-83l-85 113l-81 -113h-85zM88 152v163c0 41 -3 50 -23 60l-22 11v24l154 39h22v-235c0 -71 3 -95 17 -115c12 -19 31 -29 53 -29c25 0 62 15 108 44v194c0 42 -7 52 -39 62l-49 15v25l219 39v-328c0 -54 5 -65 32 -65c10 0 20 2 31 7v-33
l-173 -41h-21v85c-96 -61 -150 -85 -193 -85c-76 0 -116 57 -116 163z" />
    <glyph glyph-name="udieresis" unicode="&#xfc;" horiz-adv-x="611" 
d="M410 535c-35 0 -64 29 -64 65c0 34 29 63 64 63s64 -29 64 -64s-29 -64 -64 -64zM202 535c-35 0 -64 29 -64 65c0 34 29 63 64 63s64 -29 64 -64s-29 -64 -64 -64zM88 152v163c0 41 -3 50 -23 60l-22 11v24l154 39h22v-235c0 -71 3 -95 17 -115c12 -19 31 -29 53 -29
c25 0 62 15 108 44v194c0 42 -7 52 -39 62l-49 15v25l219 39v-328c0 -54 5 -65 32 -65c10 0 20 2 31 7v-33l-173 -41h-21v85c-96 -61 -150 -85 -193 -85c-76 0 -116 57 -116 163z" />
    <glyph glyph-name="ugrave" unicode="&#xf9;" horiz-adv-x="611" 
d="M304 499l-189 202h173l79 -202h-63zM88 152v163c0 41 -3 50 -23 60l-22 11v24l154 39h22v-235c0 -71 3 -95 17 -115c12 -19 31 -29 53 -29c25 0 62 15 108 44v194c0 42 -7 52 -39 62l-49 15v25l219 39v-328c0 -54 5 -65 32 -65c10 0 20 2 31 7v-33l-173 -41h-21v85
c-96 -61 -150 -85 -193 -85c-76 0 -116 57 -116 163z" />
    <glyph glyph-name="yacute" unicode="&#xfd;" horiz-adv-x="543" 
d="M226 499l79 202h169l-182 -202h-66zM444 318l-216 -442c-32 -65 -32 -65 -47 -85c-19 -26 -46 -41 -74 -41c-39 0 -67 26 -67 61c0 43 25 65 81 69c39 2 70 21 93 72l27 59l-146 295c-41 83 -53 95 -101 98v34h274v-34h-8c-30 0 -47 -12 -47 -33c0 -9 3 -19 14 -41
l85 -175l82 165c8 16 11 28 11 38c0 27 -26 45 -67 46v34h200v-34c-47 -10 -64 -24 -94 -86z" />
    <glyph glyph-name="ydieresis" unicode="&#xff;" horiz-adv-x="543" 
d="M382 535c-35 0 -64 29 -64 65c0 34 29 63 64 63s64 -29 64 -64s-29 -64 -64 -64zM174 535c-35 0 -64 29 -64 65c0 34 29 63 64 63s64 -29 64 -64s-29 -64 -64 -64zM444 318l-216 -442c-32 -65 -32 -65 -47 -85c-19 -26 -46 -41 -74 -41c-39 0 -67 26 -67 61
c0 43 25 65 81 69c39 2 70 21 93 72l27 59l-146 295c-41 83 -53 95 -101 98v34h274v-34h-8c-30 0 -47 -12 -47 -33c0 -9 3 -19 14 -41l85 -175l82 165c8 16 11 28 11 38c0 27 -26 45 -67 46v34h200v-34c-47 -10 -64 -24 -94 -86z" />
    <glyph glyph-name="zcaron" unicode="&#x17e;" horiz-adv-x="528" 
d="M204 499l-91 202h84l86 -116l83 116h83l-88 -202h-157zM22 0v34l283 345h-149c-42 0 -55 -13 -92 -91h-36l35 180h36v-8c0 -18 4 -22 40 -22h354v-30l-286 -349h134c57 0 76 7 101 35c17 20 28 36 39 55h33l-50 -149h-442z" />
    <glyph glyph-name="twodotenleader" unicode="&#x2025;" horiz-adv-x="1073" 
d="M718 61c0 41 38 72 87 72c50 0 86 -30 86 -71c0 -42 -38 -73 -89 -73c-48 0 -84 31 -84 72zM182 61c0 41 38 72 86 72c50 0 86 -30 86 -71c0 -42 -38 -73 -89 -73c-47 0 -83 31 -83 72z" />
    <glyph glyph-name="onedotenleader" unicode="&#x2024;" 
d="M182 61c0 41 38 72 86 72c50 0 86 -30 86 -71c0 -42 -38 -73 -89 -73c-47 0 -83 31 -83 72z" />
    <glyph glyph-name="onethird" unicode="&#x2153;" horiz-adv-x="813" 
d="M75 267v27l45 2c13 1 18 6 18 21v271c-35 -18 -51 -25 -76 -31l-12 25c54 24 100 56 134 95h42v-357c0 -17 5 -23 18 -24l47 -2v-27h-216zM159 0l427 667h67l-427 -667h-67zM534 307l-25 11c20 58 65 92 122 92c52 0 92 -32 92 -75c0 -32 -17 -56 -61 -85
c55 -3 93 -47 93 -109c0 -87 -71 -151 -167 -151c-56 0 -99 25 -99 57c0 21 17 37 39 37c18 0 29 -7 44 -29c15 -21 27 -29 44 -29c33 0 55 34 55 83c0 52 -26 88 -64 88c-7 0 -13 -1 -23 -5l-14 23c43 30 69 65 69 95c0 25 -19 44 -44 44c-24 0 -43 -14 -61 -47z" />
    <glyph glyph-name="twothirds" unicode="&#x2154;" horiz-adv-x="813" 
d="M26 266v27c36 36 110 116 132 143c29 35 43 69 43 103c0 48 -24 78 -63 78c-36 0 -66 -29 -74 -70h-32c10 78 64 130 136 130c68 0 119 -50 119 -116c0 -52 -19 -81 -95 -147c-36 -31 -62 -57 -78 -75h107c40 0 47 6 55 49h27l-13 -122h-264zM166 0l427 667h67l-427 -667
h-67zM535 307l-25 11c19 58 65 92 122 92c52 0 92 -32 92 -75c0 -32 -18 -56 -62 -85c55 -3 93 -47 93 -109c0 -87 -71 -151 -166 -151c-56 0 -99 25 -99 57c0 21 17 37 39 37c18 0 29 -7 44 -29c15 -21 26 -29 44 -29c32 0 54 34 54 83c0 52 -26 88 -64 88
c-7 0 -12 -1 -22 -5l-14 23c43 30 69 65 69 95c0 25 -19 44 -44 44c-24 0 -43 -14 -61 -47z" />
    <glyph glyph-name="oneeighth" unicode="&#x215b;" horiz-adv-x="813" 
d="M75 267v27l45 2c13 1 18 6 18 21v271c-35 -18 -51 -25 -76 -31l-12 25c54 24 100 56 134 95h42v-357c0 -17 5 -23 18 -24l47 -2v-27h-216zM159 0l427 667h67l-427 -667h-67zM578 193l-5 4c-50 40 -65 62 -65 102c0 63 56 111 129 111c71 0 130 -44 130 -98
c0 -38 -23 -66 -73 -88c54 -28 83 -67 83 -112c0 -67 -63 -122 -140 -122c-75 0 -136 49 -136 109c0 42 26 74 77 94zM579 329c0 -33 25 -58 87 -88c1 1 1 1 1 2c1 0 2 1 3 2c17 14 26 38 26 66c0 44 -22 69 -61 69c-33 0 -56 -21 -56 -51zM613 173l-4 2
c-23 -18 -32 -39 -32 -73c0 -51 24 -82 63 -82c38 0 65 25 65 60c0 39 -8 51 -92 93z" />
    <glyph glyph-name="threeeighths" unicode="&#x215c;" horiz-adv-x="813" 
d="M68 574l-25 11c19 58 65 92 122 92c52 0 92 -32 92 -75c0 -32 -18 -56 -62 -85c55 -3 93 -47 93 -109c0 -87 -71 -151 -166 -151c-56 0 -99 25 -99 57c0 21 17 37 39 37c18 0 29 -7 44 -29c15 -21 26 -29 44 -29c32 0 54 34 54 83c0 52 -26 88 -64 88c-7 0 -12 -1 -22 -5
l-14 23c43 30 69 65 69 95c0 25 -19 44 -44 44c-24 0 -43 -14 -61 -47zM152 0l427 667h67l-427 -667h-67zM578 193l-5 4c-50 40 -65 62 -65 102c0 63 56 111 129 111c71 0 130 -44 130 -98c0 -38 -23 -66 -73 -88c54 -28 83 -67 83 -112c0 -67 -63 -122 -140 -122
c-75 0 -136 49 -136 109c0 42 26 74 77 94zM579 329c0 -33 25 -58 87 -88c1 1 1 1 1 2c1 0 2 1 3 2c17 14 26 38 26 66c0 44 -22 69 -61 69c-33 0 -56 -21 -56 -51zM613 173l-4 2c-23 -18 -32 -39 -32 -73c0 -51 24 -82 63 -82c38 0 65 25 65 60c0 39 -8 51 -92 93z" />
    <glyph glyph-name="fiveeighths" unicode="&#x215d;" horiz-adv-x="813" 
d="M100 599l-3 -68c22 5 34 7 51 7c85 0 147 -57 147 -136c0 -83 -69 -144 -164 -144c-56 0 -96 23 -96 55c0 20 16 35 38 35c20 0 30 -8 47 -34c10 -16 20 -23 33 -23c33 0 58 35 58 81c0 54 -31 90 -76 90c-18 0 -33 -4 -51 -13l-22 12l8 206h149c9 1 14 1 15 2
c2 1 3 1 5 5c0 1 1 2 3 4h27l-13 -79h-156zM156 0l428 667h67l-427 -667h-68zM579 193l-5 4c-50 40 -65 62 -65 102c0 63 56 111 129 111c71 0 130 -44 130 -98c0 -38 -23 -66 -73 -88c54 -28 83 -67 83 -112c0 -67 -63 -122 -140 -122c-75 0 -136 49 -136 109
c0 42 26 74 77 94zM580 329c0 -33 25 -58 87 -88c1 1 1 1 1 2c1 0 2 1 3 2c17 14 26 38 26 66c0 44 -22 69 -61 69c-33 0 -56 -21 -56 -51zM614 173l-4 2c-23 -18 -32 -39 -32 -73c0 -51 24 -82 63 -82c38 0 65 25 65 60c0 39 -8 51 -92 93z" />
    <glyph glyph-name="seveneighths" unicode="&#x215e;" horiz-adv-x="813" 
d="M146 0l427 667h68l-427 -667h-68zM87 257l148 333h-127c-38 0 -42 -3 -49 -39h-30l9 116h274v-29l-153 -381h-72zM579 193l-5 4c-49 39 -65 62 -65 102c0 63 56 111 129 111c71 0 130 -44 130 -98c0 -38 -24 -66 -73 -88c54 -28 83 -67 83 -112c0 -67 -63 -122 -140 -122
c-75 0 -136 49 -136 109c0 42 26 74 77 94zM667 241l2 2c18 14 28 39 28 68c0 44 -22 69 -61 69c-33 0 -56 -21 -56 -51c0 -33 25 -58 87 -88zM614 173l-4 2c-23 -18 -32 -39 -32 -73c0 -51 24 -82 63 -82c38 0 65 25 65 60c0 39 -8 51 -92 93z" />
    <glyph glyph-name="Dcroat" unicode="&#x110;" horiz-adv-x="875" 
d="M23 0v42h7c41 0 60 5 76 21c14 14 17 28 17 73v178h-93v38h93v179c0 49 -4 64 -22 78c-16 12 -33 16 -71 16h-6v42l85 6c105 7 147 9 236 9c123 0 190 -8 261 -29c136 -41 222 -158 222 -303c0 -135 -83 -260 -204 -309c-75 -30 -148 -41 -274 -41h-327zM271 125
c0 -73 11 -83 91 -83c108 0 192 34 243 97c40 51 63 121 63 195c0 106 -42 198 -112 247c-47 34 -116 51 -201 51c-28 0 -54 -2 -84 -5v-275h168v-38h-168v-189z" />
    <glyph glyph-name="Eng" unicode="&#x14a;" horiz-adv-x="855" 
d="M35 0v42h11c32 0 55 8 67 25c9 12 10 20 10 63v472c-20 14 -54 23 -86 23v42h221l418 -456v323c0 77 -16 91 -101 91h-12v42h277v-42h-12c-31 0 -59 -6 -70 -13c-15 -11 -17 -18 -17 -72v-540c-25 -155 -111 -244 -240 -244c-77 0 -116 21 -116 62c0 36 35 68 75 68
c26 0 39 -8 72 -43c14 -15 24 -21 36 -21c30 0 53 16 64 42c6 20 8 46 8 118v60l-452 492v-396c0 -57 8 -74 39 -87c16 -6 34 -9 67 -9v-42h-259z" />
    <glyph glyph-name="Hbar" unicode="&#x126;" horiz-adv-x="897" 
d="M25 0v42h5c41 0 60 5 76 21c14 14 17 28 17 73v318h-96v57h96v20c0 49 -4 64 -22 78c-16 12 -33 16 -71 16h-5v42h344v-42h-5c-41 0 -60 -5 -76 -21c-14 -14 -17 -28 -17 -73v-20h354v20c0 48 -4 64 -22 78c-14 10 -36 16 -69 16h-5v42h343v-42h-6c-41 0 -60 -5 -76 -21
c-14 -13 -17 -28 -17 -73v-20h97v-57h-97v-318c0 -49 4 -64 22 -77c16 -13 33 -17 71 -17h6v-42h-343v42h5c39 0 59 6 74 21c14 13 17 28 17 73v175h-354v-175c0 -49 4 -64 22 -77c16 -13 33 -17 71 -17h5v-42h-344zM271 374h354v80h-354v-80z" />
    <glyph glyph-name="Tbar" unicode="&#x166;" horiz-adv-x="782" 
d="M205 0v42h26c41 0 60 5 76 21c14 13 17 28 17 73v204h-194v52h194v220h-112c-96 0 -108 -12 -129 -127h-44l18 200h35c19 -18 19 -18 78 -18h481c36 0 44 3 55 18h33l19 -200h-42c-23 114 -35 127 -117 127h-127v-220h194v-52h-194v-204c0 -49 4 -64 22 -77
c16 -13 33 -17 71 -17h26v-42h-386z" />
    <glyph glyph-name="a.end" unicode="&#xe084;" horiz-adv-x="704" 
d="M287 47l-15 -14c-31 -29 -64 -44 -108 -44c-77 0 -125 43 -125 112c0 40 18 76 49 99c19 14 30 18 73 31c62 19 104 39 132 64v40c0 41 -28 72 -66 72c-37 0 -58 -23 -58 -64c0 -5 0 -10 2 -19l-120 -42c-4 17 -5 25 -5 36c0 43 21 72 69 97c40 20 98 35 136 35
c56 0 122 -27 151 -62c16 -20 24 -48 24 -88v-137c0 -94 2 -100 59 -100c112 0 129 33 129 73c0 29 -14 55 -14 64c0 20 41 57 67 57c19 0 33 -31 33 -67c0 -172 -198 -200 -327 -200c-40 0 -66 22 -75 64zM295 93v154c-20 -16 -28 -20 -69 -39c-43 -21 -58 -43 -58 -85
c0 -44 22 -74 54 -74c18 0 32 8 73 44z" />
    <glyph glyph-name="m.end" unicode="&#xe0b1;" horiz-adv-x="1190" 
d="M20 0v34h7c45 0 61 20 61 75v215c0 17 -15 31 -45 41l-25 8v27l181 61h20v-123c117 83 176 111 232 111c61 0 102 -41 111 -111c29 22 49 35 86 57c67 38 111 54 151 54c78 0 112 -56 112 -184v-160c0 -43 8 -52 35 -56c17 -3 45 -4 71 -4c86 0 98 24 98 54
c0 19 -8 37 -12 46c-2 6 3 13 9 20c13 12 31 25 47 25c14 0 27 -22 27 -50c0 -24 -10 -53 -40 -83c-32 -32 -70 -57 -157 -57h-270v34c48 6 61 36 61 141v64c0 91 -19 129 -66 129c-34 0 -74 -18 -148 -67v-182c0 -37 3 -55 12 -65c10 -12 29 -20 44 -20h4v-34h-252v34h4
c41 0 57 21 57 75v154c0 71 -21 105 -65 105c-39 0 -81 -19 -151 -69v-180c0 -38 3 -55 12 -66c9 -10 31 -19 47 -19h13v-34h-271z" />
    <glyph glyph-name="n.end" unicode="&#xe0b2;" horiz-adv-x="789" 
d="M20 0v34h7c45 0 61 20 61 75v215c0 19 -22 35 -58 45l-15 4v27l184 61h20v-96c13 9 27 18 49 30c68 39 110 54 150 54c46 0 82 -25 97 -67c12 -33 15 -60 15 -117v-161c0 -43 8 -52 35 -56c13 -3 33 -3 51 -3c86 0 98 24 98 54c0 19 -8 37 -12 46c0 6 0 13 9 20
c13 12 30 25 47 25c14 0 27 -22 27 -50c0 -24 -10 -53 -40 -83c-32 -32 -70 -57 -157 -57h-250v34c48 6 61 36 61 141v64c0 91 -19 129 -66 129c-31 0 -57 -10 -114 -47v-202c0 -38 3 -55 12 -66c9 -10 31 -19 47 -19h15v-34h-273z" />
    <glyph glyph-name="longs" unicode="&#x17f;" horiz-adv-x="345" 
d="M9 0v34h19c44 0 60 20 60 75v273h-79v23l79 33c2 54 15 104 39 144c48 80 151 140 240 140c63 0 140 -36 140 -66c0 -5 -4 -12 -9 -19l-33 -42c-8 -10 -15 -15 -23 -15c-11 0 -11 0 -47 32c-40 37 -63 49 -91 49c-32 0 -63 -21 -74 -51c-8 -22 -11 -44 -11 -93v-398
c0 -64 22 -85 92 -85h23v-34h-325z" />
    <glyph glyph-name="dcroat" unicode="&#x111;" horiz-adv-x="592" 
d="M383 -11v85c-67 -59 -118 -85 -172 -85c-102 0 -174 84 -174 202c0 71 26 141 72 189c43 46 104 69 178 69c34 0 64 -4 96 -14v85h-124v37h124v16c0 37 -19 55 -72 65v26l167 53h36v-160h69v-37h-69v-379c0 -63 9 -79 43 -79c11 0 22 2 33 6v-32l-178 -47h-29zM383 122
v239c-40 35 -64 46 -102 46c-71 0 -113 -59 -113 -158c0 -107 48 -181 117 -181c32 0 71 22 98 54z" />
    <glyph glyph-name="eng" unicode="&#x14b;" horiz-adv-x="615" 
d="M21 0v34h7c45 0 61 20 61 75v201v14c0 19 -22 35 -58 45l-15 4v27l184 61h20v-96c14 10 28 18 48 30c67 38 111 54 151 54c46 0 82 -25 97 -67c12 -33 15 -60 15 -117v-224c0 -62 -1 -77 -8 -107c-26 -112 -111 -180 -226 -180c-69 0 -110 24 -110 64c0 33 33 64 68 64
c25 0 40 -11 69 -50c10 -14 23 -23 33 -23c16 0 31 18 38 45c4 18 5 27 5 116v269c0 91 -19 129 -66 129c-28 0 -60 -11 -102 -39l-12 -8v-202c0 -38 3 -55 12 -66c9 -10 31 -19 47 -19h14v-34h-272z" />
    <glyph glyph-name="hbar" unicode="&#x127;" horiz-adv-x="613" 
d="M14 0v34h5c64 0 69 8 69 101v363h-72v56h72v18c0 44 1 47 -64 69l-9 3v19l177 54h27v-163h141v-56h-141v-130c71 49 147 81 193 81c78 0 117 -63 117 -191v-123c0 -89 7 -101 56 -101h3v-34h-253v34h4c25 0 45 8 51 20c6 9 8 33 8 81v140c0 58 -27 94 -70 94
c-29 0 -73 -17 -109 -40v-194c0 -91 6 -101 63 -101h4v-34h-272z" />
    <glyph glyph-name="kgreenlandic" unicode="&#x138;" horiz-adv-x="587" 
d="M22 0v34h6c44 0 60 20 60 75v216c0 32 -5 39 -34 49l-32 11v25l171 51h26v-210l145 121c10 8 13 12 13 18c0 13 -4 15 -45 15h-7v33h222v-34h-8c-39 0 -87 -21 -127 -55l-73 -61l155 -195c35 -45 57 -59 83 -59h9v-34h-247v34h4c14 0 22 5 22 14c0 4 -4 12 -11 21
l-135 173v-123c0 -37 3 -55 12 -66c10 -10 31 -19 47 -19h4v-34h-260z" />
    <glyph glyph-name="tbar" unicode="&#x167;" horiz-adv-x="370" 
d="M346 116l16 -30c-33 -57 -97 -97 -157 -97c-48 0 -87 21 -104 56c-14 28 -17 46 -17 107v100h-55v53h55v80h-57v21c61 23 138 105 158 166h30v-130h142l-15 -57h-127v-80h100v-53h-100v-109c0 -37 1 -47 7 -58c7 -14 25 -23 43 -23c26 0 51 17 81 54z" />
    <glyph glyph-name="s_t" unicode="&#xfb06;" horiz-adv-x="762" 
d="M57 -10l-12 136h34c24 -60 61 -91 112 -91c30 0 55 22 55 49c0 12 -6 25 -16 35c-13 13 -13 13 -80 56c-78 50 -104 84 -104 138c0 82 67 136 169 136c25 0 47 -3 72 -8c-15 23 -22 46 -22 71c0 90 76 156 173 156s169 -45 169 -186v-40h142l-15 -57h-127v-242
c0 -37 1 -47 7 -58c7 -14 25 -23 43 -23c26 0 51 17 81 54l16 -30c-33 -57 -97 -97 -157 -97c-48 0 -86 21 -104 56c-14 28 -17 46 -17 107v233h-57v21c19 7 40 20 60 36v37c0 87 -19 132 -80 131c-58 -1 -87 -54 -87 -108c0 -30 7 -53 21 -74l2 -116h-33
c-20 60 -56 93 -102 93c-28 0 -49 -18 -49 -42c0 -27 20 -48 78 -81c68 -39 75 -44 97 -66c23 -23 36 -56 36 -92c0 -79 -60 -136 -142 -136c-25 0 -68 6 -100 14c-4 1 -8 2 -11 2c-6 0 -12 -4 -22 -14h-30z" />
    <glyph glyph-name="zero.slash" unicode="&#xf638;" 
d="M81 -37l46 93c-51 63 -81 161 -81 280c0 102 27 202 72 267c35 50 93 81 151 81c46 0 86 -17 119 -47l36 80l32 -19l-41 -90c48 -62 76 -159 76 -279c0 -203 -91 -345 -222 -345c-43 0 -81 16 -114 43l-43 -84zM185 178l161 381c-8 50 -40 84 -81 84
c-35 0 -59 -22 -71 -64c-8 -30 -11 -72 -11 -185c0 -114 1 -175 2 -216zM193 97c12 -47 38 -73 77 -73c40 0 67 28 77 83c5 26 8 88 8 179c0 78 -1 143 -3 191z" />
    <glyph glyph-name="Euro" unicode="&#x20ac;" horiz-adv-x="853" 
d="M46 278l17 41h48c-1 8 -1 10 -1 13s0 5 1 13h-65l17 41h52c32 174 201 298 407 298c60 0 106 -9 171 -35c20 -8 27 -10 35 -10c9 0 15 3 21 11h26l10 -188h-42c-34 107 -110 167 -213 167c-140 0 -239 -94 -257 -243h351l-17 -41h-336c0 -9 0 -21 1 -26h325l-18 -41h-302
c26 -143 134 -241 265 -241c99 0 180 57 223 155h43c-6 -48 -37 -146 -61 -195c-18 5 -38 8 -62 8c-23 0 -28 -1 -92 -12c-32 -5 -64 -8 -93 -8c-196 0 -353 120 -385 293h-69z" />
    <glyph glyph-name="estimated" unicode="&#x212e;" horiz-adv-x="885" 
d="M682 128h101c-76 -96 -191 -144 -341 -144c-109 0 -203 31 -279 95c-77 65 -114 150 -114 254c0 106 37 189 114 253c76 63 172 97 285 97c115 0 207 -35 280 -102c73 -66 108 -155 108 -266h-623v-187c59 -69 139 -104 237 -104s176 36 232 104zM213 358h466v173
c-54 73 -133 110 -236 110c-102 0 -178 -37 -230 -110v-173z" />
    <glyph glyph-name="zero.oldstyle" unicode="&#xf730;" horiz-adv-x="502" 
d="M27 247c0 145 101 262 226 262s222 -114 222 -261c0 -148 -96 -261 -223 -261c-126 0 -225 114 -225 260zM191 76c17 -17 39 -27 60 -27c18 0 41 9 57 23c37 32 57 95 57 181c0 115 -45 192 -111 192c-70 0 -114 -77 -114 -197c0 -85 16 -138 51 -172z" />
    <glyph glyph-name="one.oldstyle" unicode="&#xf731;" horiz-adv-x="503" 
d="M82 0v36l53 3c29 2 33 2 41 10s9 14 9 50v303c0 43 -5 49 -50 52l-53 3v36h339v-36l-52 -3c-49 -3 -51 -5 -51 -52v-313c0 -41 5 -46 43 -49l60 -4v-36h-339z" />
    <glyph glyph-name="two.oldstyle" unicode="&#xf732;" horiz-adv-x="502" 
d="M26 0v38l94 81c135 116 172 161 172 211c0 52 -45 91 -105 91c-46 0 -79 -14 -127 -55l-23 28c73 83 132 113 221 113c98 0 163 -53 163 -131c0 -81 -48 -131 -255 -262h164c63 0 72 6 95 60c2 3 5 12 9 21h36l-36 -195h-408z" />
    <glyph glyph-name="three.oldstyle" unicode="&#xf733;" horiz-adv-x="502" 
d="M92 376l-30 18c49 81 107 116 190 116c89 0 158 -51 158 -118c0 -59 -33 -99 -125 -151c52 -6 75 -15 100 -39c33 -32 50 -77 50 -131c0 -137 -108 -245 -244 -245c-87 0 -152 39 -152 90c0 31 27 56 60 56c24 0 48 -16 71 -49c25 -35 40 -46 65 -46c45 0 72 47 72 126
c0 94 -39 155 -100 155c-12 0 -20 -2 -38 -9l-11 34c43 30 62 46 84 74c27 35 39 65 39 94c0 49 -37 84 -90 84c-40 0 -70 -18 -99 -59z" />
    <glyph glyph-name="four.oldstyle" unicode="&#xf734;" horiz-adv-x="504" 
d="M22 0v48l301 461h52v-436h101v-73h-101v-176h-132v176h-221zM89 73h154v238z" />
    <glyph glyph-name="five.oldstyle" unicode="&#xf735;" horiz-adv-x="503" 
d="M148 387l-13 -67c97 -10 158 -29 210 -65c64 -44 99 -107 99 -176c0 -136 -138 -255 -295 -255c-73 0 -116 26 -116 70c0 32 27 60 58 60c23 0 24 0 79 -39c26 -18 52 -28 75 -28c52 0 99 62 99 131c0 68 -40 124 -110 152c-33 13 -68 20 -164 31l56 294h284l-34 -108
h-228z" />
    <glyph glyph-name="six.oldstyle" unicode="&#xf736;" horiz-adv-x="503" 
d="M444 671l22 -34c-128 -60 -202 -121 -258 -216c31 9 46 12 67 12c113 0 200 -93 200 -213c0 -130 -95 -233 -216 -233c-130 0 -230 114 -230 264c0 194 166 363 415 420zM190 380l-5 -19c-10 -43 -15 -90 -15 -140c0 -133 28 -195 88 -195c22 0 43 11 55 29
c19 30 26 69 26 154c0 88 -9 131 -33 159c-14 15 -39 26 -62 26c-16 0 -29 -3 -54 -14z" />
    <glyph glyph-name="seven.oldstyle" unicode="&#xf737;" horiz-adv-x="502" 
d="M125 -176l244 551h-229c-43 0 -48 -4 -62 -45l-12 -37h-33l35 202h414v-46l-254 -625h-103z" />
    <glyph glyph-name="eight.oldstyle" unicode="&#xf738;" horiz-adv-x="502" 
d="M34 160c0 68 41 117 131 156c-85 59 -118 109 -118 177c0 101 88 178 202 178c115 0 207 -71 207 -159c0 -59 -32 -96 -122 -144c95 -54 135 -108 135 -183c0 -113 -95 -198 -222 -198c-122 0 -213 74 -213 173zM299 391c40 36 48 56 48 117c0 85 -32 124 -101 124
c-53 0 -95 -40 -95 -90c0 -54 38 -93 148 -151zM148 163c0 -89 37 -137 107 -137c63 0 107 45 107 108s-31 94 -159 160c-5 -4 -12 -10 -13 -12c-30 -29 -42 -63 -42 -119z" />
    <glyph glyph-name="nine.oldstyle" unicode="&#xf739;" horiz-adv-x="502" 
d="M36 -139c125 58 208 127 258 214c-33 -9 -49 -12 -70 -12c-111 0 -198 93 -198 212c0 131 96 232 220 232c129 0 225 -111 225 -260c0 -130 -68 -246 -193 -328c-61 -40 -122 -67 -218 -95zM256 102c17 0 30 3 55 14c14 51 20 101 20 169c0 85 -10 129 -36 160
c-14 17 -32 26 -52 26s-40 -10 -53 -28c-21 -28 -28 -67 -28 -152c0 -136 26 -189 94 -189z" />
    <glyph glyph-name="dollar.oldstyle" unicode="&#xf724;" horiz-adv-x="520" 
d="M235 -100v88c-110 5 -202 72 -202 146c0 36 25 62 59 62c35 0 53 -20 67 -79c14 -61 33 -83 76 -91v259c-59 32 -68 37 -90 53c-64 46 -94 96 -94 160c0 96 72 165 184 177v43h34v-42c97 -4 186 -64 186 -127c0 -30 -25 -55 -55 -55c-21 0 -41 11 -53 30
c-7 11 -8 14 -17 45c-11 36 -31 59 -61 69v-215c65 -34 65 -34 85 -46c89 -54 125 -108 125 -185c0 -108 -88 -193 -210 -203v-89h-34zM235 441v199c-47 -5 -84 -43 -84 -87s24 -76 84 -112zM269 25c58 8 100 57 100 115c0 52 -29 88 -100 127v-242z" />
    <glyph glyph-name="Euro.oldstyle" unicode="&#xe023;" horiz-adv-x="853" 
d="M46 278l17 41h48c-1 8 -1 10 -1 13s0 5 1 13h-65l17 41h52c32 174 201 298 407 298c60 0 106 -9 171 -35c20 -8 27 -10 35 -10c9 0 15 3 21 11h26l10 -188h-42c-34 107 -110 167 -213 167c-140 0 -239 -94 -257 -243h351l-17 -41h-336c0 -9 0 -21 1 -26h325l-18 -41h-302
c26 -143 134 -241 265 -241c99 0 180 57 223 155h43c-6 -48 -37 -146 -61 -195c-18 5 -38 8 -62 8c-23 0 -28 -1 -92 -12c-32 -5 -64 -8 -93 -8c-196 0 -353 120 -385 293h-69z" />
    <glyph glyph-name="a.superior" unicode="&#xf6e9;" horiz-adv-x="336" 
d="M194 300l-22 -18c-24 -19 -46 -21 -64 -21c-58 0 -81 33 -81 68s23 60 59 71c74 22 82 27 105 44v25c0 24 -16 43 -42 43c-14 0 -38 -7 -38 -37c0 -4 0 -8 2 -12l-79 -26c-2 6 -3 13 -3 21c0 69 120 80 133 80c38 0 80 -19 98 -38c14 -16 15 -41 15 -52v-113
c0 -8 0 -28 15 -28c5 0 10 2 19 8l11 -15c-19 -18 -53 -39 -80 -39c-6 0 -39 0 -48 39zM192 324v91c-13 -8 -17 -10 -44 -22c-26 -12 -37 -25 -37 -52c0 -30 17 -44 35 -44c16 0 37 20 46 27z" />
    <glyph glyph-name="d.superior" unicode="&#xf6eb;" horiz-adv-x="400" 
d="M254 261v50c-58 -47 -91 -50 -111 -50c-63 0 -114 46 -114 121c0 59 37 156 163 156c29 0 52 -6 62 -8v73c0 24 0 39 -46 46v16l107 32h24v-345c0 -23 0 -47 25 -47c4 0 12 0 25 3v-19l-116 -28h-19zM254 340v145c-16 13 -34 27 -65 27c-70 0 -75 -71 -75 -96
c0 -61 28 -108 78 -108c26 0 52 21 62 32z" />
    <glyph glyph-name="e.superior" unicode="&#xf6ec;" horiz-adv-x="336" 
d="M292 353l15 -12c-26 -33 -80 -81 -149 -81c-73 0 -128 50 -128 135c0 98 78 143 149 143c53 0 105 -26 117 -81c5 -24 6 -27 17 -35v-14h-194c4 -61 47 -101 87 -101c29 0 59 20 86 46zM117 428h100c0 52 -21 80 -50 80c-34 0 -50 -35 -50 -80z" />
    <glyph glyph-name="h.superior" unicode="&#xf637;" horiz-adv-x="400" 
d="M13 267v21c36 0 45 13 45 45v274c0 12 0 18 -9 24c-7 4 -18 9 -29 11l-10 2v17l110 36h23v-208c5 4 25 15 50 26c26 12 55 23 78 23c72 0 73 -72 73 -110v-79c0 -47 0 -61 40 -61v-21h-164v21c32 4 39 26 39 86v38c0 24 0 77 -41 77c-28 0 -50 -13 -75 -28v-122
c0 -30 4 -35 6 -38c5 -7 21 -13 31 -13h10v-21h-177z" />
    <glyph glyph-name="i.superior" unicode="&#xf6ed;" horiz-adv-x="202" 
d="M95 607c-29 0 -54 17 -54 43c0 27 28 45 57 45c33 0 53 -22 53 -44c0 -27 -29 -44 -56 -44zM11 267v21c37 0 46 12 46 45v121c0 18 0 24 -24 32l-23 7v15l108 35h24v-205c0 -31 8 -50 42 -50v-21h-173z" />
    <glyph glyph-name="l.superior" unicode="&#xf6ee;" horiz-adv-x="190" 
d="M6 267v21c39 0 47 13 47 45v265c0 23 0 33 -19 38l-30 11v18l110 32h23v-359c0 -33 9 -50 42 -50v-21h-173z" />
    <glyph glyph-name="m.superior" unicode="&#xf6ef;" horiz-adv-x="647" 
d="M14 267v21c41 0 44 19 44 45v121c0 17 0 24 -30 33l-15 6v15l107 37h23v-78c46 35 77 51 99 60c24 10 39 11 52 11c15 0 33 -5 48 -19c19 -17 21 -35 24 -52c3 6 27 23 57 39c32 17 68 32 97 32c65 0 73 -62 73 -111v-78c0 -45 0 -61 39 -61v-21h-164v21
c35 3 40 28 40 84v39c0 33 -3 78 -44 78c-15 0 -41 -3 -96 -45v-105c0 -23 0 -51 39 -51v-21h-164v21c40 0 40 28 40 45v92c0 29 -5 64 -42 64c-31 0 -65 -19 -98 -46v-104c0 -27 0 -51 47 -51v-21h-176z" />
    <glyph glyph-name="n.superior" unicode="&#x207f;" horiz-adv-x="400" 
d="M13 267v21c36 0 45 13 45 45v121c0 12 0 18 -9 24c-7 4 -18 9 -29 11l-10 2v17l110 36h23v-55c5 4 25 15 50 26c26 12 55 23 78 23c72 0 73 -72 73 -110v-79c0 -47 0 -61 40 -61v-21h-164v21c32 4 39 26 39 86v38c0 24 0 77 -41 77c-28 0 -50 -13 -75 -28v-122
c0 -30 4 -35 6 -38c5 -7 21 -13 31 -13h10v-21h-177z" />
    <glyph glyph-name="o.superior" unicode="&#xf6f0;" horiz-adv-x="402" 
d="M196 261c-98 0 -165 57 -165 135c0 77 70 142 176 142c91 0 164 -53 164 -134c0 -73 -65 -143 -175 -143zM215 288c64 0 64 65 64 80c0 58 -24 143 -90 143c-31 0 -66 -18 -66 -76c0 -47 21 -147 92 -147z" />
    <glyph glyph-name="r.superior" unicode="&#xf6f1;" horiz-adv-x="279" 
d="M17 267v21c41 0 44 19 44 45v106c0 29 -4 35 -26 44l-18 6v16l107 40h22v-77c32 59 42 70 60 70c11 0 20 -4 31 -7l40 -14c-6 -16 -15 -44 -34 -69l-32 10c-6 2 -17 6 -23 6c-11 0 -23 -4 -42 -30v-96c0 -27 0 -50 47 -50h18v-21h-194z" />
    <glyph glyph-name="s.superior" unicode="&#xf6f2;" horiz-adv-x="257" 
d="M35 262l-7 82h21c6 -12 25 -55 72 -55c24 0 37 15 37 30c0 17 -11 22 -63 53c-42 25 -67 47 -67 83c0 35 27 83 108 83c36 0 64 -10 77 -14l2 -69h-22c-17 48 -48 56 -65 56s-32 -10 -32 -25c0 -20 22 -33 51 -49c53 -28 87 -46 87 -95c0 -45 -36 -81 -91 -81
c-29 0 -62 9 -73 9c-7 0 -11 -4 -15 -8h-20z" />
    <glyph glyph-name="t.superior" unicode="&#xf6f3;" horiz-adv-x="235" 
d="M210 325l15 -13c-12 -17 -45 -51 -95 -51c-79 0 -79 63 -79 98v139h-37v13c28 9 81 47 103 99h19v-79h92l-9 -34h-83v-144c0 -22 0 -48 32 -48c16 0 29 7 42 20z" />
    <glyph glyph-name="zero.superior" unicode="&#x2070;" horiz-adv-x="347" 
d="M174 382c-82 0 -141 88 -141 211s58 209 141 209c84 0 140 -85 140 -213c0 -122 -58 -207 -140 -207zM174 412c24 0 39 16 45 46c3 15 5 54 5 106c0 76 -2 135 -5 157c-4 30 -23 50 -47 50c-21 0 -35 -12 -41 -36c-5 -17 -7 -43 -7 -109c0 -90 1 -130 3 -153
c3 -39 20 -61 47 -61z" />
    <glyph glyph-name="one.superior" unicode="&#xb9;" horiz-adv-x="346" 
d="M75 392v27l45 2c13 1 18 6 18 21v271c-35 -18 -51 -25 -76 -31l-12 25c54 24 100 56 134 95h42v-357c0 -17 5 -23 18 -24l47 -2v-27h-216z" />
    <glyph glyph-name="two.superior" unicode="&#xb2;" horiz-adv-x="347" 
d="M26 392v27c36 36 110 116 132 143c29 35 43 69 43 103c0 48 -24 78 -63 78c-36 0 -66 -29 -74 -70h-32c10 78 64 130 136 130c68 0 119 -50 119 -116c0 -52 -19 -81 -95 -147c-36 -31 -62 -57 -78 -75h107c40 0 47 6 55 49h27l-13 -122h-264z" />
    <glyph glyph-name="three.superior" unicode="&#xb3;" horiz-adv-x="346" 
d="M68 699l-25 11c19 58 65 92 122 92c52 0 92 -32 92 -75c0 -32 -18 -56 -62 -85c55 -3 93 -47 93 -109c0 -87 -71 -151 -166 -151c-56 0 -99 25 -99 57c0 21 17 37 39 37c18 0 29 -7 44 -29c15 -21 26 -29 44 -29c32 0 54 34 54 83c0 52 -26 88 -64 88c-7 0 -12 -1 -22 -5
l-14 23c43 30 69 65 69 95c0 25 -19 44 -44 44c-24 0 -43 -14 -61 -47z" />
    <glyph glyph-name="four.superior" unicode="&#x2074;" horiz-adv-x="346" 
d="M169 382v108h-142v33l190 279h40v-264h56v-48h-56v-108h-88zM76 538h93v137z" />
    <glyph glyph-name="five.superior" unicode="&#x2075;" horiz-adv-x="347" 
d="M100 724l-3 -68c22 5 34 7 51 7c85 0 147 -57 147 -136c0 -83 -69 -144 -164 -144c-56 0 -96 23 -96 55c0 20 16 35 38 35c20 0 30 -8 47 -34c10 -16 20 -23 33 -23c33 0 58 35 58 81c0 54 -31 90 -76 90c-18 0 -33 -4 -51 -13l-22 12l8 206h149c9 1 14 1 15 2
c2 1 3 1 5 5c0 1 1 2 3 4h27l-13 -79h-156z" />
    <glyph glyph-name="six.superior" unicode="&#x2076;" horiz-adv-x="347" 
d="M267 802l16 -25c-75 -23 -129 -80 -144 -153c25 14 41 19 63 19c69 0 115 -50 115 -124c0 -80 -56 -137 -135 -137c-86 0 -145 68 -145 169c0 127 91 227 230 251zM179 412c35 0 48 27 48 99c0 68 -14 96 -47 96c-16 0 -29 -5 -48 -20c-3 -20 -4 -37 -4 -59
c0 -77 17 -116 51 -116z" />
    <glyph glyph-name="seven.superior" unicode="&#x2077;" horiz-adv-x="347" 
d="M87 382l148 333h-127c-38 0 -42 -3 -49 -39h-30l9 116h274v-29l-153 -381h-72z" />
    <glyph glyph-name="eight.superior" unicode="&#x2078;" horiz-adv-x="346" 
d="M112 585l-4 4c-50 38 -65 62 -65 102c0 63 56 111 129 111c71 0 130 -44 130 -98c0 -38 -23 -66 -74 -88c54 -28 83 -67 83 -112c0 -67 -63 -122 -139 -122s-136 49 -136 109c0 42 26 74 76 94zM200 633l2 2c19 15 29 39 29 68c0 44 -22 69 -61 69c-33 0 -56 -21 -56 -51
c0 -33 25 -58 86 -88zM141 565l-2 -2c-18 -15 -27 -38 -27 -69c0 -51 24 -82 63 -82c38 0 64 25 64 60c0 39 -9 48 -91 93c-1 0 -2 0 -4 2z" />
    <glyph glyph-name="nine.superior" unicode="&#x2079;" horiz-adv-x="347" 
d="M83 382l-19 26c75 21 128 76 146 152c-28 -14 -42 -18 -63 -18c-67 0 -116 52 -116 123c0 78 59 137 136 137c88 0 146 -68 146 -169c0 -83 -36 -151 -109 -203c-33 -23 -66 -36 -121 -48zM167 578c14 0 31 6 50 19c2 19 4 51 4 64c0 74 -18 111 -53 111
c-32 0 -46 -29 -46 -94c0 -75 11 -100 45 -100z" />
    <glyph glyph-name="period.superior" unicode="&#xf6e8;" horiz-adv-x="223" 
d="M110 385c-31 0 -55 20 -55 46s25 46 57 46s56 -19 56 -46c0 -26 -25 -46 -58 -46z" />
    <glyph glyph-name="comma.superior" unicode="&#xf6e2;" horiz-adv-x="223" 
d="M62 299l-7 33c44 3 73 23 73 49c0 5 -2 7 -7 7c-1 0 -1 0 -8 -1c-4 -1 -10 -1 -14 -1c-31 0 -52 18 -52 45c0 28 22 46 55 46c45 0 74 -30 74 -76c0 -57 -47 -102 -107 -102h-7z" />
    <glyph glyph-name="dollar.superior" unicode="&#xf6e4;" horiz-adv-x="346" 
d="M155 333v52c-58 10 -85 22 -107 47c-11 13 -17 28 -17 42c0 23 17 40 39 40c24 0 36 -13 45 -49c8 -34 16 -44 40 -50v147c-85 43 -113 74 -113 127c0 59 34 91 113 107v26h27v-25c36 -4 52 -9 74 -22c25 -15 40 -36 40 -56s-17 -36 -37 -36c-24 0 -35 12 -46 47
c-6 20 -13 28 -31 37v-120c37 -19 37 -19 50 -27c56 -32 79 -65 79 -111c0 -37 -19 -72 -49 -95c-17 -13 -41 -21 -80 -28v-53h-27zM155 661v108c-31 -8 -45 -24 -45 -48c0 -23 13 -41 45 -60zM182 414c36 9 55 32 55 64c0 28 -16 48 -55 69v-133z" />
    <glyph glyph-name="cent.superior" unicode="&#xf6e0;" horiz-adv-x="347" 
d="M74 286l46 110c-53 22 -82 64 -82 118c0 83 76 154 170 150l23 -1l31 74h34l-33 -80c35 -12 52 -28 52 -50c0 -21 -15 -35 -37 -35c-15 0 -25 4 -43 19l-64 -153c17 -11 26 -14 40 -14c29 0 55 14 84 46l24 -13c-32 -47 -79 -72 -136 -72c-7 0 -18 1 -33 3l-42 -102h-34z
M148 465l63 150c-11 10 -17 13 -27 13c-30 0 -51 -38 -51 -92c0 -29 4 -45 15 -71z" />
    <glyph glyph-name="hyphen.superior" unicode="&#xf6e6;" horiz-adv-x="292" 
d="M29 489v70h235v-70h-235z" />
    <glyph glyph-name="plus.superior" unicode="&#x207a;" horiz-adv-x="347" 
d="M152 463v100h-113v42h113v100h43v-100h113v-42h-113v-100h-43z" />
    <glyph glyph-name="minus.superior" unicode="&#x207b;" horiz-adv-x="347" 
d="M39 563v42h269v-42h-269z" />
    <glyph glyph-name="parenleft.superior" unicode="&#x207d;" horiz-adv-x="250" 
d="M193 267c-38 32 -60 55 -79 80c-41 53 -65 123 -65 188c0 71 25 135 76 198c26 31 46 51 70 68h36c-66 -72 -95 -153 -95 -269c0 -114 27 -192 93 -265h-36z" />
    <glyph glyph-name="parenright.superior" unicode="&#x207e;" horiz-adv-x="250" 
d="M12 267c66 72 93 151 93 266s-29 197 -95 268h36c25 -19 51 -44 78 -79c45 -57 68 -120 68 -186c0 -72 -27 -144 -75 -201c-17 -21 -37 -40 -69 -68h-36z" />
    <glyph glyph-name="zero.inferior" unicode="&#x2080;" horiz-adv-x="347" 
d="M33 101c0 123 58 209 141 209c84 0 140 -85 140 -213c0 -122 -58 -207 -140 -207s-141 88 -141 211zM127 -19c3 -39 20 -61 47 -61c24 0 39 16 45 46c3 15 5 54 5 106c0 76 -2 135 -5 157c-4 30 -23 50 -47 50c-21 0 -35 -12 -41 -36c-5 -17 -7 -43 -7 -109
c0 -90 1 -130 3 -153z" />
    <glyph glyph-name="one.inferior" unicode="&#x2081;" horiz-adv-x="346" 
d="M75 -73l45 2c13 1 18 6 18 21v271c-35 -18 -51 -25 -76 -31l-12 25c53 23 100 57 134 95h42v-357c0 -17 5 -23 19 -24l47 -2v-27h-217v27z" />
    <glyph glyph-name="two.inferior" unicode="&#x2082;" horiz-adv-x="347" 
d="M26 -73c39 39 113 120 132 143c29 37 43 69 43 104c0 48 -24 78 -63 78c-36 0 -66 -29 -74 -71h-32c10 78 65 130 136 130c68 0 119 -50 119 -116c0 -52 -19 -81 -95 -148c-38 -33 -62 -56 -78 -74h107c40 0 47 6 55 48h27l-13 -121h-264v27z" />
    <glyph glyph-name="three.inferior" unicode="&#x2083;" horiz-adv-x="346" 
d="M68 207l-25 11c19 58 65 92 122 92c52 0 92 -32 92 -75c0 -32 -18 -56 -62 -85c55 -3 93 -47 93 -109c0 -87 -71 -151 -166 -151c-56 0 -99 25 -99 57c0 21 17 37 39 37c18 0 29 -7 44 -29c15 -21 26 -29 44 -29c32 0 54 34 54 83c0 52 -26 88 -64 88c-7 0 -12 -1 -22 -5
l-14 23c43 30 69 65 69 95c0 25 -19 44 -44 44c-24 0 -43 -14 -61 -47z" />
    <glyph glyph-name="four.inferior" unicode="&#x2084;" horiz-adv-x="346" 
d="M27 -1v33l190 278h40v-263h56v-48h-56v-109h-88v109h-142zM76 47h93v136z" />
    <glyph glyph-name="five.inferior" unicode="&#x2085;" horiz-adv-x="347" 
d="M100 232l-3 -68c23 5 34 7 51 7c85 0 147 -58 147 -137c0 -83 -69 -144 -164 -144c-56 0 -96 23 -96 55c0 20 16 35 38 35c20 0 30 -8 47 -34c10 -16 20 -23 33 -23c33 0 58 35 58 82c0 54 -31 90 -76 90c-18 0 -33 -4 -51 -13l-22 12l8 206h149c9 1 14 1 15 2
c2 1 3 1 5 5c0 1 1 2 3 4h27l-13 -79h-156z" />
    <glyph glyph-name="six.inferior" unicode="&#x2086;" horiz-adv-x="347" 
d="M267 310l16 -25c-75 -23 -129 -80 -144 -153c25 14 41 19 63 19c69 0 115 -50 115 -124c0 -80 -56 -137 -135 -137c-86 0 -145 68 -145 169c0 127 91 227 230 251zM128 36c0 -77 17 -116 51 -116c35 0 48 27 48 99c0 68 -14 96 -47 96c-16 0 -29 -5 -48 -20
c-3 -20 -4 -37 -4 -59z" />
    <glyph glyph-name="seven.inferior" unicode="&#x2087;" horiz-adv-x="347" 
d="M87 -110l148 333h-127c-38 0 -42 -3 -49 -39h-30l9 116h274v-29l-153 -381h-72z" />
    <glyph glyph-name="eight.inferior" unicode="&#x2088;" horiz-adv-x="346" 
d="M112 93l-4 4c-50 38 -65 62 -65 102c0 63 56 111 129 111c71 0 130 -44 130 -98c0 -38 -23 -66 -74 -88c54 -28 83 -67 83 -112c0 -67 -63 -122 -139 -122s-136 49 -136 109c0 42 26 74 76 94zM200 141l2 2c19 15 29 39 29 68c0 44 -22 69 -61 69c-33 0 -56 -21 -56 -51
c0 -33 25 -58 86 -88zM141 73l-2 -2c-18 -15 -27 -38 -27 -69c0 -51 24 -82 63 -82c38 0 64 25 64 60c0 39 -9 48 -91 93c-1 0 -2 0 -4 2z" />
    <glyph glyph-name="nine.inferior" unicode="&#x2089;" horiz-adv-x="347" 
d="M64 -84c75 21 128 77 146 153c-28 -15 -42 -19 -63 -19c-67 0 -116 52 -116 123c0 78 59 137 136 137c88 0 146 -68 146 -169c0 -83 -37 -151 -109 -202c-33 -24 -66 -37 -121 -49zM167 86c14 0 30 6 50 19c2 21 4 51 4 64c0 74 -18 111 -53 111c-32 0 -46 -29 -46 -94
c0 -75 11 -100 45 -100z" />
    <glyph glyph-name="period.inferior" unicode="&#xf6e7;" horiz-adv-x="223" 
d="M55 -61c0 26 25 46 57 46s56 -19 56 -46c0 -26 -25 -46 -58 -46c-31 0 -55 20 -55 46z" />
    <glyph glyph-name="comma.inferior" unicode="&#xf6e1;" horiz-adv-x="223" 
d="M62 -193l-7 33c44 3 73 23 73 49c0 5 -2 7 -7 7c-1 0 -1 0 -8 -1c-4 -1 -10 -1 -14 -1c-31 0 -52 18 -52 45c0 28 22 46 55 46c45 0 74 -30 74 -76c0 -57 -47 -102 -107 -102h-7z" />
    <glyph glyph-name="dollar.inferior" unicode="&#xf6e3;" horiz-adv-x="346" 
d="M155 -159v52c-58 10 -85 22 -107 47c-11 13 -17 28 -17 42c0 23 17 40 39 40c24 0 36 -13 45 -49c8 -34 16 -44 40 -50v147c-85 43 -113 74 -113 127c0 59 34 91 113 107v26h27v-25c36 -4 52 -9 74 -22c25 -15 40 -36 40 -56s-17 -36 -37 -36c-24 0 -35 12 -46 47
c-6 20 -13 28 -31 37v-120c37 -19 37 -19 50 -27c56 -32 79 -65 79 -111c0 -37 -19 -72 -49 -95c-17 -13 -41 -21 -80 -28v-53h-27zM155 169v108c-31 -8 -45 -24 -45 -48c0 -23 13 -41 45 -60zM182 55v-133c36 9 55 32 55 64c0 28 -16 48 -55 69z" />
    <glyph glyph-name="cent.inferior" unicode="&#xf6df;" horiz-adv-x="347" 
d="M74 -206l46 110c-53 22 -82 64 -82 118c0 83 76 154 170 150l23 -1l31 74h34l-33 -80c35 -12 52 -28 52 -50c0 -21 -15 -35 -37 -35c-15 0 -25 4 -43 19l-64 -153c17 -11 26 -14 40 -14c29 0 55 14 84 46l24 -13c-32 -47 -79 -72 -136 -72c-7 0 -18 1 -33 3l-42 -102h-34
zM148 -27l63 150c-11 10 -17 13 -27 13c-30 0 -51 -38 -51 -92c0 -29 4 -45 15 -71z" />
    <glyph glyph-name="hyphen.inferior" unicode="&#xf6e5;" horiz-adv-x="292" 
d="M29 -3v70h235v-70h-235z" />
    <glyph glyph-name="parenleft.inferior" unicode="&#x208d;" horiz-adv-x="250" 
d="M229 -225h-36c-38 32 -60 55 -79 80c-41 53 -65 123 -65 188c0 71 25 135 76 198c26 31 46 51 70 68h36c-66 -72 -95 -153 -95 -269c0 -114 27 -192 93 -265z" />
    <glyph glyph-name="parenright.inferior" unicode="&#x208e;" horiz-adv-x="250" 
d="M48 -225h-36c66 72 93 151 93 266s-29 197 -95 268h36c25 -19 51 -44 78 -79c45 -57 68 -120 68 -186c0 -72 -27 -144 -75 -201c-17 -21 -37 -40 -69 -68z" />
    <glyph glyph-name="zero.numerator" unicode="&#xf661;" horiz-adv-x="347" 
d="M174 257c-82 0 -141 88 -141 211s58 209 141 209c84 0 140 -85 140 -213c0 -122 -58 -207 -140 -207zM174 287c24 0 39 16 45 46c3 15 5 54 5 106c0 76 -2 135 -5 157c-4 30 -23 50 -47 50c-21 0 -35 -12 -41 -36c-5 -17 -7 -43 -7 -109c0 -90 1 -130 3 -153
c3 -39 20 -61 47 -61z" />
    <glyph glyph-name="one.numerator" unicode="&#xf662;" horiz-adv-x="346" 
d="M75 267v27l45 2c13 1 18 6 18 21v271c-35 -18 -51 -25 -76 -31l-12 25c54 24 100 56 134 95h42v-357c0 -17 5 -23 18 -24l47 -2v-27h-216z" />
    <glyph glyph-name="two.numerator" unicode="&#xf663;" horiz-adv-x="347" 
d="M26 267v27c36 36 110 116 132 143c29 35 43 69 43 103c0 48 -24 78 -63 78c-36 0 -66 -29 -74 -70h-32c10 78 64 130 136 130c68 0 119 -50 119 -116c0 -52 -19 -81 -95 -147c-36 -31 -62 -57 -78 -75h107c40 0 47 6 55 49h27l-13 -122h-264z" />
    <glyph glyph-name="three.numerator" unicode="&#xf664;" horiz-adv-x="346" 
d="M68 574l-25 11c19 58 65 92 122 92c52 0 92 -32 92 -75c0 -32 -18 -56 -62 -85c55 -3 93 -47 93 -109c0 -87 -71 -151 -166 -151c-56 0 -99 25 -99 57c0 21 17 37 39 37c18 0 29 -7 44 -29c15 -21 26 -29 44 -29c32 0 54 34 54 83c0 52 -26 88 -64 88c-7 0 -12 -1 -22 -5
l-14 23c43 30 69 65 69 95c0 25 -19 44 -44 44c-24 0 -43 -14 -61 -47z" />
    <glyph glyph-name="four.numerator" unicode="&#xf665;" horiz-adv-x="346" 
d="M169 257v108h-142v33l190 279h40v-264h56v-48h-56v-108h-88zM76 413h93v137z" />
    <glyph glyph-name="five.numerator" unicode="&#xf666;" horiz-adv-x="347" 
d="M100 599l-3 -68c22 5 34 7 51 7c85 0 147 -57 147 -136c0 -83 -69 -144 -164 -144c-56 0 -96 23 -96 55c0 20 16 35 38 35c20 0 30 -8 47 -34c10 -16 20 -23 33 -23c33 0 58 35 58 81c0 54 -31 90 -76 90c-18 0 -33 -4 -51 -13l-22 12l8 206h149c9 1 14 1 15 2
c2 1 3 1 5 5c0 1 1 2 3 4h27l-13 -79h-156z" />
    <glyph glyph-name="six.numerator" unicode="&#xf667;" horiz-adv-x="347" 
d="M267 677l16 -25c-75 -23 -129 -80 -144 -153c25 14 41 19 63 19c69 0 115 -50 115 -124c0 -80 -56 -137 -135 -137c-86 0 -145 68 -145 169c0 127 91 227 230 251zM179 287c35 0 48 27 48 99c0 68 -14 96 -47 96c-16 0 -29 -5 -48 -20c-3 -20 -4 -37 -4 -59
c0 -77 17 -116 51 -116z" />
    <glyph glyph-name="seven.numerator" unicode="&#xf668;" horiz-adv-x="347" 
d="M87 257l148 333h-127c-38 0 -42 -3 -49 -39h-30l9 116h274v-29l-153 -381h-72z" />
    <glyph glyph-name="eight.numerator" unicode="&#xf669;" horiz-adv-x="346" 
d="M112 460l-4 4c-50 38 -65 62 -65 102c0 63 56 111 129 111c71 0 130 -44 130 -98c0 -38 -23 -66 -74 -88c54 -28 83 -67 83 -112c0 -67 -63 -122 -139 -122s-136 49 -136 109c0 42 26 74 76 94zM200 508l2 2c19 15 29 39 29 68c0 44 -22 69 -61 69c-33 0 -56 -21 -56 -51
c0 -33 25 -58 86 -88zM141 440l-2 -2c-18 -15 -27 -38 -27 -69c0 -51 24 -82 63 -82c38 0 64 25 64 60c0 39 -9 48 -91 93c-1 0 -2 0 -4 2z" />
    <glyph glyph-name="nine.numerator" unicode="&#xf66a;" horiz-adv-x="347" 
d="M83 257l-19 26c75 21 128 76 146 152c-28 -14 -42 -18 -63 -18c-67 0 -116 52 -116 123c0 78 59 137 136 137c88 0 146 -68 146 -169c0 -83 -36 -151 -109 -203c-33 -23 -66 -36 -121 -48zM167 453c14 0 31 6 50 19c2 19 4 51 4 64c0 74 -18 111 -53 111
c-32 0 -46 -29 -46 -94c0 -75 11 -100 45 -100z" />
    <glyph glyph-name="zero.denominator" unicode="&#xf655;" horiz-adv-x="347" 
d="M174 -10c-82 0 -141 88 -141 211s58 209 141 209c84 0 140 -85 140 -213c0 -122 -58 -207 -140 -207zM127 81c3 -39 20 -61 47 -61c24 0 39 16 45 46c3 15 5 54 5 106c0 76 -2 135 -5 157c-4 30 -23 50 -47 50c-21 0 -35 -12 -41 -36c-5 -17 -7 -43 -7 -109
c0 -90 1 -130 3 -153z" />
    <glyph glyph-name="one.denominator" unicode="&#xf656;" horiz-adv-x="346" 
d="M75 0v27l45 2c13 1 18 6 18 21v271c-35 -18 -51 -25 -76 -31l-12 25c53 23 100 57 134 95h42v-357c0 -17 5 -23 19 -24l47 -2v-27h-217z" />
    <glyph glyph-name="two.denominator" unicode="&#xf657;" horiz-adv-x="347" 
d="M26 0v27c39 39 113 120 132 143c29 37 43 69 43 104c0 48 -24 78 -63 78c-36 0 -66 -29 -74 -71h-32c10 78 65 130 136 130c68 0 119 -50 119 -116c0 -52 -19 -81 -95 -148c-38 -33 -62 -56 -78 -74h107c40 0 47 6 55 48h27l-13 -121h-264z" />
    <glyph glyph-name="three.denominator" unicode="&#xf658;" horiz-adv-x="346" 
d="M68 307l-25 11c19 58 65 92 122 92c52 0 92 -32 92 -75c0 -32 -18 -56 -62 -85c55 -3 93 -47 93 -109c0 -87 -71 -151 -166 -151c-56 0 -99 25 -99 57c0 21 17 37 39 37c18 0 29 -7 44 -29c15 -21 26 -29 44 -29c32 0 54 34 54 83c0 52 -26 88 -64 88c-7 0 -12 -1 -22 -5
l-14 23c43 30 69 65 69 95c0 25 -19 44 -44 44c-24 0 -43 -14 -61 -47z" />
    <glyph glyph-name="four.denominator" unicode="&#xf659;" horiz-adv-x="346" 
d="M27 99v33l190 278h40v-263h56v-48h-56v-109h-88v109h-142zM76 147h93v136z" />
    <glyph glyph-name="five.denominator" unicode="&#xf65a;" horiz-adv-x="347" 
d="M100 332l-3 -68c23 5 34 7 51 7c85 0 147 -58 147 -137c0 -83 -69 -144 -164 -144c-56 0 -96 23 -96 55c0 20 16 35 38 35c20 0 30 -8 47 -34c10 -16 20 -23 33 -23c33 0 58 35 58 82c0 54 -31 90 -76 90c-18 0 -33 -4 -51 -13l-22 12l8 206h149c9 1 14 1 15 2
c2 1 3 1 5 5c0 1 1 2 3 4h27l-13 -79h-156z" />
    <glyph glyph-name="six.denominator" unicode="&#xf65b;" horiz-adv-x="347" 
d="M267 410l16 -25c-75 -23 -129 -80 -144 -153c25 14 41 19 63 19c69 0 115 -50 115 -124c0 -80 -56 -137 -135 -137c-86 0 -145 68 -145 169c0 127 91 227 230 251zM179 20c35 0 48 27 48 99c0 68 -14 96 -47 96c-16 0 -29 -5 -48 -20c-3 -20 -4 -37 -4 -59
c0 -77 17 -116 51 -116z" />
    <glyph glyph-name="seven.denominator" unicode="&#xf65c;" horiz-adv-x="347" 
d="M87 -10l148 333h-127c-38 0 -42 -3 -49 -39h-30l9 116h274v-29l-153 -381h-72z" />
    <glyph glyph-name="eight.denominator" unicode="&#xf65d;" horiz-adv-x="346" 
d="M112 193l-4 4c-50 38 -65 62 -65 102c0 63 56 111 129 111c71 0 130 -44 130 -98c0 -38 -23 -66 -74 -88c54 -28 83 -67 83 -112c0 -67 -63 -122 -139 -122s-136 49 -136 109c0 42 26 74 76 94zM200 241l2 2c19 15 29 39 29 68c0 44 -22 69 -61 69c-33 0 -56 -21 -56 -51
c0 -33 25 -58 86 -88zM141 173l-2 -2c-18 -15 -27 -38 -27 -69c0 -51 24 -82 63 -82c38 0 64 25 64 60c0 39 -9 48 -91 93c-1 0 -2 0 -4 2z" />
    <glyph glyph-name="nine.denominator" unicode="&#xf65e;" horiz-adv-x="347" 
d="M64 16c75 21 128 77 146 153c-28 -15 -42 -19 -63 -19c-67 0 -116 52 -116 123c0 78 59 137 136 137c88 0 146 -68 146 -169c0 -83 -37 -151 -109 -202c-33 -24 -66 -37 -121 -49zM167 186c14 0 30 6 50 19c2 21 4 51 4 64c0 74 -18 111 -53 111c-32 0 -46 -29 -46 -94
c0 -75 11 -100 45 -100z" />
    <glyph glyph-name="at.cap" unicode="&#xf633;" horiz-adv-x="1027" 
d="M964 89h32c-85 -210 -253 -326 -474 -326c-276 0 -475 197 -475 471c0 296 219 511 519 511c263 0 386 -175 386 -363c0 -177 -110 -382 -324 -382c-66 0 -107 36 -107 95c0 16 5 44 13 71l-2 2c-56 -102 -115 -168 -183 -168c-55 0 -90 47 -90 121
c0 207 171 396 277 396c44 0 68 -25 76 -82h2l17 62l131 5l-99 -334c-10 -35 -16 -67 -16 -82c0 -24 19 -43 44 -43c60 0 231 106 231 331c0 199 -141 337 -344 337c-325 0 -474 -272 -474 -495c0 -248 173 -423 419 -423c194 0 375 114 441 296zM397 150
c0 -29 13 -51 31 -51c46 0 160 162 160 308c0 43 -15 72 -38 72c-66 0 -153 -226 -153 -329z" />
    <glyph glyph-name="lessequal" unicode="&#x2264;" 
d="M57 365v9l422 264v-63l-252 -159l252 -171v-168zM57 0v56h422v-56h-422z" />
    <glyph glyph-name="greaterequal" unicode="&#x2265;" 
d="M57 77v63l252 160l-252 171v167l422 -292v-9zM57 0v56h422v-56h-422z" />
    <glyph glyph-name="approxequal" unicode="&#x2248;" 
d="M67 341l-26 14c52 78 97 111 152 111c23 0 44 -5 94 -20c45 -13 71 -19 91 -19c32 0 63 16 91 45l26 -14c-16 -28 -36 -52 -63 -76c-29 -25 -55 -35 -91 -35c-25 0 -35 3 -120 29c-20 6 -48 11 -67 11c-30 0 -46 -7 -77 -36c-1 -2 -5 -6 -10 -10zM67 174l-26 14
c52 78 97 111 152 111c23 0 44 -4 94 -20c45 -14 71 -19 92 -19c31 0 63 16 90 45l26 -14c-16 -28 -36 -52 -63 -76c-29 -25 -55 -35 -91 -35c-21 0 -41 4 -87 19c-55 17 -72 21 -100 21c-31 0 -46 -7 -77 -36c-1 -2 -5 -6 -10 -10z" />
    <glyph glyph-name="notequal" unicode="&#x2260;" 
d="M151 140l40 84h-136v60h163l35 74h-198v60h226l51 109l54 -25l-40 -84h136v-60h-163l-35 -74h198v-60h-226l-51 -109z" />
    <glyph glyph-name="infinity" unicode="&#x221e;" horiz-adv-x="667" 
d="M148 153c-89 0 -155 74 -155 174c0 115 77 201 180 201c69 0 124 -37 173 -116c48 86 89 117 157 117c99 0 172 -80 172 -190c0 -116 -84 -203 -196 -203c-71 0 -138 42 -186 115c-50 -71 -90 -98 -145 -98zM397 336c45 -63 100 -98 153 -98c54 0 95 43 95 99
c0 60 -51 94 -142 94c-66 0 -110 -16 -135 -50c16 -26 19 -32 29 -45zM150 248c54 0 89 13 116 43c-27 43 -38 59 -57 82c-28 33 -65 52 -103 52c-48 0 -84 -40 -84 -94c0 -53 47 -83 128 -83z" />
    <glyph glyph-name="lozenge" unicode="&#x25ca;" horiz-adv-x="568" 
d="M248 -53l-181 390l184 391h68l182 -391l-182 -390h-71zM283 15h2l143 322l-142 320h-4l-143 -320z" />
    <glyph glyph-name="integral" unicode="&#x222b;" horiz-adv-x="406" 
d="M264 603l1 -335c2 -312 -86 -445 -216 -445c-43 0 -71 28 -73 56c1 38 28 53 52 53c43 0 53 -51 79 -51c18 0 25 17 24 123l-1 408c-2 279 115 378 213 378c42 0 68 -23 68 -54c0 -34 -24 -51 -50 -51c-43 0 -48 47 -71 47c-20 0 -27 -15 -26 -129z" />
    <glyph glyph-name="partialdiff" unicode="&#x2202;" horiz-adv-x="499" 
d="M247 411h1c46 0 86 -20 114 -51c5 19 8 48 8 74c1 47 -2 109 -24 152c-18 36 -57 67 -117 67c-54 0 -88 -21 -121 -40c-16 0 -44 48 -37 68c32 16 73 29 126 29c100 0 174 -55 220 -135c40 -71 53 -150 53 -207c0 -76 -11 -162 -49 -237c-42 -82 -105 -143 -209 -143
c-110 0 -179 86 -179 195c0 71 27 127 59 161c29 32 81 67 155 67zM276 360h-1c-28 0 -57 -14 -84 -53c-36 -49 -48 -104 -48 -163c0 -57 24 -117 72 -117c42 0 76 44 93 86c24 56 39 115 47 192c-13 27 -46 55 -79 55z" />
    <glyph glyph-name="product" unicode="&#x220f;" horiz-adv-x="750" 
d="M34 -20c78 7 87 18 87 103v446c0 85 -9 96 -90 103v35h685v-35c-81 -7 -88 -18 -88 -103v-446c0 -85 9 -96 88 -103v-35h-297v35c72 7 79 18 79 103v504c0 31 -4 34 -34 34h-178c-31 0 -34 -4 -34 -36v-502c0 -85 8 -96 75 -103v-35h-293v35z" />
    <glyph glyph-name="radical" unicode="&#x221a;" horiz-adv-x="560" 
d="M370 -38l-234 497l-98 -48l-15 37l172 87l163 -358h2l126 740l48 -5z" />
    <glyph glyph-name="summation" unicode="&#x2211;" horiz-adv-x="553" 
d="M23 -34l224 315l-211 357v29h452l12 -167l-35 -6c-11 38 -22 58 -36 84c-17 32 -40 45 -104 45h-132l165 -275l-214 -305h220c76 0 97 20 132 98l34 -8l-40 -196h-467v29z" />
    <glyph glyph-name="Delta" unicode="&#x2206;" horiz-adv-x="662" 
d="M39 0v29l271 626h45l267 -626v-29h-583zM119 58h343l-172 429z" />
    <glyph glyph-name="Omega" unicode="&#x2126;" horiz-adv-x="770" 
d="M60 0l-16 164h31c21 -53 35 -57 81 -57h74c-54 39 -162 123 -162 256c0 180 135 302 321 302c187 0 318 -122 318 -298c0 -129 -105 -209 -167 -260h86c41 0 54 4 76 57h31l-22 -164h-255l-9 14c34 62 113 205 113 353c0 162 -60 256 -172 256s-171 -97 -172 -266
c0 -140 73 -271 111 -342l-7 -15h-260z" />
    <glyph glyph-name="pi" unicode="&#x3c0;" horiz-adv-x="539" 
d="M70 8c59 91 83 262 83 338c-48 0 -84 -4 -125 -29l-17 25c22 29 66 94 184 92c72 -1 165 -3 245 -3c26 0 38 2 51 30l30 -6c-3 -42 -16 -96 -26 -110c-14 -5 -52 -5 -71 -4c-5 -57 -5 -126 -4 -198c1 -59 20 -73 35 -73c14 0 31 5 43 10l12 -27c-24 -34 -74 -65 -112 -65
c-45 0 -84 28 -84 126c0 81 3 164 8 229c-61 1 -84 1 -114 1v-5c0 -212 -44 -319 -56 -333c-27 -12 -54 -17 -73 -18z" />
    <glyph glyph-name="Abreve" unicode="&#x102;" horiz-adv-x="774" 
d="M520 890h41c-1 -99 -77 -169 -182 -169c-107 0 -182 68 -187 169h39c21 -54 66 -78 146 -78c82 0 129 26 143 78zM0 0v42h16c53 0 78 23 105 99l183 512l-11 30h157l215 -545c28 -71 53 -92 109 -96v-42h-350v42h37c46 0 65 12 65 41c0 9 -4 25 -13 46l-49 120h-233
l-45 -127c-6 -18 -10 -32 -10 -40c0 -13 6 -23 17 -29c13 -6 48 -11 78 -11h14v-42h-285zM253 308h187l-99 250z" />
    <glyph glyph-name="Amacron" unicode="&#x100;" horiz-adv-x="774" 
d="M180 752v95h401v-95h-401zM0 0v42h16c53 0 78 23 105 99l183 512l-11 30h157l215 -545c28 -71 53 -92 109 -96v-42h-350v42h37c46 0 65 12 65 41c0 9 -4 25 -13 46l-49 120h-233l-45 -127c-6 -18 -10 -32 -10 -40c0 -13 6 -23 17 -29c13 -6 48 -11 78 -11h14v-42h-285z
M253 308h187l-99 250z" />
    <glyph glyph-name="Aogonek" unicode="&#x104;" horiz-adv-x="774" 
d="M0 0v42h16c53 0 78 23 105 99l183 512l-11 30h157l215 -545c28 -71 53 -92 109 -96v-42h-129c-10 -19 -14 -33 -14 -51c0 -59 53 -106 119 -106c21 0 33 3 61 15l16 -28c-50 -33 -91 -47 -140 -47c-85 0 -140 45 -140 112c0 41 17 71 59 105h-182v42h37c46 0 65 12 65 41
c0 9 -4 25 -13 46l-49 120h-233l-45 -127c-6 -18 -10 -32 -10 -40c0 -13 6 -23 17 -29c13 -6 48 -11 78 -11h14v-42h-285zM253 308h187l-99 250z" />
    <glyph glyph-name="Cacute" unicode="&#x106;" horiz-adv-x="785" 
d="M406 724l117 180h188l-221 -180h-84zM702 192h43c-7 -48 -37 -146 -61 -195c-18 5 -39 8 -63 8c-22 0 -28 -1 -92 -12c-30 -5 -65 -8 -93 -8c-218 0 -389 152 -389 347c0 197 181 352 412 352c60 0 105 -9 170 -35c21 -8 28 -10 35 -10c9 0 15 3 21 11h27l10 -188h-43
c-33 107 -110 167 -213 167c-153 0 -259 -116 -259 -285c0 -173 118 -306 272 -306c98 0 180 56 223 154z" />
    <glyph glyph-name="Ccaron" unicode="&#x10c;" horiz-adv-x="785" 
d="M326 725l-121 179h106l112 -105l109 105h106l-117 -179h-195zM702 192h43c-7 -48 -37 -146 -61 -195c-18 5 -39 8 -63 8c-22 0 -28 -1 -92 -12c-30 -5 -65 -8 -93 -8c-218 0 -389 152 -389 347c0 197 181 352 412 352c60 0 105 -9 170 -35c21 -8 28 -10 35 -10
c9 0 15 3 21 11h27l10 -188h-43c-33 107 -110 167 -213 167c-153 0 -259 -116 -259 -285c0 -173 118 -306 272 -306c98 0 180 56 223 154z" />
    <glyph glyph-name="Ccircumflex" unicode="&#x108;" horiz-adv-x="785" 
d="M205 725l119 179h193l119 -179h-106l-108 105l-113 -105h-104zM702 192h43c-7 -48 -37 -146 -61 -195c-18 5 -39 8 -63 8c-22 0 -28 -1 -92 -12c-30 -5 -65 -8 -93 -8c-218 0 -389 152 -389 347c0 197 181 352 412 352c60 0 105 -9 170 -35c21 -8 28 -10 35 -10
c9 0 15 3 21 11h27l10 -188h-43c-33 107 -110 167 -213 167c-153 0 -259 -116 -259 -285c0 -173 118 -306 272 -306c98 0 180 56 223 154z" />
    <glyph glyph-name="Cdotaccent" unicode="&#x10a;" horiz-adv-x="785" 
d="M424 726c-42 0 -75 34 -75 75c0 40 34 74 75 74c40 0 74 -34 74 -74c0 -41 -34 -75 -74 -75zM702 192h43c-7 -48 -37 -146 -61 -195c-18 5 -39 8 -63 8c-22 0 -28 -1 -92 -12c-30 -5 -65 -8 -93 -8c-218 0 -389 152 -389 347c0 197 181 352 412 352c60 0 105 -9 170 -35
c21 -8 28 -10 35 -10c9 0 15 3 21 11h27l10 -188h-43c-33 107 -110 167 -213 167c-153 0 -259 -116 -259 -285c0 -173 118 -306 272 -306c98 0 180 56 223 154z" />
    <glyph glyph-name="Dcaron" unicode="&#x10e;" horiz-adv-x="875" 
d="M304 725l-121 179h106l112 -105l109 105h106l-117 -179h-195zM23 0v42h7c41 0 60 5 76 21c14 14 17 28 17 73v395c0 49 -4 64 -22 78c-16 12 -33 16 -71 16h-6v42l84 6c106 8 149 9 237 9c123 0 190 -8 261 -29c136 -41 222 -158 222 -302c0 -135 -83 -261 -204 -310
c-75 -30 -148 -41 -274 -41h-327zM271 125c0 -73 11 -83 91 -83c108 0 192 34 243 97c40 51 63 121 63 196c0 106 -42 197 -112 246c-48 34 -116 51 -201 51c-27 0 -53 -2 -84 -5v-502z" />
    <glyph glyph-name="Ecaron" unicode="&#x11a;" horiz-adv-x="690" 
d="M244 725l-121 179h106l112 -105l109 105h106l-117 -179h-195zM-5 0v42h35c41 0 60 5 76 21c14 13 17 28 17 73v395c0 49 -4 64 -22 78c-16 12 -33 16 -71 16h-11v42h590l12 -155h-42c-5 38 -10 58 -21 74c-13 18 -24 22 -71 22h-216v-244h157c53 0 73 7 86 29
c6 11 8 20 10 47h44v-213h-43v10c0 51 -24 68 -96 68h-158v-151c0 -95 0 -95 58 -95h144c72 0 95 9 116 45c11 18 18 37 24 64h40l-13 -168h-645z" />
    <glyph glyph-name="Edotaccent" unicode="&#x116;" horiz-adv-x="690" 
d="M345 726c-42 0 -75 34 -75 75c0 40 34 74 75 74c40 0 74 -34 74 -74c0 -41 -34 -75 -74 -75zM-5 0v42h35c41 0 60 5 76 21c14 13 17 28 17 73v395c0 49 -4 64 -22 78c-16 12 -33 16 -71 16h-11v42h590l12 -155h-42c-5 38 -10 58 -21 74c-13 18 -24 22 -71 22h-216v-244
h157c53 0 73 7 86 29c6 11 8 20 10 47h44v-213h-43v10c0 51 -24 68 -96 68h-158v-151c0 -95 0 -95 58 -95h144c72 0 95 9 116 45c11 18 18 37 24 64h40l-13 -168h-645z" />
    <glyph glyph-name="Emacron" unicode="&#x112;" horiz-adv-x="690" 
d="M121 752v95h420v-95h-420zM-5 0v42h35c41 0 60 5 76 21c14 13 17 28 17 73v395c0 49 -4 64 -22 78c-16 12 -33 16 -71 16h-11v42h590l12 -155h-42c-5 38 -10 58 -21 74c-13 18 -24 22 -71 22h-216v-244h157c53 0 73 7 86 29c6 11 8 20 10 47h44v-213h-43v10
c0 51 -24 68 -96 68h-158v-151c0 -95 0 -95 58 -95h144c72 0 95 9 116 45c11 18 18 37 24 64h40l-13 -168h-645z" />
    <glyph glyph-name="Eogonek" unicode="&#x118;" horiz-adv-x="690" 
d="M-5 0v42h35c41 0 60 5 76 20c14 14 17 29 17 73v396c0 49 -4 64 -22 78c-16 12 -33 16 -71 16h-11v42h590l12 -155h-42c-5 38 -10 58 -21 74c-13 18 -24 22 -71 22h-216v-244h157c53 0 73 7 86 29c6 11 8 20 10 47h44v-213h-43v10c0 51 -24 68 -96 68h-158v-151
c0 -95 0 -95 58 -95h144c72 0 95 9 116 45c11 18 18 37 24 64h40l-13 -168h-165c-10 -22 -13 -32 -13 -51c0 -59 53 -106 118 -106c21 0 33 3 61 15l16 -28c-50 -33 -90 -47 -140 -47c-84 0 -139 45 -139 112c0 40 19 73 59 105h-442z" />
    <glyph glyph-name="Gbreve" unicode="&#x11e;" horiz-adv-x="830" 
d="M575 890h41c-1 -99 -77 -169 -182 -169c-107 0 -182 68 -187 169h39c21 -54 66 -78 146 -78c82 0 129 26 143 78zM729 211v-160c-126 -48 -208 -66 -304 -66c-224 0 -378 142 -378 348c0 205 163 351 391 351c56 0 92 -6 190 -32c19 -5 33 -7 43 -7c14 0 24 4 31 14h27
v-195h-44c-28 111 -110 176 -221 176c-152 0 -256 -120 -256 -296c0 -177 110 -308 258 -308c41 0 86 11 115 28v141c0 42 -9 57 -38 65c-18 5 -44 8 -94 9v41h356v-41c-57 -1 -76 -18 -76 -68z" />
    <glyph glyph-name="Gcircumflex" unicode="&#x11c;" horiz-adv-x="830" 
d="M216 725l119 179h193l119 -179h-106l-108 105l-113 -105h-104zM729 211v-160c-126 -48 -208 -66 -304 -66c-224 0 -378 142 -378 348c0 205 163 351 391 351c56 0 92 -6 190 -32c19 -5 33 -7 43 -7c14 0 24 4 31 14h27v-195h-44c-28 111 -110 176 -221 176
c-152 0 -256 -120 -256 -296c0 -177 110 -308 258 -308c41 0 86 11 115 28v141c0 42 -9 57 -38 65c-18 5 -44 8 -94 9v41h356v-41c-57 -1 -76 -18 -76 -68z" />
    <glyph glyph-name="Gcommaaccent" unicode="&#x122;" horiz-adv-x="830" 
d="M729 211v-160c-126 -48 -208 -66 -304 -66c-224 0 -378 142 -378 348c0 205 163 351 391 351c56 0 92 -6 190 -32c19 -5 33 -7 43 -7c14 0 24 4 31 14h27v-195h-44c-28 111 -110 176 -221 176c-152 0 -256 -120 -256 -296c0 -177 110 -308 258 -308c41 0 86 11 115 28
v141c0 42 -9 57 -38 65c-18 5 -44 8 -94 9v41h356v-41c-57 -1 -76 -18 -76 -68zM429 -176l-18 -1c-41 -2 -69 25 -69 61c0 38 29 63 73 63c59 0 99 -42 99 -106c0 -85 -64 -146 -152 -145l-7 40c58 3 101 36 101 76c0 8 -7 14 -14 14c-2 0 -7 -1 -13 -2z" />
    <glyph glyph-name="Gdotaccent" unicode="&#x120;" horiz-adv-x="830" 
d="M434 726c-42 0 -75 34 -75 75c0 40 34 74 75 74c40 0 74 -34 74 -74c0 -41 -34 -75 -74 -75zM729 211v-160c-126 -48 -208 -66 -304 -66c-224 0 -378 142 -378 348c0 205 163 351 391 351c56 0 92 -6 190 -32c19 -5 33 -7 43 -7c14 0 24 4 31 14h27v-195h-44
c-28 111 -110 176 -221 176c-152 0 -256 -120 -256 -296c0 -177 110 -308 258 -308c41 0 86 11 115 28v141c0 42 -9 57 -38 65c-18 5 -44 8 -94 9v41h356v-41c-57 -1 -76 -18 -76 -68z" />
    <glyph glyph-name="Hcircumflex" unicode="&#x124;" horiz-adv-x="897" 
d="M233 725l119 179h193l119 -179h-106l-108 105l-113 -105h-104zM25 0v42h5c41 0 60 5 76 21c14 14 17 28 17 73v395c0 49 -4 64 -22 78c-16 12 -33 16 -71 16h-5v42h344v-42h-5c-41 0 -60 -5 -76 -21c-14 -14 -17 -28 -17 -73v-157h354v157c0 48 -4 64 -22 78
c-14 10 -36 16 -69 16h-5v42h343v-42h-6c-41 0 -60 -5 -76 -21c-14 -13 -17 -28 -17 -73v-395c0 -49 4 -64 22 -77c16 -13 33 -17 71 -17h6v-42h-343v42h5c39 0 59 6 74 21c14 13 17 28 17 73v175h-354v-175c0 -49 4 -64 22 -77c16 -13 33 -17 71 -17h5v-42h-344z" />
    <glyph glyph-name="Idotaccent" unicode="&#x130;" horiz-adv-x="395" 
d="M198 726c-42 0 -75 34 -75 75c0 40 34 74 75 74c40 0 74 -34 74 -74c0 -41 -34 -75 -74 -75zM30 0v42h3c38 0 58 6 73 21c14 14 17 28 17 73v395c0 49 -4 64 -22 78c-15 11 -33 16 -68 16h-3v42h341v-42h-7c-41 0 -60 -5 -76 -21c-14 -14 -17 -28 -17 -73v-395
c0 -49 4 -64 22 -77c16 -13 33 -17 71 -17h7v-42h-341z" />
    <glyph glyph-name="Imacron" unicode="&#x12a;" horiz-adv-x="395" 
d="M18 752v95h360v-95h-360zM30 0v42h3c38 0 58 6 73 21c14 14 17 28 17 73v395c0 49 -4 64 -22 78c-15 11 -33 16 -68 16h-3v42h341v-42h-7c-41 0 -60 -5 -76 -21c-14 -14 -17 -28 -17 -73v-395c0 -49 4 -64 22 -77c16 -13 33 -17 71 -17h7v-42h-341z" />
    <glyph glyph-name="Iogonek" unicode="&#x12e;" horiz-adv-x="395" 
d="M30 0v42h4c37 0 57 6 72 21c14 14 17 28 17 73v395c0 49 -4 64 -22 78c-15 11 -33 16 -68 16h-3v42h341v-42h-7c-41 0 -60 -5 -76 -21c-14 -14 -17 -28 -17 -73v-395c0 -48 4 -64 22 -77c16 -13 33 -17 71 -17h7v-42h-155c-10 -22 -13 -32 -13 -51
c0 -59 53 -106 118 -106c21 0 33 3 61 15l16 -28c-50 -33 -90 -47 -140 -47c-84 0 -139 45 -139 112c0 40 19 73 59 105h-148z" />
    <glyph glyph-name="Itilde" unicode="&#x128;" horiz-adv-x="395" 
d="M-11 722c4 33 7 49 15 70c20 54 65 90 113 90c30 0 46 -5 111 -39c20 -10 45 -18 60 -18c26 0 43 17 53 55h68c-3 -95 -55 -159 -128 -159c-20 0 -37 5 -72 22c-60 29 -75 35 -95 35c-29 0 -45 -16 -55 -56h-70zM30 0v42h3c38 0 58 6 73 21c14 14 17 28 17 73v395
c0 49 -4 64 -22 78c-15 11 -33 16 -68 16h-3v42h341v-42h-7c-41 0 -60 -5 -76 -21c-14 -14 -17 -28 -17 -73v-395c0 -49 4 -64 22 -77c16 -13 33 -17 71 -17h7v-42h-341z" />
    <glyph glyph-name="Jcircumflex" unicode="&#x134;" horiz-adv-x="391" 
d="M-15 725l119 179h193l119 -179h-106l-108 105l-113 -105h-104zM275 531v-394c0 -90 -1 -101 -7 -137c-27 -155 -121 -244 -260 -244c-77 0 -116 21 -116 62c0 36 35 68 75 68c26 0 39 -8 72 -43c14 -15 24 -21 36 -21c20 0 37 16 44 42c6 20 8 46 8 118v549
c0 49 -4 64 -22 78c-16 12 -33 16 -71 16h-6v42h341v-42h-4c-38 0 -58 -6 -73 -21c-14 -14 -17 -28 -17 -73z" />
    <glyph glyph-name="Kcommaaccent" unicode="&#x136;" horiz-adv-x="793" 
d="M21 0v42h9c41 0 60 5 76 21c14 13 17 28 17 73v395c0 49 -4 64 -22 78c-16 12 -33 16 -71 16h-9v42h350v-42h-18c-40 0 -63 -10 -74 -32c-6 -13 -8 -34 -8 -81v-166c48 7 110 45 158 99c51 58 87 117 87 145c0 25 -18 34 -76 35v42h286v-42c-90 -7 -106 -18 -165 -101
c-55 -79 -98 -127 -128 -148c36 -21 83 -74 170 -187c96 -125 126 -147 200 -147v-42h-365v42c35 1 44 2 55 7c11 4 19 13 19 22c0 17 -48 79 -129 166c-54 58 -81 77 -106 75c-2 0 -3 0 -6 -1v-175c0 -49 4 -64 22 -77c16 -13 33 -17 71 -17h7v-42h-350zM397 -176l-18 -1
c-41 -2 -69 25 -69 61c0 38 29 63 73 63c59 0 99 -42 99 -106c0 -85 -64 -146 -152 -145l-7 40c58 3 101 36 101 76c0 8 -7 14 -14 14c-2 0 -7 -1 -13 -2z" />
    <glyph glyph-name="Lacute" unicode="&#x139;" horiz-adv-x="651" 
d="M160 724l116 180h188l-220 -180h-84zM16 0v42h14c41 0 60 5 76 21c14 13 17 28 17 73v395c0 49 -4 64 -22 78c-16 12 -33 16 -71 16h-12v42h364v-42h-18c-41 0 -60 -5 -76 -21c-14 -13 -17 -28 -17 -73v-401c0 -65 5 -71 55 -71h115c55 0 81 7 104 29c21 21 58 64 82 98
h43l-78 -186h-576z" />
    <glyph glyph-name="Lcaron" unicode="&#x13d;" horiz-adv-x="651" 
d="M463 405l-8 44c66 4 113 40 113 85c0 10 -6 16 -16 16c-1 0 -1 0 -14 -2c-4 -1 -14 -2 -20 -2c-47 0 -77 27 -77 68c0 42 32 70 81 70c67 0 110 -47 110 -118c0 -92 -70 -161 -163 -161h-6zM16 0v42h14c41 0 60 5 76 21c14 13 17 28 17 73v395c0 49 -4 64 -22 78
c-16 12 -33 16 -71 16h-12v42h364v-42h-18c-41 0 -60 -5 -76 -21c-14 -13 -17 -28 -17 -73v-401c0 -65 5 -71 55 -71h115c55 0 81 7 104 29c21 21 58 64 82 98h43l-78 -186h-576z" />
    <glyph glyph-name="Lcommaaccent" unicode="&#x13b;" horiz-adv-x="651" 
d="M16 0v42h14c41 0 60 5 76 21c14 13 17 28 17 73v395c0 49 -4 64 -22 78c-16 12 -33 16 -71 16h-12v42h364v-42h-18c-41 0 -60 -5 -76 -21c-14 -13 -17 -28 -17 -73v-401c0 -65 5 -71 55 -71h115c55 0 81 7 104 29c21 21 58 64 82 98h43l-78 -186h-576zM326 -176l-18 -1
c-41 -2 -69 25 -69 61c0 38 29 63 73 63c59 0 99 -42 99 -106c0 -85 -64 -146 -152 -145l-7 40c58 3 101 36 101 76c0 8 -7 14 -14 14c-2 0 -7 -1 -13 -2z" />
    <glyph glyph-name="Nacute" unicode="&#x143;" horiz-adv-x="875" 
d="M399 724l116 180h188l-221 -180h-83zM35 0v42h11c32 0 55 8 67 25c9 12 10 20 10 63v472c-20 14 -54 23 -86 23v42h221l438 -456v323c0 77 -16 91 -101 91h-12v42h277v-42h-12c-31 0 -59 -6 -70 -13c-15 -11 -17 -18 -17 -72v-544h-58l-515 538v-396c0 -57 8 -74 39 -87
c16 -6 34 -9 67 -9v-42h-259z" />
    <glyph glyph-name="Ncaron" unicode="&#x147;" horiz-adv-x="875" 
d="M337 725l-121 179h106l112 -105l109 105h106l-117 -179h-195zM35 0v42h11c32 0 55 8 67 25c9 12 10 20 10 63v472c-20 14 -54 23 -86 23v42h221l438 -456v323c0 77 -16 91 -101 91h-12v42h277v-42h-12c-31 0 -59 -6 -70 -13c-15 -11 -17 -18 -17 -72v-544h-58l-515 538
v-396c0 -57 8 -74 39 -87c16 -6 34 -9 67 -9v-42h-259z" />
    <glyph glyph-name="Ncommaaccent" unicode="&#x145;" horiz-adv-x="875" 
d="M35 0v42h11c32 0 55 8 67 25c9 12 10 20 10 63v472c-20 14 -54 23 -86 23v42h221l438 -456v323c0 77 -16 91 -101 91h-12v42h277v-42h-12c-31 0 -59 -6 -70 -13c-15 -11 -17 -18 -17 -72v-544h-58l-515 538v-396c0 -57 8 -74 39 -87c16 -6 34 -9 67 -9v-42h-259z
M447 -176l-18 -1c-41 -2 -69 25 -69 61c0 38 29 63 73 63c59 0 99 -42 99 -106c0 -85 -64 -146 -152 -145l-7 40c58 3 101 36 101 76c0 8 -7 14 -14 14c-2 0 -7 -1 -13 -2z" />
    <glyph glyph-name="Ohungarumlaut" unicode="&#x150;" horiz-adv-x="886" 
d="M480 724l116 180h188l-220 -180h-84zM245 724l117 180h187l-220 -180h-84zM47 332c0 97 44 191 121 258c70 61 180 98 289 98c226 0 384 -140 384 -341c0 -211 -169 -362 -405 -362c-230 0 -389 142 -389 347zM208 374c0 -204 103 -343 253 -343c77 0 135 32 173 94
c29 48 47 120 47 187c0 93 -27 178 -77 245c-42 55 -102 85 -173 85c-136 0 -223 -105 -223 -268z" />
    <glyph glyph-name="Omacron" unicode="&#x14c;" horiz-adv-x="886" 
d="M233 752v95h420v-95h-420zM47 332c0 97 44 191 121 258c70 61 180 98 289 98c226 0 384 -140 384 -341c0 -211 -169 -362 -405 -362c-230 0 -389 142 -389 347zM208 374c0 -204 103 -343 253 -343c77 0 135 32 173 94c29 48 47 120 47 187c0 93 -27 178 -77 245
c-42 55 -102 85 -173 85c-136 0 -223 -105 -223 -268z" />
    <glyph glyph-name="Racute" unicode="&#x154;" horiz-adv-x="829" 
d="M276 724l116 180h188l-221 -180h-83zM13 0v42h17c41 0 60 5 76 21c14 14 17 28 17 73v395c0 49 -4 64 -22 78c-16 12 -33 16 -71 16h-15v42c130 11 242 17 316 17c99 0 160 -8 218 -27c78 -26 129 -92 129 -169c0 -82 -60 -147 -159 -174c36 -30 54 -56 120 -144
c82 -110 122 -133 207 -139v-42c-40 -1 -49 -1 -70 -1c-79 0 -136 8 -173 26c-50 23 -65 39 -158 166c-35 49 -59 77 -89 104h-85v-148c0 -49 4 -64 22 -77c16 -13 33 -17 71 -17h24v-42h-375zM271 325h26c152 0 220 48 220 157c0 107 -65 158 -201 158c-14 0 -25 -1 -45 -3
v-312z" />
    <glyph glyph-name="Rcaron" unicode="&#x158;" horiz-adv-x="829" 
d="M267 725l-121 179h106l112 -105l109 105h106l-117 -179h-195zM13 0v42h17c41 0 60 5 76 21c14 14 17 28 17 73v395c0 49 -4 64 -22 78c-16 12 -33 16 -71 16h-15v42c130 11 242 17 316 17c99 0 160 -8 218 -27c78 -26 129 -92 129 -169c0 -82 -60 -147 -159 -174
c36 -30 54 -56 120 -144c82 -110 122 -133 207 -139v-42c-40 -1 -49 -1 -70 -1c-79 0 -136 8 -173 26c-50 23 -65 39 -158 166c-35 49 -59 77 -89 104h-85v-148c0 -49 4 -64 22 -77c16 -13 33 -17 71 -17h24v-42h-375zM271 325h26c152 0 220 48 220 157
c0 107 -65 158 -201 158c-14 0 -25 -1 -45 -3v-312z" />
    <glyph glyph-name="Rcommaaccent" unicode="&#x156;" horiz-adv-x="829" 
d="M13 0v42h17c41 0 60 5 76 21c14 14 17 28 17 73v395c0 49 -4 64 -22 78c-16 12 -33 16 -71 16h-15v42c130 11 242 17 316 17c99 0 160 -8 218 -27c78 -26 129 -92 129 -169c0 -82 -60 -147 -159 -174c36 -30 54 -56 120 -144c82 -110 122 -133 207 -139v-42
c-40 -1 -49 -1 -70 -1c-79 0 -136 8 -173 26c-50 23 -65 39 -158 166c-35 49 -59 77 -89 104h-85v-148c0 -49 4 -64 22 -77c16 -13 33 -17 71 -17h24v-42h-375zM271 325h26c152 0 220 48 220 157c0 107 -65 158 -201 158c-14 0 -25 -1 -45 -3v-312zM427 -176l-18 -1
c-41 -2 -69 25 -69 61c0 38 29 63 73 63c59 0 99 -42 99 -106c0 -85 -64 -146 -152 -145l-7 40c58 3 101 36 101 76c0 8 -7 14 -14 14c-2 0 -7 -1 -13 -2z" />
    <glyph glyph-name="Sacute" unicode="&#x15a;" horiz-adv-x="603" 
d="M256 724l117 180h187l-220 -180h-84zM90 3l-27 194h41c37 -106 99 -161 185 -161c70 0 124 46 124 105c0 35 -19 68 -54 95c-24 19 -29 22 -123 71c-58 30 -88 50 -115 78c-34 34 -53 80 -53 124c0 102 90 175 218 175c38 0 99 -10 148 -25c7 -2 13 -3 17 -3
c7 0 12 2 21 11h23l20 -173h-43c-22 86 -92 142 -175 142c-60 0 -105 -32 -105 -74c0 -39 28 -70 97 -106c87 -46 101 -55 140 -81c85 -57 123 -116 123 -191c0 -111 -102 -199 -232 -199c-47 0 -67 4 -164 32c-6 2 -12 3 -16 3c-9 0 -17 -6 -22 -17h-28z" />
    <glyph glyph-name="Scedilla" unicode="&#x15e;" horiz-adv-x="603" 
d="M90 3l-27 194h41c37 -106 99 -160 185 -160c70 0 124 46 124 105c0 34 -19 68 -54 95c-24 19 -29 21 -123 70c-57 30 -88 51 -115 78c-33 34 -53 80 -53 124c0 102 90 175 218 175c38 0 99 -10 148 -25c7 -2 13 -3 17 -3c7 0 12 2 21 11h23l20 -173h-43
c-22 86 -92 142 -175 142c-60 0 -105 -32 -105 -74c0 -39 28 -70 97 -106c85 -45 101 -54 140 -80c85 -57 123 -117 123 -192c0 -107 -88 -188 -216 -198l-17 -25c55 -12 87 -47 87 -94c0 -64 -62 -111 -145 -111c-44 0 -87 10 -124 28l13 36c21 -8 56 -14 80 -14
c35 0 63 22 63 49c0 29 -21 41 -81 46l74 86c-37 4 -59 9 -130 30c-6 2 -12 3 -16 3c-9 0 -17 -6 -22 -17h-28z" />
    <glyph glyph-name="Scircumflex" unicode="&#x15c;" horiz-adv-x="603" 
d="M74 725l119 179h193l119 -179h-106l-108 105l-113 -105h-104zM90 3l-27 194h41c37 -106 99 -161 185 -161c70 0 124 46 124 105c0 35 -19 68 -54 95c-24 19 -29 22 -123 71c-58 30 -88 50 -115 78c-34 34 -53 80 -53 124c0 102 90 175 218 175c38 0 99 -10 148 -25
c7 -2 13 -3 17 -3c7 0 12 2 21 11h23l20 -173h-43c-22 86 -92 142 -175 142c-60 0 -105 -32 -105 -74c0 -39 28 -70 97 -106c87 -46 101 -55 140 -81c85 -57 123 -116 123 -191c0 -111 -102 -199 -232 -199c-47 0 -67 4 -164 32c-6 2 -12 3 -16 3c-9 0 -17 -6 -22 -17h-28z
" />
    <glyph glyph-name="Scommaaccent" unicode="&#x218;" horiz-adv-x="603" 
d="M90 3l-27 194h41c37 -106 99 -161 185 -161c70 0 124 46 124 105c0 35 -19 68 -54 95c-24 19 -29 22 -123 71c-58 30 -88 50 -115 78c-34 34 -53 80 -53 124c0 102 90 175 218 175c38 0 99 -10 148 -25c7 -2 13 -3 17 -3c7 0 12 2 21 11h23l20 -173h-43
c-22 86 -92 142 -175 142c-60 0 -105 -32 -105 -74c0 -39 28 -70 97 -106c87 -46 101 -55 140 -81c85 -57 123 -116 123 -191c0 -111 -102 -199 -232 -199c-47 0 -67 4 -164 32c-6 2 -12 3 -16 3c-9 0 -17 -6 -22 -17h-28zM300 -176l-18 -1c-41 -2 -69 25 -69 61
c0 38 29 63 73 63c59 0 99 -42 99 -106c0 -85 -64 -146 -152 -145l-7 40c58 3 101 36 101 76c0 8 -7 14 -14 14c-2 0 -7 -1 -13 -2z" />
    <glyph glyph-name="Tcaron" unicode="&#x164;" horiz-adv-x="782" 
d="M297 725l-121 179h106l112 -105l109 105h106l-117 -179h-195zM205 0v42h26c41 0 60 5 76 21c14 13 17 28 17 73v476h-112c-96 0 -108 -12 -129 -127h-44l18 200h35c19 -18 19 -18 78 -18h481c36 0 44 3 55 18h33l19 -200h-42c-23 114 -35 127 -117 127h-127v-476
c0 -49 4 -64 22 -77c16 -13 33 -17 71 -17h26v-42h-386z" />
    <glyph glyph-name="Tcommaaccent" unicode="&#x162;" horiz-adv-x="782" 
d="M205 0v42h26c41 0 60 5 76 21c14 13 17 28 17 73v476h-112c-96 0 -108 -12 -129 -127h-44l18 200h35c19 -18 19 -18 78 -18h481c36 0 44 3 55 18h33l19 -200h-42c-23 114 -35 127 -117 127h-127v-476c0 -49 4 -64 22 -77c16 -13 33 -17 71 -17h26v-42h-386zM406 -176
l-18 -1c-41 -2 -69 25 -69 61c0 38 29 63 73 63c59 0 99 -42 99 -106c0 -85 -64 -146 -152 -145l-7 40c58 3 101 36 101 76c0 8 -7 14 -14 14c-2 0 -7 -1 -13 -2z" />
    <glyph glyph-name="Ubreve" unicode="&#x16c;" horiz-adv-x="831" 
d="M577 890h41c-1 -99 -77 -169 -182 -169c-107 0 -182 68 -187 169h39c21 -54 66 -78 146 -78c82 0 129 26 143 78zM724 507v-199c0 -86 -4 -116 -20 -161c-38 -106 -138 -162 -288 -162c-159 0 -272 65 -300 174c-7 27 -10 58 -10 111v261c0 51 -3 65 -14 76
c-12 12 -35 18 -72 18h-7v42h336v-42h-5c-38 0 -58 -6 -73 -21c-14 -14 -17 -28 -17 -73v-265c0 -73 4 -96 23 -128c30 -52 93 -82 173 -82c106 0 179 49 201 135c7 26 8 46 8 117v187c0 63 -6 90 -22 107c-16 16 -39 23 -76 23h-9v42h278v-42h-8c-35 0 -64 -9 -80 -25
c-14 -15 -18 -33 -18 -93z" />
    <glyph glyph-name="Uhungarumlaut" unicode="&#x170;" horiz-adv-x="831" 
d="M451 724l116 180h188l-220 -180h-84zM216 724l117 180h187l-220 -180h-84zM724 507v-199c0 -86 -4 -116 -20 -161c-38 -106 -138 -162 -288 -162c-159 0 -272 65 -300 174c-7 27 -10 58 -10 111v261c0 51 -3 65 -14 76c-12 12 -35 18 -72 18h-7v42h336v-42h-5
c-38 0 -58 -6 -73 -21c-14 -14 -17 -28 -17 -73v-265c0 -73 4 -96 23 -128c30 -52 93 -82 173 -82c106 0 179 49 201 135c7 26 8 46 8 117v187c0 63 -6 90 -22 107c-16 16 -39 23 -76 23h-9v42h278v-42h-8c-35 0 -64 -9 -80 -25c-14 -15 -18 -33 -18 -93z" />
    <glyph glyph-name="Umacron" unicode="&#x16a;" horiz-adv-x="831" 
d="M232 752v95h420v-95h-420zM724 507v-199c0 -86 -4 -116 -20 -161c-38 -106 -138 -162 -288 -162c-159 0 -272 65 -300 174c-7 27 -10 58 -10 111v261c0 51 -3 65 -14 76c-12 12 -35 18 -72 18h-7v42h336v-42h-5c-38 0 -58 -6 -73 -21c-14 -14 -17 -28 -17 -73v-265
c0 -73 4 -96 23 -128c30 -52 93 -82 173 -82c106 0 179 49 201 135c7 26 8 46 8 117v187c0 63 -6 90 -22 107c-16 16 -39 23 -76 23h-9v42h278v-42h-8c-35 0 -64 -9 -80 -25c-14 -15 -18 -33 -18 -93z" />
    <glyph glyph-name="Uogonek" unicode="&#x172;" horiz-adv-x="831" 
d="M688 -142l16 -28c-50 -33 -91 -47 -141 -47c-83 0 -139 45 -139 112c0 35 15 67 45 93c-17 -2 -31 -3 -53 -3c-159 0 -272 65 -300 174c-7 27 -10 58 -10 111v261c0 51 -3 65 -14 76c-12 12 -35 18 -72 18h-7v42h336v-42h-5c-38 0 -58 -6 -73 -21
c-14 -14 -17 -28 -17 -73v-265c0 -73 4 -96 23 -128c30 -52 93 -82 173 -82c106 0 179 49 201 135c7 26 8 46 8 117v187c0 63 -6 90 -22 107c-16 16 -39 23 -76 23h-9v42h278v-42h-8c-35 0 -64 -9 -80 -25c-14 -15 -18 -33 -18 -93v-199c0 -108 -7 -149 -40 -204
c-33 -56 -81 -87 -164 -107c-9 -17 -12 -30 -12 -48c0 -59 53 -106 119 -106c21 0 33 3 61 15z" />
    <glyph glyph-name="Uring" unicode="&#x16e;" horiz-adv-x="831" 
d="M442 684c-71 0 -127 57 -127 128c0 68 58 125 127 125s126 -57 126 -126c0 -70 -57 -127 -126 -127zM442 739c39 0 71 32 71 72c0 39 -32 71 -71 71c-40 0 -72 -32 -72 -71c0 -40 32 -72 72 -72zM724 507v-199c0 -86 -4 -116 -20 -161c-38 -106 -138 -162 -288 -162
c-159 0 -272 65 -300 174c-7 27 -10 58 -10 111v261c0 51 -3 65 -14 76c-12 12 -35 18 -72 18h-7v42h336v-42h-5c-38 0 -58 -6 -73 -21c-14 -14 -17 -28 -17 -73v-265c0 -73 4 -96 23 -128c30 -52 93 -82 173 -82c106 0 179 49 201 135c7 26 8 46 8 117v187
c0 63 -6 90 -22 107c-16 16 -39 23 -76 23h-9v42h278v-42h-8c-35 0 -64 -9 -80 -25c-14 -15 -18 -33 -18 -93z" />
    <glyph glyph-name="Utilde" unicode="&#x168;" horiz-adv-x="831" 
d="M234 722c4 33 7 49 15 70c20 54 65 90 113 90c30 0 46 -5 111 -39c20 -10 45 -18 60 -18c26 0 43 17 53 55h68c-3 -95 -55 -159 -128 -159c-20 0 -37 5 -72 22c-60 29 -75 35 -95 35c-29 0 -45 -16 -55 -56h-70zM724 507v-199c0 -86 -4 -116 -20 -161
c-38 -106 -138 -162 -288 -162c-159 0 -272 65 -300 174c-7 27 -10 58 -10 111v261c0 51 -3 65 -14 76c-12 12 -35 18 -72 18h-7v42h336v-42h-5c-38 0 -58 -6 -73 -21c-14 -14 -17 -28 -17 -73v-265c0 -73 4 -96 23 -128c30 -52 93 -82 173 -82c106 0 179 49 201 135
c7 26 8 46 8 117v187c0 63 -6 90 -22 107c-16 16 -39 23 -76 23h-9v42h278v-42h-8c-35 0 -64 -9 -80 -25c-14 -15 -18 -33 -18 -93z" />
    <glyph glyph-name="Zacute" unicode="&#x179;" horiz-adv-x="778" 
d="M387 724l116 180h188l-221 -180h-83zM49 0v57l476 553h-243c-63 0 -63 0 -82 -5c-38 -11 -56 -43 -65 -118h-40l6 180h619v-59l-476 -551h314c63 0 84 10 107 52c15 27 23 53 34 106h41l-13 -215h-678z" />
    <glyph glyph-name="Zdotaccent" unicode="&#x17b;" horiz-adv-x="778" 
d="M416 726c-42 0 -75 34 -75 75c0 40 34 74 75 74c40 0 74 -34 74 -74c0 -41 -34 -75 -74 -75zM49 0v57l476 553h-243c-63 0 -63 0 -82 -5c-38 -11 -56 -43 -65 -118h-40l6 180h619v-59l-476 -551h314c63 0 84 10 107 52c15 27 23 53 34 106h41l-13 -215h-678z" />
    <glyph glyph-name="abreve" unicode="&#x103;" horiz-adv-x="495" 
d="M383 701v-18c0 -96 -58 -162 -144 -162c-89 0 -140 65 -141 180h40c16 -65 45 -91 105 -91c57 0 86 26 99 91h41zM287 47l-15 -14c-31 -29 -64 -44 -108 -44c-77 0 -125 43 -125 112c0 40 18 76 49 99c19 14 30 18 73 31c62 19 104 39 132 64v40c0 41 -28 72 -66 72
c-37 0 -58 -23 -58 -64c0 -5 0 -10 2 -19l-120 -42c-4 17 -5 25 -5 36c0 43 21 72 69 97c40 20 98 35 136 35c56 0 122 -27 151 -62c16 -20 24 -48 24 -88v-135c0 -50 2 -77 4 -82c3 -11 10 -17 20 -17c8 0 14 3 29 13l16 -25c-35 -37 -87 -64 -122 -64c-40 0 -66 22 -75 64
zM295 93v154c-20 -16 -28 -20 -69 -39c-43 -21 -58 -43 -58 -85c0 -44 22 -74 54 -74c18 0 32 8 73 44z" />
    <glyph glyph-name="amacron" unicode="&#x101;" horiz-adv-x="495" 
d="M75 559v82h344v-82h-344zM287 47l-15 -14c-31 -29 -64 -44 -108 -44c-77 0 -125 43 -125 112c0 40 18 76 49 99c19 14 30 18 73 31c62 19 104 39 132 64v40c0 41 -28 72 -66 72c-37 0 -58 -23 -58 -64c0 -5 0 -10 2 -19l-120 -42c-4 17 -5 25 -5 36c0 43 21 72 69 97
c40 20 98 35 136 35c56 0 122 -27 151 -62c16 -20 24 -48 24 -88v-135c0 -50 2 -77 4 -82c3 -11 10 -17 20 -17c8 0 14 3 29 13l16 -25c-35 -37 -87 -64 -122 -64c-40 0 -66 22 -75 64zM295 93v154c-20 -16 -28 -20 -69 -39c-43 -21 -58 -43 -58 -85c0 -44 22 -74 54 -74
c18 0 32 8 73 44z" />
    <glyph glyph-name="aogonek" unicode="&#x105;" horiz-adv-x="495" 
d="M283 43l-11 -10c-31 -29 -64 -44 -108 -44c-77 0 -125 43 -125 112c0 40 18 76 49 99c19 14 30 18 73 31c62 19 104 39 132 64v40c0 41 -28 72 -66 72c-37 0 -58 -23 -58 -64c0 -5 0 -10 2 -19l-120 -42c-4 17 -5 25 -5 36c0 43 21 72 69 97c40 20 98 35 136 35
c56 0 122 -27 151 -62c16 -20 24 -48 24 -88v-135c0 -75 2 -75 4 -82c3 -11 10 -17 20 -17c8 0 14 3 29 13l16 -25c-35 -37 -87 -64 -123 -64c-3 0 -6 0 -11 1c-3 -13 -5 -29 -5 -41c0 -54 38 -92 92 -92c19 0 33 4 52 14l15 -25c-41 -31 -74 -43 -115 -43
c-69 0 -120 40 -120 93c0 35 19 71 54 102c-21 12 -31 28 -36 55l-11 -7zM295 93v154c-20 -16 -28 -20 -69 -39c-43 -21 -58 -43 -58 -85c0 -44 22 -74 54 -74c18 0 32 8 73 44z" />
    <glyph glyph-name="cacute" unicode="&#x107;" horiz-adv-x="514" 
d="M267 499l78 202h169l-182 -202h-65zM450 121l31 -18c-50 -74 -125 -114 -219 -114c-131 0 -225 89 -225 212c0 140 121 249 277 249c93 0 163 -39 163 -91c0 -32 -22 -54 -55 -54c-32 0 -45 8 -90 57c-25 28 -42 38 -62 38c-53 0 -89 -66 -89 -163
c0 -114 54 -193 133 -193c47 0 92 26 136 77z" />
    <glyph glyph-name="ccaron" unicode="&#x10d;" horiz-adv-x="514" 
d="M212 499l-91 202h84l86 -116l83 116h83l-88 -202h-157zM450 121l31 -18c-50 -74 -125 -114 -219 -114c-131 0 -225 89 -225 212c0 140 121 249 277 249c93 0 163 -39 163 -91c0 -32 -22 -54 -55 -54c-32 0 -45 8 -90 57c-25 28 -42 38 -62 38c-53 0 -89 -66 -89 -163
c0 -114 54 -193 133 -193c47 0 92 26 136 77z" />
    <glyph glyph-name="ccircumflex" unicode="&#x109;" horiz-adv-x="514" 
d="M121 499l86 202h158l90 -202h-83l-85 113l-81 -113h-85zM450 121l31 -18c-50 -74 -125 -114 -219 -114c-131 0 -225 89 -225 212c0 140 121 249 277 249c93 0 163 -39 163 -91c0 -32 -22 -54 -55 -54c-32 0 -45 8 -90 57c-25 28 -42 38 -62 38c-53 0 -89 -66 -89 -163
c0 -114 54 -193 133 -193c47 0 92 26 136 77z" />
    <glyph glyph-name="cdotaccent" unicode="&#x10b;" horiz-adv-x="514" 
d="M291 535c-35 0 -64 29 -64 65c0 34 29 63 64 63s64 -29 64 -64s-29 -64 -64 -64zM450 121l31 -18c-50 -74 -125 -114 -219 -114c-131 0 -225 89 -225 212c0 140 121 249 277 249c93 0 163 -39 163 -91c0 -32 -22 -54 -55 -54c-32 0 -45 8 -90 57c-25 28 -42 38 -62 38
c-53 0 -89 -66 -89 -163c0 -114 54 -193 133 -193c47 0 92 26 136 77z" />
    <glyph glyph-name="dcaron" unicode="&#x10f;" horiz-adv-x="818" 
d="M383 -11v85c-67 -59 -118 -85 -172 -85c-102 0 -174 84 -174 202c0 71 26 141 72 189c43 46 104 69 178 69c34 0 64 -4 96 -14v125c0 40 -3 48 -21 60c-13 9 -28 13 -51 18v26l167 53h36v-576c0 -63 9 -79 43 -79c11 0 22 2 33 6v-32l-178 -47h-29zM596 433l-8 39
c58 3 101 36 101 77c0 8 -7 14 -14 14c-2 0 -7 -1 -13 -2l-18 -1c-40 -2 -68 25 -68 61c0 38 29 63 73 63c59 0 98 -42 98 -106c0 -85 -63 -146 -151 -145zM383 122v239c-40 35 -63 46 -102 46c-71 0 -113 -59 -113 -158c0 -107 48 -181 117 -181c32 0 71 22 98 54z" />
    <glyph glyph-name="ecaron" unicode="&#x11b;" horiz-adv-x="506" 
d="M174 499l-91 202h84l86 -116l83 116h83l-88 -202h-157zM439 145l24 -21c-61 -85 -147 -135 -230 -135c-116 0 -196 90 -196 220c0 140 96 240 230 240c70 0 129 -30 159 -81c12 -20 18 -38 26 -78c3 -17 8 -26 21 -34v-24h-299c6 -91 66 -164 136 -164c38 0 78 23 129 77
zM172 266h153c-1 82 -29 132 -76 132c-45 0 -77 -49 -77 -118v-14z" />
    <glyph glyph-name="edotaccent" unicode="&#x117;" horiz-adv-x="506" 
d="M253 535c-35 0 -64 29 -64 65c0 34 29 63 64 63s64 -29 64 -64s-29 -64 -64 -64zM439 145l24 -21c-61 -85 -147 -135 -230 -135c-116 0 -196 90 -196 220c0 140 96 240 230 240c70 0 129 -30 159 -81c12 -20 18 -38 26 -78c3 -17 8 -26 21 -34v-24h-299
c6 -91 66 -164 136 -164c38 0 78 23 129 77zM172 266h153c-1 82 -29 132 -76 132c-45 0 -77 -49 -77 -118v-14z" />
    <glyph glyph-name="emacron" unicode="&#x113;" horiz-adv-x="506" 
d="M81 559v82h344v-82h-344zM439 145l24 -21c-61 -85 -147 -135 -230 -135c-116 0 -196 90 -196 220c0 140 96 240 230 240c70 0 129 -30 159 -81c12 -20 18 -38 26 -78c3 -17 8 -26 21 -34v-24h-299c6 -91 66 -164 136 -164c38 0 78 23 129 77zM172 266h153
c-1 82 -29 132 -76 132c-45 0 -77 -49 -77 -118v-14z" />
    <glyph glyph-name="eogonek" unicode="&#x119;" horiz-adv-x="506" 
d="M398 -128l15 -25c-41 -31 -74 -43 -115 -43c-69 0 -119 39 -119 93c0 32 14 63 43 92c-113 8 -185 94 -185 220c0 140 96 240 230 240c70 0 129 -30 159 -81c12 -20 18 -38 26 -78c3 -17 8 -26 21 -34v-24h-299c6 -91 66 -164 136 -164c38 0 78 23 129 77l24 -21
c-53 -75 -132 -126 -203 -134c-4 -15 -6 -28 -6 -40c0 -55 38 -92 92 -92c19 0 33 4 52 14zM172 266h153c-1 82 -29 132 -76 132c-45 0 -77 -49 -77 -118v-14z" />
    <glyph glyph-name="gbreve" unicode="&#x11f;" horiz-adv-x="578" 
d="M359 701h40c1 -8 1 -16 1 -18c0 -96 -59 -162 -145 -162c-89 0 -139 65 -141 180h41c15 -65 44 -91 104 -91c58 0 86 26 100 91zM271 141h-13c-73 -25 -89 -34 -89 -51c0 -22 48 -35 135 -35c10 0 22 0 34 1c19 1 31 1 35 1c118 0 186 -46 186 -126
c0 -102 -131 -179 -304 -179c-123 0 -218 46 -218 107c0 31 19 51 67 72c21 9 28 15 37 30c-58 19 -91 56 -91 101c0 28 15 44 53 61c15 6 30 11 92 30c-74 4 -140 67 -140 132c0 93 95 164 219 164c58 0 106 -14 144 -42l152 39v-111l-108 25c15 -21 22 -43 22 -69
c0 -45 -27 -89 -69 -113c-40 -23 -96 -37 -144 -37zM273 184c50 0 78 34 78 96c0 77 -32 125 -84 125c-50 0 -80 -38 -80 -101c0 -78 30 -120 86 -120zM192 -50l-4 -3c-21 -16 -37 -39 -37 -55c0 -51 72 -94 158 -94c87 0 154 39 154 90c0 39 -31 58 -106 55l-58 -2
c-46 -2 -81 3 -107 9z" />
    <glyph glyph-name="gcircumflex" unicode="&#x11d;" horiz-adv-x="578" 
d="M96 499l86 202h158l90 -202h-83l-85 113l-81 -113h-85zM271 141h-13c-73 -25 -89 -34 -89 -51c0 -22 48 -35 135 -35c10 0 22 0 34 1c19 1 31 1 35 1c118 0 186 -46 186 -126c0 -102 -131 -179 -304 -179c-123 0 -218 46 -218 107c0 31 19 51 67 72c21 9 28 15 37 30
c-58 19 -91 56 -91 101c0 28 15 44 53 61c15 6 30 11 92 30c-74 4 -140 67 -140 132c0 93 95 164 219 164c58 0 106 -14 144 -42l152 39v-111l-108 25c15 -21 22 -43 22 -69c0 -45 -27 -89 -69 -113c-40 -23 -96 -37 -144 -37zM273 184c50 0 78 34 78 96
c0 77 -32 125 -84 125c-50 0 -80 -38 -80 -101c0 -78 30 -120 86 -120zM192 -50l-4 -3c-21 -16 -37 -39 -37 -55c0 -51 72 -94 158 -94c87 0 154 39 154 90c0 39 -31 58 -106 55l-58 -2c-46 -2 -81 3 -107 9z" />
    <glyph glyph-name="gcommaaccent" unicode="&#x123;" horiz-adv-x="578" 
d="M274 601l18 1c41 2 69 -25 69 -61c0 -38 -29 -63 -73 -63c-59 0 -99 42 -99 106c0 85 64 146 152 145l7 -40c-58 -3 -101 -36 -101 -76c0 -8 7 -14 14 -14c2 0 7 1 13 2zM271 141h-13c-73 -25 -89 -34 -89 -51c0 -22 48 -35 135 -35c10 0 22 0 34 1c19 1 31 1 35 1
c118 0 186 -46 186 -126c0 -102 -131 -179 -304 -179c-123 0 -218 46 -218 107c0 31 19 51 67 72c21 9 28 15 37 30c-58 19 -91 56 -91 101c0 28 15 44 53 61c15 6 30 11 92 30c-74 4 -140 67 -140 132c0 93 95 164 219 164c58 0 106 -14 144 -42l152 39v-111l-108 25
c15 -21 22 -43 22 -69c0 -45 -27 -89 -69 -113c-40 -23 -96 -37 -144 -37zM273 184c50 0 78 34 78 96c0 77 -32 125 -84 125c-50 0 -80 -38 -80 -101c0 -78 30 -120 86 -120zM192 -50l-4 -3c-21 -16 -37 -39 -37 -55c0 -51 72 -94 158 -94c87 0 154 39 154 90
c0 39 -31 58 -106 55l-58 -2c-46 -2 -81 3 -107 9z" />
    <glyph glyph-name="gdotaccent" unicode="&#x121;" horiz-adv-x="578" 
d="M264 535c-35 0 -64 29 -64 65c0 34 29 63 64 63s64 -29 64 -64s-29 -64 -64 -64zM271 141h-13c-73 -25 -89 -34 -89 -51c0 -22 48 -35 135 -35c10 0 22 0 34 1c19 1 31 1 35 1c118 0 186 -46 186 -126c0 -102 -131 -179 -304 -179c-123 0 -218 46 -218 107
c0 31 19 51 67 72c21 9 28 15 37 30c-58 19 -91 56 -91 101c0 28 15 44 53 61c15 6 30 11 92 30c-74 4 -140 67 -140 132c0 93 95 164 219 164c58 0 106 -14 144 -42l152 39v-111l-108 25c15 -21 22 -43 22 -69c0 -45 -27 -89 -69 -113c-40 -23 -96 -37 -144 -37zM273 184
c50 0 78 34 78 96c0 77 -32 125 -84 125c-50 0 -80 -38 -80 -101c0 -78 30 -120 86 -120zM192 -50l-4 -3c-21 -16 -37 -39 -37 -55c0 -51 72 -94 158 -94c87 0 154 39 154 90c0 39 -31 58 -106 55l-58 -2c-46 -2 -81 3 -107 9z" />
    <glyph glyph-name="hcircumflex" unicode="&#x125;" horiz-adv-x="613" 
d="M-42 732l126 172h100l126 -172h-85l-91 83l-91 -83h-85zM14 0v34h5c64 0 69 8 69 101v437c0 44 1 47 -64 69l-9 3v19l177 54h27v-349c71 49 147 81 193 81c78 0 117 -63 117 -191v-123c0 -89 7 -101 56 -101h3v-34h-253v34h4c25 0 45 8 51 20c6 9 8 33 8 81v140
c0 58 -27 94 -70 94c-29 0 -73 -17 -109 -40v-194c0 -91 6 -101 63 -101h4v-34h-272z" />
    <glyph glyph-name="imacron" unicode="&#x12b;" horiz-adv-x="307" 
d="M-6 559v82h296v-82h-296zM17 0v34h11c44 0 60 20 60 75v202c0 37 -2 39 -37 53l-35 14v26l183 60h20v-345c0 -38 3 -55 12 -66c9 -10 31 -19 47 -19h7v-34h-268z" />
    <glyph glyph-name="iogonek" unicode="&#x12f;" horiz-adv-x="307" 
d="M147 558c-47 0 -83 32 -83 73c0 40 40 74 88 74c46 0 83 -33 83 -74s-39 -73 -88 -73zM17 0v34h11c44 0 60 20 60 75v202c0 37 -2 39 -37 53l-35 14v26l183 60h20v-345c0 -38 3 -55 13 -66c9 -10 30 -19 47 -19h6v-34h-126c-5 -18 -8 -36 -8 -50c0 -54 38 -92 93 -92
c19 0 33 4 52 14l14 -25c-40 -31 -73 -43 -115 -43c-69 0 -119 39 -119 93c0 37 17 70 54 103h-113z" />
    <glyph glyph-name="itilde" unicode="&#x129;" horiz-adv-x="307" 
d="M17 521h-68c0 95 48 159 119 159c25 0 50 -8 88 -30c38 -21 51 -26 68 -26c23 0 42 20 50 54h69c-4 -90 -54 -157 -117 -157c-27 0 -42 5 -103 36c-29 15 -44 20 -56 20c-25 0 -40 -17 -50 -56zM17 0v34h11c44 0 60 20 60 75v202c0 37 -2 39 -37 53l-35 14v26l183 60h20
v-345c0 -38 3 -55 12 -66c9 -10 31 -19 47 -19h7v-34h-268z" />
    <glyph glyph-name="jcircumflex" unicode="&#x135;" horiz-adv-x="303" 
d="M-33 499l86 202h158l90 -202h-83l-85 113l-81 -113h-85zM87 -30v345c0 32 -3 36 -36 48l-36 13v26l181 61h22v-422c0 -63 -1 -77 -8 -107c-26 -112 -111 -180 -226 -180c-70 0 -111 24 -111 64c0 33 33 64 68 64c26 0 41 -11 70 -50c10 -14 23 -23 33 -23
c16 0 31 18 38 45c4 18 5 27 5 116z" />
    <glyph glyph-name="kcommaaccent" unicode="&#x137;" horiz-adv-x="587" 
d="M22 0v34h6c44 0 60 20 60 75v472c0 32 -4 38 -34 48l-32 11v25l171 52h26v-466l145 121c10 8 13 12 13 18c0 13 -4 15 -45 15h-7v33h222v-34h-8c-39 0 -87 -21 -127 -55l-73 -61l155 -195c35 -45 57 -59 83 -59h9v-34h-247v34h4c14 0 22 5 22 14c0 4 -4 12 -11 21
l-135 173v-123c0 -37 3 -55 12 -66c10 -10 31 -19 47 -19h4v-34h-260zM295 -176l-18 -1c-41 -2 -69 25 -69 61c0 38 29 63 73 63c59 0 99 -42 99 -106c0 -85 -64 -146 -152 -145l-7 40c58 3 101 36 101 76c0 8 -7 14 -14 14c-2 0 -7 -1 -13 -2z" />
    <glyph glyph-name="lacute" unicode="&#x13a;" horiz-adv-x="303" 
d="M94 757l116 180h188l-220 -180h-84zM17 0v34h11c44 0 60 20 60 75v442c0 48 -4 57 -28 65l-46 16v32l186 53h19v-598c0 -37 3 -55 12 -66c10 -10 31 -19 47 -19h5v-34h-266z" />
    <glyph glyph-name="lcaron" unicode="&#x13e;" horiz-adv-x="523" 
d="M17 0v34h11c44 0 60 20 60 75v442c0 48 -4 57 -28 65l-46 16v32l186 53h19v-598c0 -37 3 -55 12 -66c10 -10 31 -19 47 -19h5v-34h-266zM301 433l-8 39c58 3 101 36 101 77c0 8 -7 14 -14 14c-2 0 -7 -1 -13 -2l-18 -1c-41 -2 -69 25 -69 61c0 38 29 63 73 63
c59 0 99 -43 99 -106c0 -85 -64 -146 -151 -145z" />
    <glyph glyph-name="lcommaaccent" unicode="&#x13c;" horiz-adv-x="303" 
d="M17 0v34h11c44 0 60 20 60 75v442c0 48 -4 57 -28 65l-46 16v32l186 53h19v-598c0 -37 3 -55 12 -66c10 -10 31 -19 47 -19h5v-34h-266zM159 -176l-18 -1c-41 -2 -69 25 -69 61c0 38 29 63 73 63c59 0 99 -42 99 -106c0 -85 -64 -146 -152 -145l-7 40c58 3 101 36 101 76
c0 8 -7 14 -14 14c-2 0 -7 -1 -13 -2z" />
    <glyph glyph-name="nacute" unicode="&#x144;" horiz-adv-x="614" 
d="M282 499l79 202h169l-182 -202h-66zM20 0v34h7c45 0 61 20 61 75v215c0 19 -22 35 -58 45l-15 4v27l184 61h20v-96c13 9 27 18 49 30c68 39 110 54 150 54c46 0 82 -25 97 -67c12 -33 15 -60 15 -117v-130c0 -49 2 -71 8 -81c6 -12 27 -20 49 -20h5v-34h-254v34
c48 6 61 36 61 141v64c0 91 -19 129 -66 129c-31 0 -57 -10 -114 -47v-202c0 -38 3 -55 12 -66c9 -10 31 -19 47 -19h15v-34h-273z" />
    <glyph glyph-name="ncaron" unicode="&#x148;" horiz-adv-x="614" 
d="M241 499l-91 202h84l86 -116l83 116h83l-88 -202h-157zM20 0v34h7c45 0 61 20 61 75v215c0 19 -22 35 -58 45l-15 4v27l184 61h20v-96c13 9 27 18 49 30c68 39 110 54 150 54c46 0 82 -25 97 -67c12 -33 15 -60 15 -117v-130c0 -49 2 -71 8 -81c6 -12 27 -20 49 -20h5
v-34h-254v34c48 6 61 36 61 141v64c0 91 -19 129 -66 129c-31 0 -57 -10 -114 -47v-202c0 -38 3 -55 12 -66c9 -10 31 -19 47 -19h15v-34h-273z" />
    <glyph glyph-name="ncommaaccent" unicode="&#x146;" horiz-adv-x="614" 
d="M20 0v34h7c45 0 61 20 61 75v215c0 19 -22 35 -58 45l-15 4v27l184 61h20v-96c13 9 27 18 49 30c68 39 110 54 150 54c46 0 82 -25 97 -67c12 -33 15 -60 15 -117v-130c0 -49 2 -71 8 -81c6 -12 27 -20 49 -20h5v-34h-254v34c48 6 61 36 61 141v64c0 91 -19 129 -66 129
c-31 0 -57 -10 -114 -47v-202c0 -38 3 -55 12 -66c9 -10 31 -19 47 -19h15v-34h-273zM314 -176l-18 -1c-41 -2 -69 25 -69 61c0 38 29 63 73 63c59 0 99 -42 99 -106c0 -85 -64 -146 -152 -145l-7 40c58 3 101 36 101 76c0 8 -7 14 -14 14c-2 0 -7 -1 -13 -2z" />
    <glyph glyph-name="ohungarumlaut" unicode="&#x151;" horiz-adv-x="596" 
d="M350 499l78 202h169l-182 -202h-65zM140 499l79 202h169l-182 -202h-66zM37 216c0 131 118 234 269 234c148 0 254 -93 254 -223c0 -137 -115 -238 -272 -238c-147 0 -251 94 -251 227zM214 114c24 -52 62 -81 108 -81c60 0 96 49 96 133c0 139 -58 239 -139 239
c-63 0 -100 -48 -100 -128c0 -53 13 -114 35 -163z" />
    <glyph glyph-name="omacron" unicode="&#x14d;" horiz-adv-x="596" 
d="M126 559v82h344v-82h-344zM37 216c0 131 118 234 269 234c148 0 254 -93 254 -223c0 -137 -115 -238 -272 -238c-147 0 -251 94 -251 227zM214 114c24 -52 62 -81 108 -81c60 0 96 49 96 133c0 139 -58 239 -139 239c-63 0 -100 -48 -100 -128c0 -53 13 -114 35 -163z
" />
    <glyph glyph-name="racute" unicode="&#x155;" horiz-adv-x="421" 
d="M145 499l79 202h169l-182 -202h-66zM20 0v34h8c44 0 60 20 60 75v176c0 48 -6 59 -39 72l-29 11v27l176 66h23v-120c50 92 64 108 95 108c12 0 27 -3 45 -10l62 -24c-12 -41 -33 -89 -51 -114l-51 19c-14 5 -28 8 -37 8c-20 0 -40 -15 -63 -48v-161c0 -68 14 -85 72 -85
h28v-34h-299z" />
    <glyph glyph-name="rcaron" unicode="&#x159;" horiz-adv-x="421" 
d="M144 499l-91 202h84l86 -116l83 116h83l-88 -202h-157zM20 0v34h8c44 0 60 20 60 75v176c0 48 -6 59 -39 72l-29 11v27l176 66h23v-120c50 92 64 108 95 108c12 0 27 -3 45 -10l62 -24c-12 -41 -33 -89 -51 -114l-51 19c-14 5 -28 8 -37 8c-20 0 -40 -15 -63 -48v-161
c0 -68 14 -85 72 -85h28v-34h-299z" />
    <glyph glyph-name="rcommaaccent" unicode="&#x157;" horiz-adv-x="421" 
d="M20 0v34h8c44 0 60 20 60 75v176c0 48 -6 59 -39 72l-29 11v27l176 66h23v-120c50 92 64 108 95 108c12 0 27 -3 45 -10l62 -24c-12 -41 -33 -89 -51 -114l-51 19c-14 5 -28 8 -37 8c-20 0 -40 -15 -63 -48v-161c0 -68 14 -85 72 -85h28v-34h-299zM162 -176l-18 -1
c-41 -2 -69 25 -69 61c0 38 29 63 73 63c59 0 99 -42 99 -106c0 -85 -64 -146 -152 -145l-7 40c58 3 101 36 101 76c0 8 -7 14 -14 14c-2 0 -7 -1 -13 -2z" />
    <glyph glyph-name="sacute" unicode="&#x15b;" horiz-adv-x="402" 
d="M175 499l79 202h169l-182 -202h-66zM57 -10l-12 136h34c24 -60 61 -91 112 -91c30 0 55 22 55 49c0 12 -6 25 -16 35c-13 13 -13 13 -80 56c-78 50 -104 84 -104 138c0 82 67 136 169 136c40 0 73 -6 118 -22l2 -115h-33c-20 60 -56 93 -102 93c-28 0 -49 -18 -49 -42
c0 -27 20 -48 78 -81c68 -39 75 -44 97 -66c23 -23 36 -56 36 -92c0 -79 -60 -136 -142 -136c-25 0 -68 6 -100 14c-4 1 -8 2 -11 2c-6 0 -12 -4 -22 -14h-30z" />
    <glyph glyph-name="scedilla" unicode="&#x15f;" horiz-adv-x="402" 
d="M57 -10l-12 136h34c24 -60 61 -90 112 -90c30 0 55 22 55 49c0 12 -6 25 -16 34c-13 13 -13 13 -80 56c-78 50 -104 84 -104 138c0 82 67 136 169 136c40 0 73 -6 118 -22l2 -115h-33c-20 60 -56 93 -102 93c-28 0 -49 -18 -49 -42c0 -27 20 -47 78 -81
c69 -39 75 -43 97 -65c24 -24 36 -57 36 -93c0 -72 -45 -122 -120 -134l-14 -26c41 -10 65 -42 65 -84c0 -58 -46 -100 -109 -100c-33 0 -64 9 -93 25l10 33c16 -8 41 -13 60 -13c26 0 47 20 47 44c0 26 -18 38 -61 41l56 79c-22 1 -47 5 -83 13c-4 1 -8 2 -11 2
c-6 0 -12 -4 -22 -14h-30z" />
    <glyph glyph-name="scircumflex" unicode="&#x15d;" horiz-adv-x="402" 
d="M31 499l86 202h158l90 -202h-83l-85 113l-81 -113h-85zM57 -10l-12 136h34c24 -60 61 -91 112 -91c30 0 55 22 55 49c0 12 -6 25 -16 35c-13 13 -13 13 -80 56c-78 50 -104 84 -104 138c0 82 67 136 169 136c40 0 73 -6 118 -22l2 -115h-33c-20 60 -56 93 -102 93
c-28 0 -49 -18 -49 -42c0 -27 20 -48 78 -81c68 -39 75 -44 97 -66c23 -23 36 -56 36 -92c0 -79 -60 -136 -142 -136c-25 0 -68 6 -100 14c-4 1 -8 2 -11 2c-6 0 -12 -4 -22 -14h-30z" />
    <glyph glyph-name="scommaaccent" unicode="&#x219;" horiz-adv-x="402" 
d="M57 -10l-12 136h34c24 -60 61 -91 112 -91c30 0 55 22 55 49c0 12 -6 25 -16 35c-13 13 -13 13 -80 56c-78 50 -104 84 -104 138c0 82 67 136 169 136c40 0 73 -6 118 -22l2 -115h-33c-20 60 -56 93 -102 93c-28 0 -49 -18 -49 -42c0 -27 20 -48 78 -81
c68 -39 75 -44 97 -66c23 -23 36 -56 36 -92c0 -79 -60 -136 -142 -136c-25 0 -68 6 -100 14c-4 1 -8 2 -11 2c-6 0 -12 -4 -22 -14h-30zM216 -176l-18 -1c-41 -2 -69 25 -69 61c0 38 29 63 73 63c59 0 99 -42 99 -106c0 -85 -64 -146 -152 -145l-7 40c58 3 101 36 101 76
c0 8 -7 14 -14 14c-2 0 -7 -1 -13 -2z" />
    <glyph glyph-name="tcaron" unicode="&#x165;" horiz-adv-x="564" 
d="M342 479l-7 40c58 3 101 36 101 76c0 8 -7 14 -14 14c-2 0 -7 -1 -13 -2l-18 -1c-41 -2 -69 25 -69 61c0 38 29 63 73 63c59 0 99 -42 99 -106c0 -85 -64 -146 -152 -145zM346 116l16 -30c-33 -57 -97 -97 -157 -97c-48 0 -87 21 -104 56c-14 28 -17 46 -17 107v233h-57
v21c61 23 138 105 158 166h30v-130h142l-15 -57h-127v-242c0 -37 1 -47 7 -58c7 -14 25 -23 43 -23c26 0 51 17 81 54z" />
    <glyph glyph-name="tcommaaccent" unicode="&#x163;" horiz-adv-x="370" 
d="M346 116l16 -30c-33 -57 -97 -97 -157 -97c-48 0 -87 21 -104 56c-14 28 -17 46 -17 107v233h-57v21c61 23 138 105 158 166h30v-130h142l-15 -57h-127v-242c0 -37 1 -47 7 -58c7 -14 25 -23 43 -23c26 0 51 17 81 54zM200 -176l-18 -1c-41 -2 -69 25 -69 61
c0 38 29 63 73 63c59 0 99 -42 99 -106c0 -85 -64 -146 -152 -145l-7 40c58 3 101 36 101 76c0 8 -7 14 -14 14c-2 0 -7 -1 -13 -2z" />
    <glyph glyph-name="ubreve" unicode="&#x16d;" horiz-adv-x="611" 
d="M448 701v-18c0 -96 -58 -162 -144 -162c-89 0 -140 65 -141 180h40c16 -65 45 -91 105 -91c57 0 86 26 99 91h41zM88 152v163c0 41 -3 50 -23 60l-22 11v24l154 39h22v-235c0 -71 3 -95 17 -115c12 -19 31 -29 53 -29c25 0 62 15 108 44v194c0 42 -7 52 -39 62l-49 15v25
l219 39v-328c0 -54 5 -65 32 -65c10 0 20 2 31 7v-33l-173 -41h-21v85c-96 -61 -150 -85 -193 -85c-76 0 -116 57 -116 163z" />
    <glyph glyph-name="uhungarumlaut" unicode="&#x171;" horiz-adv-x="611" 
d="M358 499l78 202h169l-182 -202h-65zM148 499l79 202h169l-182 -202h-66zM88 152v163c0 41 -3 50 -23 60l-22 11v24l154 39h22v-235c0 -71 3 -95 17 -115c12 -19 31 -29 53 -29c25 0 62 15 108 44v194c0 42 -7 52 -39 62l-49 15v25l219 39v-328c0 -54 5 -65 32 -65
c10 0 20 2 31 7v-33l-173 -41h-21v85c-96 -61 -150 -85 -193 -85c-76 0 -116 57 -116 163z" />
    <glyph glyph-name="umacron" unicode="&#x16b;" horiz-adv-x="611" 
d="M138 559v82h336v-82h-336zM88 152v163c0 41 -3 50 -23 60l-22 11v24l154 39h22v-235c0 -71 3 -95 17 -115c12 -19 31 -29 53 -29c25 0 62 15 108 44v194c0 42 -7 52 -39 62l-49 15v25l219 39v-328c0 -54 5 -65 32 -65c10 0 20 2 31 7v-33l-173 -41h-21v85
c-96 -61 -150 -85 -193 -85c-76 0 -116 57 -116 163z" />
    <glyph glyph-name="uogonek" unicode="&#x173;" horiz-adv-x="611" 
d="M397 -1v75c-97 -62 -150 -85 -193 -85c-47 0 -83 26 -102 71c-11 27 -14 48 -14 92v163c0 41 -3 50 -23 60l-22 11v24l154 39h22v-235c0 -71 3 -95 17 -115c12 -19 31 -29 53 -29c25 0 62 15 108 44v194c0 42 -7 52 -39 62l-49 15v25l219 39v-328c0 -54 5 -65 31 -65
c10 0 18 2 32 7v-33l-166 -40c-4 -13 -6 -28 -6 -40c0 -55 38 -92 93 -92c18 0 32 4 51 14l15 -25c-41 -31 -73 -43 -115 -43c-69 0 -119 39 -119 93c0 36 17 70 53 102z" />
    <glyph glyph-name="uring" unicode="&#x16f;" horiz-adv-x="611" 
d="M306 504c-58 0 -104 46 -104 104c0 56 48 103 104 103c57 0 103 -46 103 -103s-47 -104 -103 -104zM306 541c36 0 66 30 66 67c0 36 -29 66 -65 66s-66 -30 -66 -66c0 -37 29 -67 65 -67zM88 152v163c0 41 -3 50 -23 60l-22 11v24l154 39h22v-235c0 -71 3 -95 17 -115
c12 -19 31 -29 53 -29c25 0 62 15 108 44v194c0 42 -7 52 -39 62l-49 15v25l219 39v-328c0 -54 5 -65 32 -65c10 0 20 2 31 7v-33l-173 -41h-21v85c-96 -61 -150 -85 -193 -85c-76 0 -116 57 -116 163z" />
    <glyph glyph-name="utilde" unicode="&#x169;" horiz-adv-x="611" 
d="M113 521c0 95 48 159 119 159c25 0 50 -8 88 -30c38 -21 51 -26 68 -26c23 0 42 20 50 54h69c-4 -90 -54 -157 -117 -157c-27 0 -42 5 -103 36c-29 15 -44 20 -56 20c-25 0 -40 -17 -50 -56h-68zM88 152v163c0 41 -3 50 -23 60l-22 11v24l154 39h22v-235
c0 -71 3 -95 17 -115c12 -19 31 -29 53 -29c25 0 62 15 108 44v194c0 42 -7 52 -39 62l-49 15v25l219 39v-328c0 -54 5 -65 32 -65c10 0 20 2 31 7v-33l-173 -41h-21v85c-96 -61 -150 -85 -193 -85c-76 0 -116 57 -116 163z" />
    <glyph glyph-name="zacute" unicode="&#x17a;" horiz-adv-x="528" 
d="M255 499l79 202h169l-182 -202h-66zM22 0v34l283 345h-149c-42 0 -55 -13 -92 -91h-36l35 180h36v-8c0 -18 4 -22 40 -22h354v-30l-286 -349h134c57 0 76 7 101 35c17 20 28 36 39 55h33l-50 -149h-442z" />
    <glyph glyph-name="zdotaccent" unicode="&#x17c;" horiz-adv-x="528" 
d="M290 535c-35 0 -64 29 -64 65c0 34 29 63 64 63s64 -29 64 -64s-29 -64 -64 -64zM22 0v34l283 345h-149c-42 0 -55 -13 -92 -91h-36l35 180h36v-8c0 -18 4 -22 40 -22h354v-30l-286 -349h134c57 0 76 7 101 35c17 20 28 36 39 55h33l-50 -149h-442z" />
    <glyph glyph-name="onehalf.alt" unicode="&#xec73;" horiz-adv-x="251" 
d="M54 393v23l34 1c7 0 10 4 10 12v178c-24 -11 -35 -15 -52 -20l-10 21c37 17 64 34 90 60l5 5h33v-242c0 -10 3 -14 11 -14l36 -1v-23h-157zM0 316v34h251v-34h-251zM20 0v22c94 89 122 126 122 163c0 31 -16 50 -42 50c-24 0 -44 -19 -49 -47h-27c8 56 45 92 97 92
c49 0 86 -34 86 -80c0 -27 -12 -52 -37 -75c-10 -8 -16 -12 -43 -36c-18 -15 -20 -18 -38 -35h70c26 0 31 4 36 32h24l-10 -86h-189z" />
    <glyph glyph-name="onethird.alt" unicode="&#xec74;" horiz-adv-x="251" 
d="M54 393v23l34 1c7 0 10 4 10 12v178c-24 -11 -35 -15 -52 -20l-10 21c37 17 64 34 90 60l5 5h33v-242c0 -10 3 -14 11 -14l36 -1v-23h-157zM0 316v34h251v-34h-251zM53 205l-22 9c15 42 47 66 88 66c38 0 67 -23 67 -52c0 -21 -11 -38 -38 -56c41 -11 60 -34 60 -75
c0 -60 -51 -104 -119 -104c-40 0 -71 18 -71 41c0 15 13 27 29 27c14 0 22 -5 33 -20c11 -14 18 -19 29 -19c21 0 36 22 36 54c0 33 -17 56 -42 56c-5 0 -9 -1 -17 -4l-12 20c31 20 49 43 49 63c0 15 -12 27 -28 27c-17 0 -29 -10 -42 -33z" />
    <glyph glyph-name="twothirds.alt" unicode="&#xec75;" horiz-adv-x="251" 
d="M20 393v22c21 20 79 80 93 96c20 24 29 46 29 68c0 31 -16 50 -42 50c-24 0 -44 -19 -49 -47h-27c8 56 45 92 97 92c49 0 86 -34 86 -80c0 -36 -13 -55 -67 -101c-24 -20 -31 -26 -51 -46h70c26 0 31 4 36 33h24l-10 -87h-189zM0 316v34h251v-34h-251zM53 205l-22 9
c15 42 47 66 88 66c38 0 67 -23 67 -52c0 -21 -11 -38 -38 -56c41 -11 60 -34 60 -75c0 -60 -51 -104 -119 -104c-40 0 -71 18 -71 41c0 15 13 27 29 27c14 0 22 -5 33 -20c11 -14 18 -19 29 -19c21 0 36 22 36 54c0 33 -17 56 -42 56c-5 0 -9 -1 -17 -4l-12 20
c31 20 49 43 49 63c0 15 -12 27 -28 27c-17 0 -29 -10 -42 -33z" />
    <glyph glyph-name="onequarter.alt" unicode="&#xec76;" horiz-adv-x="251" 
d="M54 393v23l34 1c7 0 10 4 10 12v178c-24 -11 -35 -15 -52 -20l-10 21c37 17 64 34 90 60l5 5h33v-242c0 -10 3 -14 11 -14l36 -1v-23h-157zM0 316v34h251v-34h-251zM21 66v25l134 189h31v-177h39v-37h-39v-72h-66v72h-99zM62 103h58v82z" />
    <glyph glyph-name="threequarters.alt" unicode="&#xec77;" horiz-adv-x="251" 
d="M53 599l-22 9c15 42 47 66 88 66c38 0 67 -23 67 -52c0 -21 -11 -38 -38 -56c41 -11 60 -35 60 -75c0 -60 -50 -104 -119 -104c-40 0 -71 17 -71 40c0 15 13 27 29 27c14 0 22 -4 33 -20c10 -13 18 -18 29 -18c21 0 36 22 36 54c0 33 -17 56 -42 56c-5 0 -9 -1 -17 -4
l-12 19c31 20 49 44 49 64c0 15 -12 27 -28 27c-17 0 -29 -10 -42 -33zM0 316v34h251v-34h-251zM21 66v25l134 189h31v-177h39v-37h-39v-72h-66v72h-99zM62 103h58v82z" />
    <glyph glyph-name="oneeighth.alt" unicode="&#xec7c;" horiz-adv-x="251" 
d="M54 393v23l34 1c7 0 10 4 10 12v178c-24 -11 -35 -15 -52 -20l-10 21c37 17 64 34 90 60l5 5h33v-242c0 -10 3 -14 11 -14l36 -1v-23h-157zM0 316v34h251v-34h-251zM27 69c0 28 14 46 51 64c-34 24 -46 43 -46 70c0 44 40 77 92 77c51 0 93 -31 93 -68
c0 -25 -13 -42 -48 -60c40 -23 55 -44 55 -75c0 -46 -45 -84 -100 -84c-54 0 -97 34 -97 76zM144 167l2 2c10 10 17 24 17 42c0 28 -14 44 -39 44c-22 0 -37 -13 -37 -32c0 -20 18 -38 57 -56zM103 116l-1 -1c-11 -9 -17 -24 -17 -44c0 -33 16 -53 42 -53c25 0 42 16 42 38
c0 25 -8 32 -65 61v-1h-1z" />
    <glyph glyph-name="threeeighths.alt" unicode="&#xec7d;" horiz-adv-x="251" 
d="M53 599l-22 9c15 42 47 66 88 66c38 0 67 -23 67 -52c0 -21 -11 -38 -38 -56c41 -11 60 -35 60 -75c0 -60 -50 -104 -119 -104c-40 0 -71 17 -71 40c0 15 13 27 29 27c14 0 22 -4 33 -20c10 -13 18 -18 29 -18c21 0 36 22 36 54c0 33 -17 56 -42 56c-5 0 -9 -1 -17 -4
l-12 19c31 20 49 44 49 64c0 15 -12 27 -28 27c-17 0 -29 -10 -42 -33zM0 316v34h251v-34h-251zM27 69c0 28 14 46 51 64c-34 24 -46 43 -46 70c0 44 40 77 92 77c51 0 93 -31 93 -68c0 -25 -13 -42 -48 -60c40 -23 55 -44 55 -75c0 -46 -45 -84 -100 -84
c-54 0 -97 34 -97 76zM144 167l2 2c10 10 17 24 17 42c0 28 -14 44 -39 44c-22 0 -37 -13 -37 -32c0 -20 18 -38 57 -56zM103 116l-1 -1c-11 -9 -17 -24 -17 -44c0 -33 16 -53 42 -53c25 0 42 16 42 38c0 25 -8 32 -65 61v-1h-1z" />
    <glyph glyph-name="fiveeighths.alt" unicode="&#xec7e;" horiz-adv-x="251" 
d="M76 616l-2 -40c15 3 23 4 34 4c61 0 105 -40 105 -94c0 -57 -50 -99 -117 -99c-41 0 -70 16 -70 39c0 15 12 26 29 26c14 0 23 -6 35 -24c6 -9 13 -14 21 -14c22 0 38 22 38 52c0 35 -20 58 -51 58c-12 0 -22 -3 -36 -9l-17 9l6 143h106l8 1c3 0 3 0 4 2c0 1 1 2 2 4h24
l-10 -58h-109zM0 316v34h251v-34h-251zM27 69c0 28 14 46 51 64c-34 24 -46 43 -46 70c0 44 40 77 92 77c51 0 93 -31 93 -68c0 -25 -13 -42 -48 -60c40 -23 55 -44 55 -75c0 -46 -45 -84 -100 -84c-54 0 -97 34 -97 76zM144 167l2 2c10 10 17 24 17 42c0 28 -14 44 -39 44
c-22 0 -37 -13 -37 -32c0 -20 18 -38 57 -56zM103 116l-1 -1c-11 -9 -17 -24 -17 -44c0 -33 16 -53 42 -53c25 0 42 16 42 38c0 25 -8 32 -65 61v-1h-1z" />
    <glyph glyph-name="seveneighths.alt" unicode="&#xec7f;" horiz-adv-x="251" 
d="M60 387l104 224h-85c-26 0 -27 -1 -32 -27h-26l7 83h196v-22l-107 -258h-57zM0 316v34h251v-34h-251zM27 69c0 28 14 46 51 64c-34 24 -46 43 -46 70c0 44 40 77 92 77c51 0 93 -31 93 -68c0 -25 -13 -42 -48 -60c40 -23 55 -44 55 -75c0 -46 -45 -84 -100 -84
c-54 0 -97 34 -97 76zM144 167l2 2c10 10 17 24 17 42c0 28 -14 44 -39 44c-22 0 -37 -13 -37 -32c0 -20 18 -38 57 -56zM103 116l-1 -1c-11 -9 -17 -24 -17 -44c0 -33 16 -53 42 -53c25 0 42 16 42 38c0 25 -8 32 -65 61v-1h-1z" />
    <glyph glyph-name="orn.01" unicode="&#xe000;" horiz-adv-x="415" 
d="M96 175h-6c-1 -1 -3 -3 -7 -3c-5 4 -6 8 -13 8c-13 -6 -26 -6 -39 -6c-17 0 -19 5 -19 23c0 8 0 21 10 25h46c5 3 8 3 13 3h15s9 -3 11 -3h10c14 0 35 1 42 1h60c6 0 38 -1 45 -1c18 0 49 3 52 3h25c2 0 11 1 12 2l3 3c9 2 17 2 27 2c20 0 20 -12 20 -45v-5l-6 -5h-30
c-5 3 -11 6 -15 6c-2 0 -4 -1 -5 -1l-3 4c-12 -8 -23 -10 -35 -10c-16 0 -39 8 -45 8h-4c-8 0 -16 -7 -23 -7h-4c-2 0 -11 5 -12 5s-7 -2 -8 -5h-20c-14 0 -28 3 -43 3c-10 0 -21 -6 -31 -6c-6 0 -10 3 -18 3c0 0 -4 -2 -5 -2z" />
    <glyph glyph-name="orn.02" unicode="&#xe001;" horiz-adv-x="1153" 
d="M138 7h-9c-18 -6 -36 -7 -56 -7c-12 0 -22 4 -22 18c0 15 35 31 39 31c29 12 64 8 73 47c0 15 -7 31 -20 40h-11c-1 0 -6 -4 -7 -4h-18c-33 -4 -26 -34 -42 -55l-3 -7h-4l-2 13v74c0 3 2 25 2 28c0 1 -1 18 -2 21v4c2 13 2 40 11 40c13 0 13 -8 13 -18v-4
c0 -10 -5 -21 -5 -31v-4c0 -5 1 -13 6 -13c13 0 32 8 51 8h4c1 0 11 -3 14 -3c20 0 29 28 29 43c0 30 -41 62 -73 62h-12c-11 -8 -10 -28 -27 -28c-7 0 -9 5 -9 12v4c0 3 4 15 4 18c0 1 -4 7 -4 8v23c3 6 7 8 12 8l3 -1c0 -7 2 -16 10 -21c19 0 37 8 42 8l29 -4
c12 -2 11 -21 24 -21h7c7 0 8 -42 22 -42c11 0 21 18 33 18h40l2 -4s-1 -10 -1 -13h4c3 0 12 7 14 7h24c5 0 10 0 13 -2l2 -4c0 -11 -21 -13 -25 -26c0 0 1 -2 1 -3c16 0 24 7 38 7c11 0 22 -4 33 -4c22 0 39 11 58 14c7 0 12 -2 12 -7c0 -17 -51 -21 -51 -35
c10 -4 23 -11 36 -14c39 0 19 -18 31 -18c16 0 30 5 48 5c5 0 8 -3 11 -8c-4 -2 -6 -4 -7 -10c3 -12 19 -7 28 -15l7 -6c21 -15 20 -20 39 -25c19 0 25 -14 36 -14h17c10 0 22 4 22 12c0 12 -14 22 -14 36s10 19 24 19c19 0 43 -17 45 -17h6c10 3 27 5 27 20
c0 29 -42 35 -42 63c0 12 6 18 17 18c18 0 31 -14 47 -14c17 0 24 2 34 18c0 26 -47 22 -47 55c0 10 6 11 13 11h7c38 0 72 -12 106 -14h25c1 0 12 -4 14 -5h11c8 3 25 13 25 19v4c0 24 -17 47 -41 47h-19c-18 4 -42 13 -59 18s-36 5 -53 10c-34 17 -117 36 -219 36h-28
c-43 0 -80 -14 -111 -21c-4 -3 -53 -11 -81 -11c-12 0 -24 -9 -37 -9c-1 0 -14 5 -23 5h-42c-2 0 -13 4 -18 5l-6 2h-21c-8 1 -11 8 -21 8h-4c-1 -3 -2 -7 -2 -8c6 -6 9 -17 9 -25c-5 -23 -13 -53 -41 -53c0 11 9 16 10 26v35c-5 39 -33 39 -65 49c-1 0 -10 1 -11 4h-4
c0 -2 -7 -13 -7 -24l-3 -29c-1 -4 -6 -5 -10 -5c0 10 -1 21 -5 34v125c0 3 -1 18 -2 22c0 4 5 29 14 29l37 4l4 -1c54 -19 90 -76 90 -131c0 -3 -2 -10 -2 -11v-5c0 -27 74 -28 94 -32h4c42 9 86 11 127 24c15 0 66 13 84 31c4 0 35 17 40 17c21 8 37 8 62 8
c30 0 76 -11 104 -28l7 -7c30 -23 87 -49 113 -49h27c5 -12 40 -6 45 -15c4 -1 23 -10 26 -10c23 0 60 -13 81 -18h19c15 0 35 -12 48 -21l18 -17c1 -3 4 -17 4 -21c0 -17 -34 -34 -45 -42h-66c-44 0 -81 18 -126 18h-31c-5 -5 -5 -7 -5 -10c0 -12 15 -20 15 -42
c0 -43 -57 -33 -57 -46c0 -4 4 -11 4 -13v-37c-18 -24 -34 -28 -66 -31c-9 0 -9 -62 -46 -62h-17c-35 5 -83 22 -91 25l-101 49s-15 0 -24 7c-5 0 -38 16 -42 16c-2 2 -25 5 -28 5c0 0 -9 2 -10 2h-14c-1 2 -13 8 -14 8h-27c-9 0 -11 5 -30 5c-16 0 -80 -5 -80 -18v-4
c0 -17 5 -30 5 -44c0 -43 -32 -89 -68 -89zM98 456h48c5 0 22 40 22 48c0 27 -17 39 -36 52l-7 5c-11 0 -21 4 -30 7c-5 0 -19 -25 -19 -29c0 -28 12 -83 22 -83zM571 459c28 0 47 -11 60 -11h4c5 0 10 1 10 7c0 14 -39 16 -43 16l-9 -3c-4 -1 -18 -3 -22 -3v-6zM1011 345
h-5c-9 0 -11 -1 -11 -11c0 -21 17 -38 40 -38c16 0 24 9 24 25c0 21 -22 13 -35 17c-2 0 -3 4 -13 7z" />
    <glyph glyph-name="orn.03" unicode="&#xe002;" horiz-adv-x="1074" 
d="M104 299h-4c-7 1 -23 4 -24 5c-1 0 -2 1 -4 2l-3 3c-10 8 -18 11 -18 24c0 14 2 23 10 32l15 18c29 34 121 53 125 60c6 3 28 8 32 10h17c15 3 32 8 44 18c50 0 94 20 126 20h28l4 2c3 1 4 2 4 2c21 0 26 -10 44 -14c28 0 58 -11 83 -17h18c30 -4 56 -28 83 -28
c0 0 26 -3 33 -8l3 -3c41 -23 108 -52 132 -52h7c10 0 49 18 49 28c-14 28 -31 18 -31 57c0 49 49 93 102 93c35 0 37 -42 44 -42v-5c-4 -3 -7 -25 -7 -30v-168c0 -2 3 -20 3 -25v-7c0 -9 1 -21 1 -32v-28c0 -11 -1 -24 -1 -32v-7c0 -23 -6 -123 -6 -144
c0 -14 -42 -31 -55 -31h-5c-60 7 -81 58 -81 98v37c0 4 1 9 2 12c0 2 -2 2 -5 2c-4 0 -12 -8 -13 -11c-4 0 -9 2 -12 2c-43 0 -78 -21 -117 -21l-7 -8h-17c-23 -5 -39 -18 -59 -24h-11c-8 0 -21 -5 -28 -11c-46 -1 -84 -34 -131 -34c-15 0 -85 15 -85 73c0 6 6 9 6 17v4
c-36 8 -58 17 -58 57c0 17 13 24 13 37l-45 7l-3 6c-7 9 -8 19 -8 22c0 26 17 30 22 52c0 9 -3 10 -14 10h-10c-30 0 -57 -14 -71 -14c-3 0 -25 -3 -31 -4h-35c-17 0 -34 -10 -51 -10zM964 499h-4c-29 0 -44 -9 -44 -40c0 -28 10 -29 37 -34c1 -1 11 -5 14 -5
c7 3 18 30 18 38c0 14 -14 31 -21 41zM417 454c0 -7 33 -7 39 -7c9 0 16 1 20 9c-4 4 -19 8 -28 8c-4 0 -24 -3 -28 -3zM109 337h5c3 0 35 8 38 8c1 0 12 -4 13 -4h18c3 0 13 4 14 4h31c4 0 24 7 28 7h27c3 0 10 -7 11 -7c7 0 11 14 37 14h25c15 0 34 -2 34 -14
c0 -16 -19 -19 -29 -28l-24 -27c0 -11 5 -25 18 -25c4 0 10 3 13 3h52c10 -3 11 -6 11 -17c0 -31 -57 -18 -57 -49c0 -17 14 -17 27 -17c9 0 20 3 31 3c13 0 32 0 44 -6v-10c0 -23 -35 -25 -35 -50c0 -15 0 -25 17 -25h4c2 0 3 0 4 1c4 0 38 13 40 13h36c7 3 20 10 20 21
c0 3 -2 9 -2 10c0 10 46 6 56 12c4 0 13 16 20 16h53c3 0 3 6 3 8c0 8 -11 7 -11 12c0 4 5 5 9 5h4c13 0 23 -7 36 -7c7 0 12 0 17 4c-4 7 -24 7 -24 21c0 15 41 17 50 17c24 0 35 -23 61 -23c0 3 0 18 4 18h37c0 5 5 35 10 40l2 5c1 7 11 23 11 26c0 18 -46 41 -50 41
l-10 11c-3 0 -17 11 -24 11h-22c-35 14 -107 46 -145 46l-3 2c-19 8 -36 11 -56 18c-31 10 -58 28 -89 28h-12l17 -20c0 -11 -11 -13 -17 -13h-8c-2 10 -59 4 -79 13h-91c-1 -1 -84 -23 -102 -23c-66 0 -18 -34 -63 -34c-6 0 -10 3 -20 3c-2 -1 -44 -11 -45 -17
c6 -6 21 -25 30 -25zM518 428c1 4 7 8 10 8c7 0 10 -11 10 -11c8 -6 13 1 13 -8c-14 0 -24 1 -33 11zM908 357v-4c0 -6 1 -10 4 -12c10 -10 41 -28 55 -28c13 0 18 9 18 20s-1 64 -14 64h-4c-3 0 -39 -3 -41 -5h-8c-6 -3 -10 -25 -10 -35zM908 248c0 -18 4 -47 29 -47
c21 0 51 5 51 33c0 43 -11 48 -38 48c-17 0 -42 -16 -42 -34zM916 136c0 -15 29 -35 48 -35c16 0 22 12 22 27c0 2 0 4 1 5l1 16c2 32 -28 13 -38 26h-6c-14 0 -28 -20 -28 -33v-6z" />
    <glyph glyph-name="orn.04" unicode="&#xe003;" horiz-adv-x="498" 
d="M402 408v-25c0 -1 -4 -4 -7 -5c-22 0 -40 14 -40 37c-2 0 -5 -1 -7 -1c-16 0 -28 9 -45 9c-71 0 -51 -52 -72 -52c-11 0 -19 8 -19 19v5c23 29 21 36 79 56l4 2h15c28 0 43 -18 57 -18c7 11 17 18 29 18c22 0 25 -26 49 -26c8 0 2 26 26 26c15 0 24 -14 24 -29
c0 -19 -15 -26 -34 -26h-9c-7 0 -13 0 -20 3l-20 10c-1 0 -7 -3 -10 -3zM39 93v5c7 15 32 32 32 45c0 16 -34 37 -37 38l-9 9c-8 7 -20 7 -20 22c0 32 59 21 59 56c0 21 -23 42 -23 68v10c0 26 39 53 65 53c9 0 43 -14 43 -25c-3 -4 -11 -4 -14 -4c-37 0 -52 -30 -52 -59
c0 -7 5 -17 12 -20c19 0 46 -22 65 -32l11 -6c13 -1 22 -30 40 -30c4 0 25 0 32 -7h20c3 0 22 -1 25 -1h5c3 0 50 8 50 18l-14 11c0 7 8 16 17 16h11c1 0 2 0 3 -1l22 -18c7 0 6 4 12 10l7 6l11 22c5 15 19 26 19 41c0 4 -3 7 -3 14s0 16 10 16c24 0 28 -30 28 -48
c0 -28 -8 -26 -27 -45c-3 -1 -12 -15 -13 -15c-1 -1 -7 -7 -7 -8c0 -3 2 -4 8 -4c12 0 26 3 39 3h14c12 -3 15 -14 15 -25c0 -20 -9 -21 -28 -21c-14 0 -24 11 -41 11h-9c0 -23 42 -22 42 -84v-5c-3 -3 -7 -10 -8 -10h-23c-6 0 -24 38 -24 60c-4 11 -20 18 -23 31
c-18 -10 -11 -39 -31 -39c-8 0 -20 11 -20 11c0 -11 -23 -18 -31 -18c-7 0 -8 7 -8 12c0 15 7 15 19 15h12c2 0 4 -1 7 -1l4 6c3 3 13 14 16 15c-4 3 -8 3 -11 6h-102c-5 -5 -22 -2 -26 -6c-13 -3 -19 -38 -30 -49l-4 -2c-20 -4 -45 -3 -61 -15l-17 -19c-2 -2 -3 -6 -3 -11
c0 -21 23 -26 23 -41c0 -8 -10 -17 -18 -17c-45 0 -55 30 -61 56zM379 336h-12c-9 -16 -14 -23 -34 -23s-54 28 -54 49c0 19 6 33 32 33c19 0 29 -14 29 -33c0 -7 -11 -6 -11 -13c1 -1 3 -2 6 -2h4c7 0 14 0 19 4l5 10c3 5 12 13 13 13l16 -9c0 -11 -8 -21 -13 -29zM274 257
h-11c-3 1 -35 1 -35 26c0 16 -23 0 -23 29v6c0 1 6 6 7 6c-3 4 -11 5 -11 15c0 16 3 33 14 33c9 0 21 -24 21 -32c-1 -1 -1 -2 -1 -6c1 -3 8 -9 8 -12v-11c3 -17 38 -24 38 -43c0 -2 0 -11 -7 -11zM315 245h-8c-9 0 -16 1 -21 10c0 10 5 13 12 13c9 0 22 -3 22 -14
c0 -3 0 -6 -5 -9zM60 215h10c10 0 35 11 50 11h6l16 -7c3 8 3 14 14 15l-3 4l-11 3c-19 3 -28 14 -49 14c-11 -6 -36 -17 -36 -28v-11c1 -1 2 -1 3 -1zM77 198l-11 -7c0 -6 14 -17 19 -17c3 0 7 2 13 2c5 0 10 -5 14 -5c0 0 18 2 28 12c5 16 24 13 31 20c-4 7 -11 12 -20 12
c-2 0 -3 -1 -4 -3c-23 -9 -47 -13 -70 -14zM205 68v9c0 7 10 25 9 25v20c0 3 33 41 58 41c7 0 10 -7 10 -12s-43 -61 -51 -63v-4c0 -29 23 -83 72 -83l5 2h17c10 2 30 27 30 30l3 4c1 1 9 6 9 9c-4 8 -8 11 -8 18c0 3 0 5 1 6c-8 0 -20 8 -20 18c0 7 7 11 14 14
c5 -3 16 -5 16 -14c-1 -1 -5 -8 -6 -11l3 -2c3 1 11 4 14 7c9 -3 13 -17 13 -29c-1 -3 -4 -9 -7 -10c0 -1 1 -1 3 -2c19 0 19 14 42 14h7c35 0 54 -18 54 -53c0 -12 -2 -16 -10 -21l-5 -5h-4c-7 0 -21 5 -21 15c0 1 2 6 2 7s-2 9 -2 10v8c0 1 -2 4 -3 5
c-24 0 -26 -30 -50 -30c-11 0 -11 10 -20 10h-4l-13 -11c-1 -1 -5 -4 -8 -4h-11c0 -8 -17 -12 -25 -12h-4c-3 1 -12 4 -16 7c-1 -2 -3 -3 -6 -3h-5c-39 0 -83 44 -83 90zM273 51v14c0 4 2 24 5 28c7 11 30 21 43 21c8 0 15 0 15 -11c0 -18 -28 -17 -28 -28c0 -5 2 -6 7 -6h7
c4 -5 18 -10 18 -19c0 -14 -11 -34 -27 -34h-13c-3 0 -6 1 -7 2l-12 12c0 1 -1 8 -2 9l-4 4c-1 3 -2 5 -2 8z" />
    <glyph glyph-name="orn.05" unicode="&#xe004;" horiz-adv-x="498" 
d="M286 324v-20s-30 -41 -58 -41c-7 0 -10 6 -10 13c0 2 45 61 48 61c1 0 2 0 3 1v4c0 33 -35 84 -72 84l-5 -3h-17c-7 -1 -30 -26 -30 -30l-3 -4c-1 -1 -9 -6 -9 -8c4 -8 8 -11 8 -19c0 -3 0 -5 -1 -6c8 0 20 -8 20 -18c0 -7 -7 -11 -14 -14c-5 3 -16 5 -16 14
c1 1 5 8 6 11l-3 2c-3 0 -11 -4 -14 -7c-9 3 -13 18 -13 29c1 3 4 9 7 10l-3 2c-20 0 -19 -14 -42 -14h-7c-35 0 -54 18 -54 53c0 16 3 13 13 23l2 3h4c7 0 21 -5 21 -15c0 -1 -2 -6 -2 -7c0 -3 0 -8 2 -9v-9c0 -1 2 -4 4 -5c22 0 26 30 49 30c11 0 11 -10 20 -10
c1 0 14 4 17 12l8 4h11l5 4c7 7 8 7 20 7h4c3 0 12 -4 16 -7c1 2 3 3 6 3h6c42 0 82 -41 82 -90v-9c0 -4 -6 -22 -9 -25zM228 367v-6c-8 -32 -17 -48 -51 -48c-7 0 -13 0 -13 10c0 18 28 17 28 28c0 5 -2 7 -7 7h-7c-4 0 -18 11 -18 18c0 13 10 34 26 34h14
c14 0 28 -17 28 -43zM121 185h-8s-16 -21 -23 -32c1 1 -20 -35 -20 -47c0 -4 2 -7 2 -14c0 -2 0 -16 -10 -16c-24 0 -28 30 -28 49c0 34 47 48 47 68c0 3 -2 4 -8 4c-12 0 -26 -4 -39 -4h-13c-13 4 -16 15 -16 26c0 19 9 20 28 20c13 0 26 -11 41 -11h9c0 21 -34 17 -42 85
v4c3 4 7 10 8 10h23c6 0 24 -40 24 -59c4 -12 20 -19 23 -32c18 10 11 40 31 40c5 0 20 -12 21 -11l4 7c7 7 19 10 26 10s8 -5 8 -12c0 -15 -7 -15 -19 -15h-12c-1 0 -4 2 -7 2l-4 -7c-3 -3 -12 -13 -16 -15c4 -1 8 -2 11 -5h102c46 0 32 30 56 54c19 19 85 -1 85 48
c0 19 -23 25 -23 41c0 8 10 16 18 16c37 0 53 -25 61 -56v-5c-7 -15 -32 -32 -32 -45c0 -16 14 -19 25 -28l12 -10c-2 0 29 -18 29 -30c0 -30 -59 -25 -59 -57c0 -20 23 -42 23 -67v-11c0 -26 -38 -53 -65 -53c-9 0 -43 14 -43 25c3 5 11 5 14 5c36 0 52 29 52 58
c0 9 -18 21 -17 21c0 3 -71 25 -71 38c-9 0 -22 22 -39 30h-12c-7 0 -16 1 -21 6h-20c-3 0 -22 2 -25 2h-5c-5 0 -50 -8 -50 -19l14 -11c0 -6 -8 -16 -17 -16h-11c-1 0 -2 0 -3 1zM360 243l-13 -13c-4 0 -13 -7 -18 -7c5 -7 11 -11 20 -11c2 0 3 1 4 2c23 9 47 13 70 14
l11 8c0 4 -14 17 -18 17s-8 -3 -14 -3c-1 0 -12 5 -15 5c0 0 -17 -2 -27 -12zM344 192l14 -6c12 0 30 -15 49 -15c12 7 36 17 36 28v11c-4 0 -8 1 -13 2c-10 0 -35 -12 -50 -12h-6c-3 1 -13 5 -16 8c-3 -9 -3 -15 -14 -16zM185 181h9c8 0 15 -1 20 -13c0 -7 -5 -10 -12 -10
c-8 0 -22 3 -22 14c0 3 0 6 5 9zM257 104v11c-3 17 -38 23 -38 43c0 4 1 11 6 11h12c16 -4 20 5 36 -32c0 -4 22 0 22 -23v-6c0 -1 -5 -5 -7 -6c4 -4 11 -6 11 -11v-4c0 -15 -3 -33 -14 -33c-9 0 -21 24 -21 32c0 1 1 5 1 6c-1 3 -7 9 -8 12zM108 61c0 11 8 21 13 30
c1 -1 3 -1 6 -1c8 0 11 23 40 23c20 0 54 -28 54 -48s-6 -34 -32 -34c-19 0 -29 14 -29 33c0 7 11 6 11 13c-1 2 -3 3 -6 3h-4c-7 0 -14 -1 -19 -5l-5 -10c-3 -4 -12 -13 -13 -13zM205 -27h-15c-28 0 -43 18 -57 18c-7 -9 -17 -18 -29 -18c-22 0 -25 26 -49 26
c-8 0 -2 -26 -26 -26c-15 0 -24 14 -24 29c0 9 8 20 16 25c3 0 15 1 18 1h9c16 0 28 -12 40 -12c1 0 7 2 10 2v25c0 1 4 4 7 5c47 0 18 -45 92 -45c69 0 50 52 72 52c11 0 19 -8 19 -19v-5c-16 -20 -34 -53 -72 -53z" />
    <glyph glyph-name="orn.06" unicode="&#xe005;" horiz-adv-x="630" 
d="M18 218c-5 0 -18 0 -18 11c0 3 0 6 2 8l6 2c23 0 72 25 92 45l11 11c35 35 76 108 94 162c12 0 21 32 34 44c16 23 68 93 108 93h5c5 0 -1 3 8 12c0 0 25 21 54 21h10c3 0 19 3 22 3h9c31 0 104 -30 104 -46c0 -2 57 -26 57 -51v-8c0 -3 -1 -8 -6 -8c-30 0 10 36 -103 36
h-6l-6 -3l-15 -1c-30 -11 -44 -17 -77 -41c-21 0 -31 -30 -46 -46c0 -12 -31 -26 -31 -48c-11 -15 -31 -33 -32 -38v-17c0 -23 38 -38 92 -65c1 -1 3 -2 4 -2h6c1 0 2 1 2 2l9 13c13 18 14 35 22 54c17 6 30 45 47 45c8 7 18 5 25 8l14 5h23c5 -1 16 -8 18 -10l3 -3
c33 -19 46 -58 46 -93c0 -19 -12 -29 -12 -49c0 -8 4 -9 9 -9h8c3 0 5 -1 6 -3l5 -7v-10c0 -3 -2 -5 -5 -6h-24c-27 0 -52 3 -79 8c0 1 -44 9 -45 13c-1 0 -8 -1 -13 -1c-8 0 -12 6 -23 6c-26 0 -5 -20 -63 -31l-9 -2c-12 -1 -21 -4 -34 -4h-4c-8 0 -19 0 -19 11
c0 6 61 21 77 42c0 4 -9 7 -10 10l-10 5h-8c-18 0 -55 34 -72 52c-2 -1 -50 -49 -53 -52c-48 -48 -92 -47 -149 -68h-60zM417 578l-17 14c-2 -2 -3 -4 -3 -7c0 -12 14 -30 19 -30c2 0 3 2 3 5v12c0 3 -1 5 -2 6zM374 578h-4c-5 0 -10 -6 -10 -10c0 -8 2 -13 10 -21
c4 -5 7 -16 16 -16c7 0 7 7 7 11c0 16 -8 25 -19 36zM349 546v9c-4 0 -7 -2 -9 -5c3 -3 6 -4 9 -4zM318 540h-5c0 -6 20 -28 26 -28c0 4 -2 7 -3 10zM325 473h6c-5 1 -7 13 -9 18h-12c0 -9 4 -18 15 -18zM297 445c-3 7 -20 28 -30 28c-2 0 -3 -2 -3 -5c0 -4 25 -23 33 -23z
M269 410l15 -5l4 5l-3 5c-4 4 -7 11 -12 18l-5 7h-18c0 -12 8 -23 19 -30zM236 362c1 -2 8 -5 13 -5c2 0 4 1 4 4c0 11 -22 38 -35 38c-1 0 -1 -1 -2 -3l-4 -6c0 -3 3 -5 4 -8zM219 320l-2 6c-1 5 -3 7 -4 7s-3 0 -4 -1l-5 -2c0 -5 11 -10 15 -10zM458 279
c0 -12 56 -21 72 -21h8c13 13 43 -2 43 31l-4 1c0 1 -1 3 -1 6v5c-7 14 -25 27 -38 27c-27 0 -47 -24 -57 -24l-2 -4c-1 -3 -2 -4 -3 -4zM173 305l-9 -1c0 -2 8 -16 18 -18c5 0 7 2 7 8zM140 118l-54 52c-14 9 -31 16 -50 19c-1 0 -2 1 -2 2v4c0 8 11 9 20 9h12
c26 0 48 -16 58 -16l5 -3h21c24 0 31 -16 51 -28c10 -10 34 -15 49 -26c8 -7 11 -17 19 -20l25 -26c2 -1 5 -2 8 -2h5c22 42 86 42 86 69c0 26 -60 40 -60 48c0 2 1 3 3 3h31c1 -2 3 -3 7 -3h11l4 -2c3 -3 17 -5 20 -5l11 -5l14 -10c1 -1 11 -3 12 -3h38c0 -1 1 -2 5 -2l3 7
c5 5 10 9 14 11h27c13 0 18 7 31 7h10c0 -3 4 -6 7 -10c0 -2 -1 -3 -5 -3c-3 0 -9 0 -12 3c0 -3 -5 -3 -6 -3l-5 -2c-3 -3 -15 -3 -20 -3c-1 0 -4 1 -7 1c-5 0 -6 -13 -6 -16s1 -8 5 -8c7 0 11 3 18 3h4c4 0 4 -1 4 -6c0 -13 -19 -15 -34 -22h-4l-9 12c0 -1 -2 -4 -2 -5
c0 -3 0 -6 2 -7l6 -6c5 -3 10 0 14 -5l5 -6c29 0 58 15 58 54l3 1c7 -4 8 -16 8 -25v-8c1 -1 2 -3 2 -7v-20c0 -12 -11 -79 -47 -79c-7 0 -12 0 -20 3l-4 2c-30 0 -42 18 -53 18l-5 5c-5 0 -29 38 -44 57l-7 7c0 2 -15 10 -18 10c-12 0 -29 -18 -40 -27
c-16 -13 -36 -7 -44 -41v-5c8 -19 39 -48 39 -55c2 -2 10 -26 28 -32l4 -2c0 -3 9 -12 9 -16l14 -9c4 -4 11 -12 18 -15l16 -15c10 -9 40 -17 60 -25h4c17 -1 31 -4 49 -4c29 4 42 17 62 17c7 0 7 -5 7 -9c0 -7 -1 -9 -4 -14l-19 -20h-7c-5 -4 -27 -23 -34 -27
c0 -3 -51 -29 -93 -29h-5c-34 0 -65 23 -103 36c-10 0 -16 21 -35 21l-16 15c-10 0 -67 75 -78 95c0 4 -32 35 -32 48c-3 17 -51 89 -62 98zM165 150c2 -6 6 -8 12 -8s6 10 6 16c-2 0 -12 -2 -18 -8zM209 90c5 0 22 13 30 28c0 3 -6 6 -7 6c-3 0 -8 0 -8 -4c0 -1 0 -2 1 -3
c0 -17 -16 -4 -16 -27zM246 27c0 -9 3 -14 10 -14h5c12 12 26 26 26 32h-22zM268 -19c0 -5 1 -11 6 -11c7 0 28 22 28 30c0 5 -2 7 -5 7c-7 -7 -29 -19 -29 -26zM305 -41c0 -2 2 -4 6 -6c7 7 9 12 12 21c0 3 -1 4 -4 4c-10 0 -8 -11 -13 -16c-1 -1 -1 -2 -1 -3zM346 -47
l-20 -20c-2 -2 -3 -5 -3 -8s0 -9 5 -9l12 17l11 11c0 1 1 2 2 4l-3 2c-1 1 -1 2 -4 3zM379 -103l-1 -4l6 -8c3 -1 13 16 14 17c0 4 -5 3 -6 5l-6 2c-1 -3 -6 -9 -7 -12zM408 -133v-5c0 -3 1 -5 4 -5c9 0 12 24 15 30l-2 5c-1 1 -2 2 -5 3c-3 -9 -12 -20 -12 -28zM450 -128
c-1 -3 -4 -11 -4 -14v-5l7 -6c3 0 8 19 8 22s-3 3 -6 3h-5z" />
    <glyph glyph-name="orn.07" unicode="&#xe006;" horiz-adv-x="628" 
d="M44 -130l-6 2c-15 7 -25 27 -32 43c0 4 4 8 7 8c11 0 21 -14 26 -19c19 -13 47 -22 68 -22c64 0 104 36 151 71c7 13 10 26 21 38c12 12 55 65 55 86c0 11 -9 11 -14 16l-13 12c-23 11 -40 28 -64 39h-12c-13 -10 -34 -61 -50 -86c-5 -5 -5 -2 -31 -28l-12 -9
c-9 -4 -20 -3 -32 -6c-64 17 -83 48 -83 106c0 9 8 40 8 40l3 4v9c0 4 -33 6 -33 18c0 6 6 16 17 16h10c1 0 23 -2 26 -2h16c36 -3 76 -26 116 -26c21 0 38 18 57 26c17 7 33 7 50 16c-2 1 -23 10 -24 10l-5 -4h-5c-16 0 -20 14 -28 14h-16c-23 13 -18 21 -45 21l-30 -3
c0 -24 -31 -25 -48 -25c-4 0 -6 2 -6 7c7 11 25 13 25 24c0 7 -7 7 -14 7h-5c-7 0 -11 1 -11 5c8 15 25 10 25 23c0 3 0 11 -5 11c-18 -7 -54 -15 -54 -29v-25c5 -5 7 -10 7 -15h13l3 -4c0 -4 -8 -8 -9 -8h-42l-1 3c0 7 6 9 13 9c4 0 17 0 18 -1c0 3 -2 5 -5 7l-6 6
c-1 2 -2 5 -2 10v9c0 9 -1 24 -1 41c0 38 6 85 48 85c18 0 23 -11 33 -11h18c3 -3 7 -9 13 -10l34 -33c0 -1 34 -47 50 -47c2 0 4 0 5 1c2 0 25 16 25 17s35 20 46 34l4 1c5 4 7 9 7 14v5c-14 13 -29 34 -34 47c-3 5 -8 5 -11 9c-15 17 -27 32 -39 50l-14 10
c0 -4 -36 40 -67 43c-10 2 -22 14 -44 14h-17c-19 0 -34 -4 -53 -7h-7c-9 -3 -14 -12 -23 -12c-6 0 -9 4 -9 11c0 22 61 62 78 69c1 0 4 1 5 2c23 13 49 18 73 18c17 0 22 -3 37 -6c1 -4 43 -8 60 -22l8 -1c24 0 55 -62 81 -62l9 -17l34 -35c-1 2 16 -25 29 -40
c0 -8 19 -46 26 -52l17 -16l4 -8c24 -36 34 -57 77 -88c9 -7 17 -18 28 -23l8 -1c0 -3 10 -5 11 -5h15c8 -1 26 -4 26 -17v-4l-10 -4c-12 0 -27 4 -35 4h-11c-10 10 -48 13 -72 19c0 0 -53 4 -61 31c-16 0 -34 9 -43 22c0 2 1 3 3 3l4 2c1 1 26 29 26 32c0 5 -2 6 -6 6
c-9 0 -28 -23 -28 -29c-3 -3 -4 -10 -5 -11c-5 0 -13 11 -20 14l-35 34h-8l-9 -10c-10 0 -81 -62 -81 -58c0 -8 4 -17 4 -23h14c7 0 12 -11 16 -14c11 -5 17 -1 28 -9l39 -6c-5 -7 -17 -6 -25 -9c5 -1 7 -3 7 -6v-5c0 -19 -65 -15 -65 -45c0 0 88 -69 93 -69
c7 0 26 28 32 34l41 33l4 -4l4 2c0 1 -2 4 -2 6c0 15 42 16 56 30h14c19 19 75 22 105 22c11 -3 23 -5 23 -12c0 -3 -3 -7 -6 -8l-4 -2c-66 -13 -124 -83 -124 -87c-14 -17 -3 -27 -32 -56l-4 -5c-17 -22 -18 -53 -37 -78c-15 -8 -19 -27 -28 -38c-11 -13 -22 -22 -33 -37
l-3 -5s-16 -25 -41 -41c-9 -7 -18 -7 -29 -12l-23 -16c-11 -8 -37 -17 -49 -18c-1 0 -10 3 -13 3h-30c-1 0 -14 2 -17 2h-12c-5 0 -19 5 -19 7l-4 3c0 1 -32 11 -53 35c-3 0 -15 14 -18 15zM175 559c9 0 12 17 12 22c-1 3 -2 4 -5 4c-7 0 -14 -9 -14 -17c0 -7 0 -9 7 -9z
M219 573l-4 -2c-5 -8 -13 -18 -13 -29c0 -3 3 -5 8 -5c4 0 13 18 15 31c0 3 -2 5 -6 5zM227 532c13 9 16 15 27 15c0 1 -3 6 -6 6s-5 -2 -7 -2l-14 -14v-5zM259 522v-5c0 -5 2 -7 6 -7s8 22 8 29h-4c0 -3 -4 -10 -5 -14zM287 482c11 0 21 20 21 29c-9 0 -26 -9 -26 -20
c0 -4 0 -9 5 -9zM303 459c0 -2 2 -3 10 -3c7 5 13 12 18 22c0 1 -2 2 -5 2c-7 0 -23 -12 -23 -21zM331 427c9 0 26 15 29 26c0 3 -1 8 -6 8c-3 0 -5 -1 -5 -4l-18 -21v-9zM337 386h33c8 0 13 17 13 24c0 9 0 11 -8 11s-38 -32 -38 -35zM372 349c13 0 23 13 34 23
c0 4 -2 6 -6 6c-16 0 -28 -18 -28 -29zM448 313l-4 5c-3 0 -6 -1 -7 -4s-1 -7 -1 -12c4 0 8 1 12 4v7zM469 277c1 -6 9 -13 14 -14c1 0 2 0 2 4c0 7 -4 10 -16 10zM87 108h5c1 0 11 2 14 2c1 1 57 19 57 46v4c-9 9 -58 19 -68 19c-13 0 -51 -12 -51 -35c0 -26 34 -36 43 -36
zM486 159l-5 5c-3 0 -5 -2 -5 -7c0 -1 0 -5 4 -5c2 0 6 4 6 7zM437 145c0 -11 15 -19 24 -19h8l-8 8l-1 7c-8 0 -15 7 -20 7zM404 113c0 -2 1 -2 2 -2l13 -11c3 0 12 3 12 7c0 8 -20 9 -23 9zM408 90c0 -5 11 -16 15 -16c2 0 3 2 3 8c-7 5 -10 8 -18 8zM374 76
c0 -12 11 -31 26 -31c4 0 6 3 6 10c-11 4 -5 27 -26 27c-4 0 -6 -2 -6 -6zM351 28l-2 3c-1 3 -2 4 -5 4c0 -2 -1 -2 -2 -2c0 -1 -2 -8 -5 -12c3 0 19 -30 40 -30c0 16 -17 26 -26 37zM333 -16l4 -8c7 -11 16 -21 31 -21v6c-13 12 -13 18 -31 26c-3 0 -4 -1 -4 -3zM297 -37
c3 -13 9 -18 19 -18v7l-13 11h-6zM307 -99v5c0 5 -14 17 -19 17c0 -9 14 -14 19 -22zM235 -102v-7c0 -3 7 -17 10 -24l14 -10c3 0 9 7 9 10c0 14 -26 28 -33 31zM274 -108l10 -10c2 0 4 0 4 2c0 4 -8 12 -10 12s-4 -2 -4 -4zM224 -152v4c0 12 -5 22 -15 30c-4 0 -4 -4 -4 -7
c0 -11 5 -29 17 -32c1 1 2 2 2 5z" />
    </font>
</defs>
</svg>
