<?xml version="1.0" encoding="utf-8"?>
<!-- Generator: Avocode 2.6.0 - http://avocode.com -->
<svg height="43" width="278" xmlns:xlink="http://www.w3.org/1999/xlink" xmlns="http://www.w3.org/2000/svg" viewBox="0 0 278 43">
    <path fill="#2d2e2b" fill-rule="evenodd" d="M 0.08 23.77 L 0.57 23.77 C 1.05 23.77 1.3 23.69 1.46 23.12 L 7.62 6.17 L 11.67 6.17 L 17.83 23.12 C 17.99 23.69 18.24 23.77 18.72 23.77 L 19.21 23.77 L 19.21 27.02 L 16.94 27.02 C 15.48 27.02 14.91 26.61 14.51 25.31 L 13.21 21.66 L 6.16 21.66 L 4.86 25.31 C 4.38 26.61 3.89 27.02 2.43 27.02 L 0.08 27.02 L 0.08 23.77 L 0.08 23.77 Z M 12.32 18.5 L 10.54 13.22 C 10.13 12.09 9.73 10.14 9.73 10.14 L 9.64 10.14 C 9.64 10.14 9.24 12.09 8.83 13.22 L 7.05 18.42 L 12.32 18.42 L 12.32 18.5 Z M 12.32 18.5" />
    <path fill="#2d2e2b" fill-rule="evenodd" d="M 22.05 15.82 C 22.05 15.42 21.8 15.17 21.4 15.17 L 20.26 15.17 L 20.26 12.01 L 23.67 12.01 C 24.96 12.01 25.61 12.66 25.61 13.71 L 25.61 14.12 C 25.61 14.44 25.53 14.77 25.53 14.77 L 25.61 14.77 C 26.26 13.47 27.88 11.68 30.88 11.68 C 34.2 11.68 36.07 13.39 36.07 17.36 L 36.07 23.2 C 36.07 23.61 36.31 23.85 36.72 23.85 L 37.85 23.85 L 37.85 27.02 L 34.28 27.02 C 32.91 27.02 32.26 26.45 32.26 24.99 L 32.26 18.09 C 32.26 16.31 31.77 15.01 29.91 15.01 C 27.88 15.01 26.42 16.31 25.85 18.09 C 25.61 18.74 25.53 19.39 25.53 20.12 L 25.53 27.02 L 21.8 27.02 L 21.8 15.82 L 22.05 15.82 Z M 22.05 15.82" />
    <path fill="#2d2e2b" fill-rule="evenodd" d="M 40.85 9.98 C 40.85 9.57 40.61 9.33 40.2 9.33 L 39.07 9.33 L 39.07 6.17 L 42.63 6.17 C 44.01 6.17 44.66 6.49 44.66 7.87 L 44.66 17.36 L 45.79 17.36 C 46.28 17.36 46.85 17.28 47.17 16.79 L 50.25 12.09 L 54.38 12.09 L 50.57 17.77 C 49.93 18.74 49.44 18.9 49.44 18.9 L 49.44 18.98 C 49.44 18.98 50.01 19.23 50.49 20.12 L 52.2 23.37 C 52.44 23.77 52.76 23.93 53.41 23.93 L 54.38 23.93 L 54.38 27.1 L 51.63 27.1 C 50.33 27.1 49.85 26.85 49.28 25.8 L 46.77 21.09 C 46.44 20.53 45.87 20.53 45.39 20.53 L 44.58 20.53 L 44.58 27.1 L 40.85 27.1 L 40.85 9.98 L 40.85 9.98 Z M 40.85 9.98" />
    <path fill="#2d2e2b" fill-rule="evenodd" d="M 62.89 11.68 C 67.19 11.68 69.54 14.85 69.54 18.82 C 69.54 19.23 69.46 20.2 69.46 20.2 L 59.17 20.2 C 59.49 22.88 61.44 24.26 63.62 24.26 C 66.06 24.26 67.84 22.55 67.84 22.55 L 69.38 25.15 C 69.38 25.15 67.11 27.42 63.38 27.42 C 58.44 27.42 55.36 23.85 55.36 19.55 C 55.28 14.93 58.44 11.68 62.89 11.68 L 62.89 11.68 Z M 65.73 17.61 C 65.65 15.82 64.43 14.6 62.89 14.6 C 60.95 14.6 59.65 15.74 59.25 17.61 L 65.73 17.61 L 65.73 17.61 Z M 65.73 17.61" />
    <path fill="#2d2e2b" fill-rule="evenodd" d="M 90.05 5.76 C 92.72 5.76 97.91 6.9 97.91 10.47 L 97.91 12.82 L 94.42 12.82 L 94.42 11.68 C 94.42 10.14 91.91 9.41 90.13 9.41 C 86.4 9.41 83.48 12.09 83.48 16.47 C 83.48 20.53 86.48 23.85 90.29 23.85 C 94.26 23.85 96.61 21.09 96.61 21.09 L 98.64 23.85 C 98.64 23.85 95.64 27.42 90.21 27.42 C 83.81 27.42 79.51 22.64 79.51 16.47 C 79.43 10.38 83.97 5.76 90.05 5.76 L 90.05 5.76 Z M 90.05 5.76" />
    <path fill="#2d2e2b" fill-rule="evenodd" d="M 109.9 17.61 L 110.39 17.61 L 110.39 17.52 C 110.39 15.42 109.5 14.6 107.63 14.6 C 106.99 14.6 105.61 14.77 105.61 15.58 L 105.61 16.39 L 102.12 16.39 L 102.12 14.77 C 102.12 12.01 106.09 11.68 107.63 11.68 C 112.66 11.68 114.12 14.28 114.12 17.69 L 114.12 23.28 C 114.12 23.69 114.36 23.93 114.77 23.93 L 115.9 23.93 L 115.9 27.1 L 112.58 27.1 C 111.2 27.1 110.63 26.37 110.63 25.48 L 110.63 24.83 L 110.55 24.83 C 110.55 24.83 109.42 27.5 106.01 27.5 C 103.34 27.5 100.91 25.8 100.91 22.8 C 100.99 18.01 107.47 17.61 109.9 17.61 L 109.9 17.61 Z M 106.99 24.42 C 109.01 24.42 110.39 22.31 110.39 20.45 L 110.39 20.12 L 109.74 20.12 C 107.8 20.12 104.72 20.36 104.72 22.47 C 104.72 23.53 105.45 24.42 106.99 24.42 L 106.99 24.42 Z M 106.99 24.42" />
    <path fill="#2d2e2b" fill-rule="evenodd" d="M 118.9 15.82 C 118.9 15.42 118.66 15.17 118.25 15.17 L 117.12 15.17 L 117.12 12.01 L 120.52 12.01 C 121.82 12.01 122.55 12.58 122.55 13.79 L 122.55 14.68 C 122.55 15.25 122.47 15.66 122.47 15.66 L 122.55 15.66 C 123.2 13.55 124.98 11.85 127.33 11.85 C 127.65 11.85 127.98 11.93 127.98 11.93 L 127.98 15.58 C 127.98 15.58 127.57 15.5 127.09 15.5 C 125.46 15.5 123.68 16.39 123.03 18.66 C 122.79 19.39 122.71 20.2 122.71 21.09 L 122.71 27.02 L 118.98 27.02 L 118.98 15.82 L 118.9 15.82 Z M 118.9 15.82" />
    <path fill="#2d2e2b" fill-rule="evenodd" d="M 136.81 11.68 C 141.43 11.68 145 14.93 145 19.55 C 145 24.18 141.35 27.42 136.81 27.42 C 132.27 27.42 128.63 24.18 128.63 19.55 C 128.63 14.93 132.27 11.68 136.81 11.68 L 136.81 11.68 Z M 136.81 24.18 C 139.24 24.18 141.27 22.31 141.27 19.47 C 141.27 16.71 139.24 14.77 136.81 14.77 C 134.38 14.77 132.35 16.71 132.35 19.47 C 132.43 22.31 134.46 24.18 136.81 24.18 L 136.81 24.18 Z M 136.81 24.18" />
    <path fill="#2d2e2b" fill-rule="evenodd" d="M 147.43 9.98 C 147.43 9.57 147.19 9.33 146.78 9.33 L 145.65 9.33 L 145.65 6.17 L 149.21 6.17 C 150.59 6.17 151.24 6.82 151.24 8.19 L 151.24 23.28 C 151.24 23.69 151.48 23.93 151.89 23.93 L 153.02 23.93 L 153.02 27.1 L 149.54 27.1 C 148.16 27.1 147.51 26.53 147.51 25.07 L 147.51 9.98 L 147.43 9.98 Z M 147.43 9.98" />
    <path fill="#2d2e2b" fill-rule="evenodd" d="M 164.04 17.61 L 164.53 17.61 L 164.53 17.52 C 164.53 15.42 163.64 14.6 161.77 14.6 C 161.13 14.6 159.75 14.77 159.75 15.58 L 159.75 16.39 L 156.26 16.39 L 156.26 14.77 C 156.26 12.01 160.23 11.68 161.77 11.68 C 166.8 11.68 168.26 14.28 168.26 17.69 L 168.26 23.28 C 168.26 23.69 168.5 23.93 168.91 23.93 L 170.04 23.93 L 170.04 27.1 L 166.72 27.1 C 165.34 27.1 164.77 26.37 164.77 25.48 L 164.77 24.83 L 164.69 24.83 C 164.69 24.83 163.56 27.5 160.15 27.5 C 157.48 27.5 155.05 25.8 155.05 22.8 C 155.13 18.01 161.61 17.61 164.04 17.61 L 164.04 17.61 Z M 161.13 24.42 C 163.15 24.42 164.53 22.31 164.53 20.45 L 164.53 20.12 L 163.88 20.12 C 161.94 20.12 158.86 20.36 158.86 22.47 C 158.86 23.53 159.59 24.42 161.13 24.42 L 161.13 24.42 Z M 161.13 24.42" />
    <path fill="#2d2e2b" fill-rule="evenodd" d="M 178.23 10.06 C 178.15 9.57 177.82 9.41 177.26 9.41 L 176.69 9.41 L 176.69 6.17 L 179.2 6.17 C 180.66 6.17 181.47 6.49 181.79 7.87 L 184.63 20.28 C 184.87 21.42 184.96 22.47 184.96 22.47 L 185.04 22.47 C 185.04 22.47 185.12 21.5 185.44 20.28 L 189.25 6.17 L 192.49 6.17 L 196.14 20.28 C 196.46 21.5 196.55 22.47 196.55 22.47 L 196.63 22.47 C 196.63 22.47 196.71 21.42 196.95 20.28 L 199.79 7.87 C 200.11 6.49 200.84 6.17 202.38 6.17 L 204.89 6.17 L 204.89 9.41 L 204.33 9.41 C 203.76 9.41 203.52 9.57 203.35 10.06 L 198.98 27.02 L 194.52 27.02 L 191.36 15.17 C 191.03 13.87 190.79 12.58 190.79 12.58 L 190.71 12.58 C 190.71 12.58 190.55 13.79 190.14 15.17 L 186.82 27.02 L 182.36 27.02 L 178.23 10.06 L 178.23 10.06 Z M 178.23 10.06" />
    <path fill="#2d2e2b" fill-rule="evenodd" d="M 213.81 17.61 L 214.3 17.61 L 214.3 17.52 C 214.3 15.42 213.4 14.6 211.54 14.6 C 210.89 14.6 209.51 14.77 209.51 15.58 L 209.51 16.39 L 206.03 16.39 L 206.03 14.77 C 206.03 12.01 210 11.68 211.54 11.68 C 216.56 11.68 218.02 14.28 218.02 17.69 L 218.02 23.28 C 218.02 23.69 218.27 23.93 218.67 23.93 L 219.81 23.93 L 219.81 27.1 L 216.48 27.1 C 215.11 27.1 214.54 26.37 214.54 25.48 L 214.54 24.83 L 214.46 24.83 C 214.46 24.83 213.32 27.5 209.92 27.5 C 207.24 27.5 204.81 25.8 204.81 22.8 C 204.89 18.01 211.38 17.61 213.81 17.61 L 213.81 17.61 Z M 210.89 24.42 C 212.92 24.42 214.3 22.31 214.3 20.45 L 214.3 20.12 L 213.65 20.12 C 211.7 20.12 208.62 20.36 208.62 22.47 C 208.7 23.53 209.43 24.42 210.89 24.42 L 210.89 24.42 Z M 210.89 24.42" />
    <path fill="#2d2e2b" fill-rule="evenodd" d="M 222.4 9.98 C 222.4 9.57 222.16 9.33 221.75 9.33 L 220.62 9.33 L 220.62 6.17 L 224.18 6.17 C 225.56 6.17 226.21 6.82 226.21 8.19 L 226.21 23.28 C 226.21 23.69 226.45 23.93 226.86 23.93 L 227.99 23.93 L 227.99 27.1 L 224.51 27.1 C 223.13 27.1 222.48 26.53 222.48 25.07 L 222.48 9.98 L 222.4 9.98 Z M 222.4 9.98" />
    <path fill="#2d2e2b" fill-rule="evenodd" d="M 231.07 15.01 L 229.13 15.01 L 229.13 12.01 L 231.15 12.01 L 231.15 7.95 L 234.8 7.95 L 234.8 12.01 L 238.2 12.01 L 238.2 15.01 L 234.8 15.01 L 234.8 21.09 C 234.8 23.53 236.75 23.93 237.8 23.93 C 238.2 23.93 238.45 23.85 238.45 23.85 L 238.45 27.1 C 238.45 27.1 237.96 27.18 237.31 27.18 C 235.21 27.18 231.07 26.53 231.07 21.5 L 231.07 15.01 L 231.07 15.01 Z M 231.07 15.01" />
    <path fill="#2d2e2b" fill-rule="evenodd" d="M 247.53 11.68 C 251.82 11.68 254.17 14.85 254.17 18.82 C 254.17 19.23 254.09 20.2 254.09 20.2 L 243.72 20.2 C 244.04 22.88 245.99 24.26 248.17 24.26 C 250.61 24.26 252.39 22.55 252.39 22.55 L 253.93 25.15 C 253.93 25.15 251.66 27.42 247.93 27.42 C 242.99 27.42 239.91 23.85 239.91 19.55 C 239.91 14.93 242.99 11.68 247.53 11.68 L 247.53 11.68 Z M 250.36 17.61 C 250.28 15.82 249.07 14.6 247.53 14.6 C 245.58 14.6 244.28 15.74 243.88 17.61 L 250.36 17.61 L 250.36 17.61 Z M 250.36 17.61" />
    <path fill="#2d2e2b" fill-rule="evenodd" d="M 257.74 15.82 C 257.74 15.42 257.49 15.17 257.09 15.17 L 255.95 15.17 L 255.95 12.01 L 259.36 12.01 C 260.66 12.01 261.38 12.58 261.38 13.79 L 261.38 14.68 C 261.38 15.25 261.3 15.66 261.3 15.66 L 261.38 15.66 C 262.03 13.55 263.82 11.85 266.17 11.85 C 266.49 11.85 266.82 11.93 266.82 11.93 L 266.82 15.58 C 266.82 15.58 266.41 15.5 265.92 15.5 C 264.3 15.5 262.52 16.39 261.87 18.66 C 261.63 19.39 261.55 20.2 261.55 21.09 L 261.55 27.02 L 257.74 27.02 L 257.74 15.82 L 257.74 15.82 Z M 257.74 15.82" />
    <path fill="#00d89f" fill-rule="evenodd" d="M 273.95 0.16 L 277.59 0.16 L 277.59 42.51 L 273.95 42.51 L 273.95 0.16 Z M 273.95 0.16" />
    <path fill="#000000" fill-rule="evenodd" d="M 212.84 37.08 L 210.73 37.08 L 210.73 42.51 L 209.59 42.51 L 209.59 37.08 L 207.57 37.08 L 207.57 36.1 L 212.76 36.1 L 212.76 37.08 L 212.84 37.08 Z M 212.84 37.08" />
    <path fill="#000000" fill-rule="evenodd" d="M 219.16 42.51 L 214.94 42.51 L 214.94 36.1 L 219.08 36.1 L 219.08 37 L 216.08 37 L 216.08 38.78 L 218.91 38.78 L 218.91 39.75 L 216.08 39.75 L 216.08 41.62 L 219.16 41.62 L 219.16 42.51 L 219.16 42.51 Z M 219.16 42.51" />
    <path fill="#000000" fill-rule="evenodd" d="M 225.48 42.51 L 223.86 40.16 L 222.24 42.51 L 221.02 42.51 L 223.29 39.27 L 221.1 36.1 L 222.4 36.1 L 223.94 38.29 L 225.48 36.1 L 226.7 36.1 L 224.51 39.19 L 226.78 42.51 L 225.48 42.51 L 225.48 42.51 Z M 225.48 42.51" />
    <path fill="#000000" fill-rule="evenodd" d="M 233.75 37.08 L 231.64 37.08 L 231.64 42.51 L 230.5 42.51 L 230.5 37.08 L 228.48 37.08 L 228.48 36.1 L 233.67 36.1 L 233.67 37.08 L 233.75 37.08 Z M 233.75 37.08" />
    <path fill="#000000" fill-rule="evenodd" d="M 244.93 39.67 L 243.88 39.67 L 243.88 42.51 L 241.37 42.51 C 239.91 42.51 239.26 41.7 239.26 40.81 C 239.26 40.16 239.66 39.59 240.31 39.27 C 239.74 38.94 239.42 38.29 239.42 37.73 C 239.42 36.75 240.15 35.94 241.45 35.94 C 241.93 35.94 242.34 36.02 242.58 36.18 C 242.5 36.43 242.42 36.75 242.26 37 C 242.1 36.92 241.85 36.83 241.53 36.83 C 240.8 36.83 240.56 37.32 240.56 37.81 C 240.56 38.29 240.8 38.78 241.69 38.78 L 242.82 38.78 L 242.82 37.73 L 243.88 37.73 L 243.88 38.78 L 244.93 38.78 L 244.93 39.67 L 244.93 39.67 Z M 241.61 41.7 L 242.74 41.7 L 242.74 39.67 L 241.61 39.67 C 240.72 39.67 240.39 40.16 240.39 40.65 C 240.47 41.05 240.64 41.7 241.61 41.7 L 241.61 41.7 Z M 241.61 41.7" />
    <path fill="#000000" fill-rule="evenodd" d="M 254.25 39.75 C 253.93 39.92 253.52 40.08 252.96 40.08 L 251.74 40.08 L 251.74 42.51 L 250.61 42.51 L 250.61 36.1 L 252.96 36.1 C 253.6 36.1 254.01 36.27 254.33 36.43 C 254.9 36.75 255.23 37.32 255.23 38.05 C 255.31 38.86 254.9 39.43 254.25 39.75 L 254.25 39.75 Z M 253.77 38.94 C 254.01 38.7 254.17 38.46 254.17 38.05 C 254.17 37.73 254.01 37.4 253.77 37.24 C 253.6 37.08 253.36 37 253.04 37 L 251.82 37 L 251.82 39.19 L 253.04 39.19 C 253.36 39.19 253.6 39.11 253.77 38.94 L 253.77 38.94 Z M 253.77 38.94" />
    <path fill="#000000" fill-rule="evenodd" d="M 257.49 36.1 L 259.76 36.1 C 260.66 36.1 261.14 36.27 261.55 36.59 C 261.95 36.92 262.2 37.4 262.2 37.97 C 262.2 38.62 261.79 39.27 261.22 39.59 C 261.79 39.75 262.03 40.16 262.11 40.89 C 262.2 41.38 262.28 42.19 262.36 42.51 L 261.22 42.51 L 261.06 41.13 C 260.98 40.24 260.66 40 259.93 40 L 258.55 40 L 258.55 42.43 L 257.41 42.43 L 257.41 36.1 L 257.49 36.1 Z M 261.06 38.05 C 261.06 37.73 260.98 37.4 260.74 37.24 C 260.57 37.08 260.25 37 259.84 37 L 258.63 37 L 258.63 39.19 L 259.93 39.19 C 260.33 39.19 260.57 39.11 260.82 38.86 C 260.98 38.7 261.06 38.38 261.06 38.05 L 261.06 38.05 Z M 261.06 38.05" />
</svg>